<svg xmlns="http://www.w3.org/2000/svg" xmlns:xlink="http://www.w3.org/1999/xlink" contentStyleType="text/css" data-diagram-type="DESCRIPTION" height="822px" preserveAspectRatio="none" style="width:1332px;height:822px;background:#FFFFFF;" version="1.1" viewBox="0 0 1332 822" width="1332px" zoomAndPan="magnify"><title>Despliegue - Aplicativo Web "Carnes Los Almeyda"</title><defs/><g><g class="title" data-source-line="14"><text fill="#000000" font-family="sans-serif" font-size="14" font-weight="bold" lengthAdjust="spacing" textLength="400.6885" x="458.9958" y="22.9951">Despliegue - Aplicativo Web "Carnes Los Almeyda"</text></g><!--cluster CLIENTE--><g class="cluster" data-entity="CLIENTE" data-source-line="17" data-uid="ent0002" id="cluster_CLIENTE"><polygon fill="#D6EAF8" points="472.68,53.2969,482.68,43.2969,724.68,43.2969,724.68,160.5969,714.68,170.5969,472.68,170.5969,472.68,53.2969" style="stroke:#000000;stroke-width:1;"/><line style="stroke:#000000;stroke-width:1;" x1="714.68" x2="724.68" y1="53.2969" y2="43.2969"/><line style="stroke:#000000;stroke-width:1;" x1="472.68" x2="714.68" y1="53.2969" y2="53.2969"/><line style="stroke:#000000;stroke-width:1;" x1="714.68" x2="714.68" y1="53.2969" y2="170.5969"/><text fill="#000000" font-family="sans-serif" font-size="14" font-weight="bold" lengthAdjust="spacing" textLength="55.5215" x="566.9193" y="69.292">Cliente</text><text fill="#000000" font-family="sans-serif" font-size="14" font-weight="bold" lengthAdjust="spacing" textLength="138.4277" x="525.4661" y="85.5889">(Navegador Web)</text></g><!--cluster APP--><g class="cluster" data-entity="APP" data-source-line="28" data-uid="ent0007" id="cluster_APP"><polygon fill="#D5F5E3" points="312.68,353.1869,322.68,343.1869,1315.68,343.1869,1315.68,476.7869,1305.68,486.7869,312.68,486.7869,312.68,353.1869" style="stroke:#000000;stroke-width:1;"/><line style="stroke:#000000;stroke-width:1;" x1="1305.68" x2="1315.68" y1="353.1869" y2="343.1869"/><line style="stroke:#000000;stroke-width:1;" x1="312.68" x2="1305.68" y1="353.1869" y2="353.1869"/><line style="stroke:#000000;stroke-width:1;" x1="1305.68" x2="1305.68" y1="353.1869" y2="486.7869"/><text fill="#000000" font-family="sans-serif" font-size="14" font-weight="bold" lengthAdjust="spacing" textLength="202.5283" x="708.9158" y="369.182">Servidor Web / Aplicaci&#243;n</text><text fill="#000000" font-family="sans-serif" font-size="14" font-weight="bold" lengthAdjust="spacing" textLength="214.8672" x="702.7464" y="385.4789">(Hosting compartido / VPS)</text></g><!--entity NAV--><g class="entity" data-entity="NAV" data-source-line="18" data-uid="ent0003" id="entity_NAV"><rect fill="#F1F1F1" height="39.2969" rx="2.5" ry="2.5" style="stroke:#181818;stroke-width:0.5;" width="184.3965" x="496.48" y="107.2969"/><polygon fill="#F1F1F1" points="663.8765,112.2969,663.8765,126.2969,675.8765,126.2969,675.8765,118.2969,669.8765,112.2969,663.8765,112.2969" style="stroke:#181818;stroke-width:0.5;"/><line style="stroke:#181818;stroke-width:0.5;" x1="669.8765" x2="669.8765" y1="112.2969" y2="118.2969"/><line style="stroke:#181818;stroke-width:0.5;" x1="675.8765" x2="669.8765" y1="118.2969" y2="118.2969"/><text fill="#000000" font-family="sans-serif" font-size="14" lengthAdjust="spacing" textLength="154.3965" x="506.48" y="133.292">Chrome / Edge / M&#243;vil</text></g><!--entity FRONT--><g class="entity" data-entity="FRONT" data-source-line="29" data-uid="ent0008" id="entity_FRONT"><rect fill="#F1F1F1" height="55.5938" rx="2.5" ry="2.5" style="stroke:#181818;stroke-width:0.5;" width="215.377" x="1075.99" y="407.1869"/><polygon fill="#F1F1F1" points="1274.367,412.1869,1274.367,426.1869,1286.367,426.1869,1286.367,418.1869,1280.367,412.1869,1274.367,412.1869" style="stroke:#181818;stroke-width:0.5;"/><line style="stroke:#181818;stroke-width:0.5;" x1="1280.367" x2="1280.367" y1="412.1869" y2="418.1869"/><line style="stroke:#181818;stroke-width:0.5;" x1="1286.367" x2="1280.367" y1="418.1869" y2="418.1869"/><text fill="#000000" font-family="sans-serif" font-size="14" lengthAdjust="spacing" textLength="63.1094" x="1085.99" y="433.182">Frontend</text><text fill="#000000" font-family="sans-serif" font-size="14" lengthAdjust="spacing" textLength="185.377" x="1085.99" y="449.4789">(HTML, CSS, JS, Bootstrap)</text></g><!--entity BACK--><g class="entity" data-entity="BACK" data-source-line="30" data-uid="ent0009" id="entity_BACK"><rect fill="#F1F1F1" height="55.5938" rx="2.5" ry="2.5" style="stroke:#181818;stroke-width:0.5;" width="184.0957" x="638.63" y="407.1869"/><polygon fill="#F1F1F1" points="805.7257,412.1869,805.7257,426.1869,817.7257,426.1869,817.7257,418.1869,811.7257,412.1869,805.7257,412.1869" style="stroke:#181818;stroke-width:0.5;"/><line style="stroke:#181818;stroke-width:0.5;" x1="811.7257" x2="811.7257" y1="412.1869" y2="418.1869"/><line style="stroke:#181818;stroke-width:0.5;" x1="817.7257" x2="811.7257" y1="418.1869" y2="418.1869"/><text fill="#000000" font-family="sans-serif" font-size="14" lengthAdjust="spacing" textLength="60.3613" x="648.63" y="433.182">Backend</text><text fill="#000000" font-family="sans-serif" font-size="14" lengthAdjust="spacing" textLength="154.0957" x="648.63" y="449.4789">(Python/Flask o Node)</text></g><!--entity REC--><g class="entity" data-entity="REC" data-source-line="31" data-uid="ent0010" id="entity_REC"><rect fill="#F1F1F1" height="55.5938" rx="2.5" ry="2.5" style="stroke:#181818;stroke-width:0.5;" width="183.3164" x="858.02" y="407.1869"/><polygon fill="#F1F1F1" points="1024.3364,412.1869,1024.3364,426.1869,1036.3364,426.1869,1036.3364,418.1869,1030.3364,412.1869,1024.3364,412.1869" style="stroke:#181818;stroke-width:0.5;"/><line style="stroke:#181818;stroke-width:0.5;" x1="1030.3364" x2="1030.3364" y1="412.1869" y2="418.1869"/><line style="stroke:#181818;stroke-width:0.5;" x1="1036.3364" x2="1030.3364" y1="418.1869" y2="418.1869"/><text fill="#000000" font-family="sans-serif" font-size="14" lengthAdjust="spacing" textLength="111.3232" x="868.02" y="433.182">M&#243;dulo Recetas</text><text fill="#000000" font-family="sans-serif" font-size="14" lengthAdjust="spacing" textLength="153.3164" x="868.02" y="449.4789">(Reglas / IA simulada)</text></g><!--entity API--><g class="entity" data-entity="API" data-source-line="32" data-uid="ent0011" id="entity_API"><rect fill="#F1F1F1" height="55.5938" rx="2.5" ry="2.5" style="stroke:#181818;stroke-width:0.5;" width="247.3008" x="356.03" y="407.1869"/><polygon fill="#F1F1F1" points="586.3308,412.1869,586.3308,426.1869,598.3308,426.1869,598.3308,418.1869,592.3308,412.1869,586.3308,412.1869" style="stroke:#181818;stroke-width:0.5;"/><line style="stroke:#181818;stroke-width:0.5;" x1="592.3308" x2="592.3308" y1="412.1869" y2="418.1869"/><line style="stroke:#181818;stroke-width:0.5;" x1="598.3308" x2="592.3308" y1="418.1869" y2="418.1869"/><text fill="#000000" font-family="sans-serif" font-size="14" lengthAdjust="spacing" textLength="76.6719" x="366.03" y="433.182">API interna</text><text fill="#000000" font-family="sans-serif" font-size="14" lengthAdjust="spacing" textLength="217.3008" x="366.03" y="449.4789">(Pedidos, Inventario, Reportes)</text></g><!--entity ADMIN--><g class="entity" data-entity="ADMIN" data-source-line="21" data-uid="ent0004" id="entity_ADMIN"><polygon fill="#FDEBD0" points="264.59,105.6469,274.59,95.6469,448.7668,95.6469,448.7668,148.2406,438.7668,158.2406,264.59,158.2406,264.59,105.6469" style="stroke:#000000;stroke-width:0.5;"/><line style="stroke:#000000;stroke-width:0.5;" x1="438.7668" x2="448.7668" y1="105.6469" y2="95.6469"/><line style="stroke:#000000;stroke-width:0.5;" x1="264.59" x2="438.7668" y1="105.6469" y2="105.6469"/><line style="stroke:#000000;stroke-width:0.5;" x1="438.7668" x2="438.7668" y1="105.6469" y2="158.2406"/><text fill="#000000" font-family="sans-serif" font-size="14" lengthAdjust="spacing" textLength="99.0801" x="279.59" y="128.642">Administrador</text><text fill="#000000" font-family="sans-serif" font-size="14" lengthAdjust="spacing" textLength="144.1768" x="279.59" y="144.9389">(PC oficina / port&#225;til)</text></g><!--entity OPER--><g class="entity" data-entity="OPER" data-source-line="22" data-uid="ent0005" id="entity_OPER"><polygon fill="#FADBD8" points="51.27,105.6469,61.27,95.6469,224.0854,95.6469,224.0854,148.2406,214.0854,158.2406,51.27,158.2406,51.27,105.6469" style="stroke:#000000;stroke-width:0.5;"/><line style="stroke:#000000;stroke-width:0.5;" x1="214.0854" x2="224.0854" y1="105.6469" y2="95.6469"/><line style="stroke:#000000;stroke-width:0.5;" x1="51.27" x2="214.0854" y1="105.6469" y2="105.6469"/><line style="stroke:#000000;stroke-width:0.5;" x1="214.0854" x2="214.0854" y1="105.6469" y2="158.2406"/><text fill="#000000" font-family="sans-serif" font-size="14" lengthAdjust="spacing" textLength="132.8154" x="66.27" y="128.642">Operador / Bodega</text><text fill="#000000" font-family="sans-serif" font-size="14" lengthAdjust="spacing" textLength="105.6768" x="66.27" y="144.9389">(Punto interno)</text></g><!--entity NET--><g class="entity" data-entity="NET" data-source-line="25" data-uid="ent0006" id="entity_NET"><path d="M313.4899,235.1165 C315.8034,229.7047 319.3543,229.7825 323.054,233.6947 C326.4234,228.9173 331.5646,228.3646 334.1779,234.4678 C337.4665,228.7803 343.1147,227.385 347.4576,233.2566 C350.4032,229.2366 355.0756,229.6909 357.4035,233.9945 C360.7397,228.4634 365.5182,228.2126 369.5027,233.2526 C372.2884,227.9022 376.4071,227.7488 379.5985,232.8612 C383.9513,226.9441 388.8016,227.5731 391.894,234.106 C395.0873,229.9222 399.8496,230.5212 401.7566,235.4918 C409.1232,234.9223 411.2158,240.8375 407.9225,246.3315 C414.3962,247.7057 416.2495,252.5482 412.5422,257.9652 C416.6394,263.4584 415.3863,268.898 408.2338,270.5354 C412.5504,275.9275 410.293,281.1216 403.5341,281.956 C399.8113,288.1529 394.9656,287.652 390.716,282.5538 C389.3582,288.0028 385.4571,290.319 380.6136,286.2558 C378.3303,292.9338 372.8462,293.1172 368.898,287.895 C367.1653,294.4202 362.5163,296.5831 357.364,291.21 C352.6874,296.5118 347.0577,295.072 345.7514,288.0374 C341.403,292.6452 336.4254,291.1143 335.2875,284.9259 C330.8186,289.9164 327.216,289.2698 324.6592,283.1042 C320.5266,287.7647 315.1689,287.3994 312.408,281.5111 C307.0169,278.2387 305.462,273.1133 311.5,269.0106 C305.5465,267.6183 303.103,263.2468 307.4182,258.0354 C301.4541,253.6409 303.9625,247.8418 309.771,245.691 C305.742,240.1673 307.798,237.2215 313.4899,235.1165" fill="#FFFFFF" style="stroke:#181818;stroke-width:0.5;"/><text fill="#000000" font-family="sans-serif" font-size="14" lengthAdjust="spacing" textLength="55.8359" x="318.62" y="253.592">Internet</text><text fill="#000000" font-family="sans-serif" font-size="14" lengthAdjust="spacing" textLength="76.1318" x="318.62" y="269.8889">HTTPS 443</text></g><!--entity DB--><g class="entity" data-entity="DB" data-source-line="36" data-uid="ent0012" id="entity_DB"><path d="M6,598.2869 C6,588.2869 92.6821,588.2869 92.6821,588.2869 C92.6821,588.2869 179.3643,588.2869 179.3643,598.2869 L179.3643,639.8806 C179.3643,649.8806 92.6821,649.8806 92.6821,649.8806 C92.6821,649.8806 6,649.8806 6,639.8806 L6,598.2869" fill="#E8DAEF" style="stroke:#181818;stroke-width:0.5;"/><path d="M6,598.2869 C6,608.2869 92.6821,608.2869 92.6821,608.2869 C92.6821,608.2869 179.3643,608.2869 179.3643,598.2869" fill="none" style="stroke:#181818;stroke-width:0.5;"/><text fill="#000000" font-family="sans-serif" font-size="14" lengthAdjust="spacing" textLength="93.584" x="16" y="625.282">BD Aplicativo</text><text fill="#000000" font-family="sans-serif" font-size="14" lengthAdjust="spacing" textLength="153.3643" x="16" y="641.5789">(MySQL / PostgreSQL)</text></g><!--entity PAY--><g class="entity" data-entity="PAY" data-source-line="39" data-uid="ent0013" id="entity_PAY"><polygon fill="#F9E79F" points="214.67,597.7869,224.67,587.7869,426.6964,587.7869,426.6964,640.3806,416.6964,650.3806,214.67,650.3806,214.67,597.7869" style="stroke:#000000;stroke-width:0.5;"/><line style="stroke:#000000;stroke-width:0.5;" x1="416.6964" x2="426.6964" y1="597.7869" y2="587.7869"/><line style="stroke:#000000;stroke-width:0.5;" x1="214.67" x2="416.6964" y1="597.7869" y2="597.7869"/><line style="stroke:#000000;stroke-width:0.5;" x1="416.6964" x2="416.6964" y1="597.7869" y2="650.3806"/><text fill="#000000" font-family="sans-serif" font-size="14" lengthAdjust="spacing" textLength="120.6064" x="229.67" y="620.782">Pasarela de Pago</text><text fill="#000000" font-family="sans-serif" font-size="14" lengthAdjust="spacing" textLength="172.0264" x="229.67" y="637.0789">(Nequi / Daviplata / PSE)</text></g><!--entity MAIL--><g class="entity" data-entity="MAIL" data-source-line="40" data-uid="ent0014" id="entity_MAIL"><polygon fill="#F2F4F4" points="461.94,597.7869,471.94,587.7869,723.4312,587.7869,723.4312,640.3806,713.4312,650.3806,461.94,650.3806,461.94,597.7869" style="stroke:#000000;stroke-width:0.5;"/><line style="stroke:#000000;stroke-width:0.5;" x1="713.4312" x2="723.4312" y1="597.7869" y2="587.7869"/><line style="stroke:#000000;stroke-width:0.5;" x1="461.94" x2="713.4312" y1="597.7869" y2="597.7869"/><line style="stroke:#000000;stroke-width:0.5;" x1="713.4312" x2="713.4312" y1="597.7869" y2="650.3806"/><text fill="#000000" font-family="sans-serif" font-size="14" lengthAdjust="spacing" textLength="221.4912" x="476.94" y="620.782">Servicio de correo / notificaci&#243;n</text><text fill="#000000" font-family="sans-serif" font-size="14" lengthAdjust="spacing" textLength="53.4092" x="476.94" y="637.0789">(futuro)</text></g><!--link CLIENTE to NET--><g class="link" data-entity-1="CLIENTE" data-entity-2="NET" data-source-line="43" data-uid="lnk15" id="link_CLIENTE_NET"><path d="M708.3182,170.8634 C708.2734,170.9585 708.2283,171.0534 708.183,171.1483 C708.0924,171.338 708.0008,171.5272 707.9082,171.7159 C707.7231,172.0934 707.5341,172.4688 707.3411,172.8421 C706.9552,173.5885 706.5533,174.3261 706.135,175.0529 C705.2983,176.5067 704.3955,177.9176 703.4214,179.2716 C701.4733,181.9795 699.24,184.4594 696.68,186.5969 C685.47,195.9569 450.81,221.9069 436.68,225.5969 C427.92,227.8869 424.4492,228.8136 415.6192,231.9236" fill="none" id="CLIENTE-to-NET" style="stroke:#000000;stroke-width:1;"/><polygon fill="#000000" points="409.96,233.9169,419.7777,234.6999,414.676,232.2558,417.12,227.1542,409.96,233.9169" style="stroke:#000000;stroke-width:1;"/></g><!--link ADMIN to NET--><g class="link" data-entity-1="ADMIN" data-entity-2="NET" data-source-line="44" data-uid="lnk16" id="link_ADMIN_NET"><path d="M356.68,158.5969 C356.68,178.8469 356.68,199.2869 356.68,219.4969" fill="none" id="ADMIN-to-NET" style="stroke:#000000;stroke-width:1;"/><polygon fill="#000000" points="356.68,225.4969,360.68,216.4969,356.68,220.4969,352.68,216.4969,356.68,225.4969" style="stroke:#000000;stroke-width:1;"/></g><!--link OPER to NET--><g class="link" data-entity-1="OPER" data-entity-2="NET" data-source-line="45" data-uid="lnk17" id="link_OPER_NET"><path d="M190.14,158.5969 C224.68,178.7769 264.5594,202.0701 299.0994,222.2501" fill="none" id="OPER-to-NET" style="stroke:#000000;stroke-width:1;"/><polygon fill="#000000" points="304.28,225.2769,298.5269,217.283,299.9628,222.7546,294.4912,224.1905,304.28,225.2769" style="stroke:#000000;stroke-width:1;"/></g><!--link NET to APP--><g class="link" data-entity-1="NET" data-entity-2="APP" data-source-line="47" data-uid="lnk18" id="link_NET_APP"><path d="M348.72,288.4969 C345.72,300.5169 342.37,314.4669 339.68,327.1869 C339.0669,330.0888 338.4573,333.0378 337.8531,336.0173 C337.551,337.507 337.2502,339.0043 336.951,340.5072 C336.8015,341.2586 337.8138,336.1249 337.665,336.8788" fill="none" id="NET-to-APP" style="stroke:#000000;stroke-width:1;"/><polygon fill="#000000" points="336.5035,342.7653,342.1701,334.7099,337.4714,337.8599,334.3215,333.1612,336.5035,342.7653" style="stroke:#000000;stroke-width:1;"/></g><!--link APP to DB--><g class="link" data-entity-1="APP" data-entity-2="DB" data-source-line="49" data-uid="lnk19" id="link_APP_DB"><path d="M312.3799,438.8576 C311.9405,439.015 311.4855,439.1786 311.0153,439.3485 C309.1345,440.0282 307.0109,440.8079 304.6727,441.6852 C295.3197,445.1941 282.5331,450.2625 268.1238,456.7206 C239.305,469.6369 203.995,488.1119 176.68,510.7869 C150.11,532.8469 129.8263,559.63 114.4663,582.89" fill="none" id="APP-to-DB" style="stroke:#000000;stroke-width:1;"/><polygon fill="#000000" points="111.16,587.8969,119.4574,582.5908,113.9153,583.7245,112.7816,578.1824,111.16,587.8969" style="stroke:#000000;stroke-width:1;"/><text fill="#000000" font-family="sans-serif" font-size="13" lengthAdjust="spacing" textLength="126.1025" x="181.7869" y="523.8538">consulta / actualiza</text><text fill="#000000" font-family="sans-serif" font-size="13" lengthAdjust="spacing" textLength="134.3164" x="177.68" y="538.9866">(pedidos, inventario,</text><text fill="#000000" font-family="sans-serif" font-size="13" lengthAdjust="spacing" textLength="116.562" x="186.5572" y="554.1194">usuarios, recetas)</text></g><!--link APP to PAY--><g class="link" data-entity-1="APP" data-entity-2="PAY" data-source-line="51" data-uid="lnk20" id="link_APP_PAY"><path d="M320.68,487.2222 C320.68,487.6912 320.68,488.1619 320.68,488.6344 C320.68,490.5242 320.68,492.441 320.68,494.3806 C320.68,525.4144 320.68,556.2819 320.68,581.6469" fill="none" id="APP-to-PAY" style="stroke:#000000;stroke-width:1;"/><polygon fill="#000000" points="320.68,587.6469,324.68,578.6469,320.68,582.6469,316.68,578.6469,320.68,587.6469" style="stroke:#000000;stroke-width:1;"/><text fill="#000000" font-family="sans-serif" font-size="13" lengthAdjust="spacing" textLength="81.0024" x="352.5106" y="531.3538">validar pago</text><text fill="#000000" font-family="sans-serif" font-size="13" lengthAdjust="spacing" textLength="142.6636" x="321.68" y="546.4866">(REST / JSON / HTTPS)</text></g><!--link APP to MAIL--><g class="link" data-entity-1="APP" data-entity-2="MAIL" data-source-line="53" data-uid="lnk21" id="link_APP_MAIL"><path d="M327.6837,486.7902 C327.7816,487.0025 327.8806,487.214 327.9809,487.4249 C328.3822,488.2684 328.8035,489.1008 329.2458,489.9199 C330.1304,491.5583 331.099,493.1439 332.1592,494.6599 C334.2795,497.6919 336.7663,500.4456 339.68,502.7869 C362.76,521.3269 445.35,499.3969 472.68,510.7869 C511.89,527.1269 542.9432,557.3331 564.8632,582.8831" fill="none" id="APP-to-MAIL" style="stroke:#000000;stroke-width:1;"/><polygon fill="#000000" points="568.77,587.4369,565.9456,578.0017,565.5143,583.6421,559.8739,583.2107,568.77,587.4369" style="stroke:#000000;stroke-width:1;"/><text fill="#000000" font-family="sans-serif" font-size="13" lengthAdjust="spacing" textLength="78.9839" x="567.3402" y="523.8538">enviar aviso</text><text fill="#000000" font-family="sans-serif" font-size="13" lengthAdjust="spacing" textLength="132.3042" x="540.68" y="538.9866">(pedido confirmado)</text><text fill="#000000" font-family="sans-serif" font-size="13" lengthAdjust="spacing" textLength="116.9746" x="548.3448" y="554.1194">(opcional / futuro)</text></g><!--link CLIENTE to FRONT--><g class="link" data-entity-1="CLIENTE" data-entity-2="FRONT" data-source-line="56" data-uid="lnk22" id="link_CLIENTE_FRONT"><path d="M724.7497,131.9585 C724.9181,132.0429 725.0891,132.1286 725.2625,132.2155 C725.9561,132.5633 726.6893,132.9314 727.4612,133.3196 C733.6361,136.4244 742.2848,140.8088 752.9345,146.2995 C774.2341,157.2809 803.5381,172.6875 837.0663,191.1331 C904.1225,228.0244 988.075,277.0719 1058.68,327.1869 C1093.6,351.9669 1126.0923,380.3168 1150.6723,402.9068" fill="none" id="CLIENTE-to-FRONT" style="stroke:#000000;stroke-width:1;"/><polygon fill="#000000" points="1155.09,406.9669,1151.1701,397.9317,1151.4086,403.5835,1145.7568,403.8219,1155.09,406.9669" style="stroke:#000000;stroke-width:1;"/><text fill="#000000" font-family="sans-serif" font-size="13" lengthAdjust="spacing" textLength="51.8921" x="1000.68" y="261.4638">HTTP(S)</text></g><!--link CLIENTE to API--><g class="link" data-entity-1="CLIENTE" data-entity-2="API" data-source-line="57" data-uid="lnk23" id="link_CLIENTE_API"><path d="M704.3186,170.6971 C704.2781,170.7971 704.2375,170.8971 704.1968,170.997 C704.1155,171.1969 704.0337,171.3967 703.9515,171.5964 C703.7871,171.9958 703.621,172.3947 703.4532,172.7931 C702.7822,174.3864 702.0842,175.97 701.3591,177.5337 C699.9089,180.6613 698.35,183.7094 696.68,186.5969 C644.48,276.8569 560.8398,360.0783 514.5698,402.7683" fill="none" id="CLIENTE-to-API" style="stroke:#000000;stroke-width:1;"/><polygon fill="#000000" points="510.16,406.8369,519.4871,403.6738,513.8348,403.4464,514.0623,397.7941,510.16,406.8369" style="stroke:#000000;stroke-width:1;"/><text fill="#000000" font-family="sans-serif" font-size="13" lengthAdjust="spacing" textLength="121.0117" x="671.68" y="261.4638">consumir servicios</text></g><!--link ADMIN to API--><g class="link" data-entity-1="ADMIN" data-entity-2="API" data-source-line="59" data-uid="lnk24" id="link_ADMIN_API"><path d="M383.67,158.5369 C398.59,176.8669 416.34,201.2869 427.68,225.5969 C456.3,286.9269 469.6339,360.0968 475.4539,400.9568" fill="none" id="ADMIN-to-API" style="stroke:#000000;stroke-width:1;"/><polygon fill="#000000" points="476.3,406.8969,478.9909,397.4227,475.5949,401.9468,471.0708,398.5509,476.3,406.8969" style="stroke:#000000;stroke-width:1;"/><text fill="#000000" font-family="sans-serif" font-size="13" lengthAdjust="spacing" textLength="112.1377" x="460.0018" y="253.9638">gesti&#243;n cat&#225;logo,</text><text fill="#000000" font-family="sans-serif" font-size="13" lengthAdjust="spacing" textLength="128.7813" x="451.68" y="269.0966">inventario, reportes</text></g><!--link OPER to API--><g class="link" data-entity-1="OPER" data-entity-2="API" data-source-line="61" data-uid="lnk25" id="link_OPER_API"><path d="M129.8,158.6669 C122.65,194.3769 117.44,252.9069 148.68,288.1869 C209.59,356.9669 268.66,287.8469 351.68,327.1869 C392.74,346.6469 427.4121,378.0908 451.3121,402.8408" fill="none" id="OPER-to-API" style="stroke:#000000;stroke-width:1;"/><polygon fill="#000000" points="455.48,407.1569,452.1056,397.9041,452.0068,403.5601,446.3508,403.4613,455.48,407.1569" style="stroke:#000000;stroke-width:1;"/><text fill="#000000" font-family="sans-serif" font-size="13" lengthAdjust="spacing" textLength="135.7065" x="149.68" y="261.4638">pedidos confirmados</text></g><g class="legend" data-source-line="64"><rect fill="none" height="124.0781" rx="7.5" ry="7.5" style="stroke:#000000;stroke-width:1;" width="292.748" x="12" y="678.3806"/><text fill="#000000" font-family="sans-serif" font-size="14" lengthAdjust="spacing" textLength="13.3574" x="17" y="696.3757">1.</text><text fill="#000000" font-family="sans-serif" font-size="14" lengthAdjust="spacing" textLength="237.4258" x="34.8076" y="696.3757">D6EAF8  Usuarios finales (cliente)</text><text fill="#000000" font-family="sans-serif" font-size="14" lengthAdjust="spacing" textLength="13.3574" x="17" y="712.6726">2.</text><text fill="#000000" font-family="sans-serif" font-size="14" lengthAdjust="spacing" textLength="170.7686" x="34.8076" y="712.6726">FDEBD0  Administraci&#243;n</text><text fill="#000000" font-family="sans-serif" font-size="14" lengthAdjust="spacing" textLength="13.3574" x="17" y="728.9695">3.</text><text fill="#000000" font-family="sans-serif" font-size="14" lengthAdjust="spacing" textLength="204.5176" x="34.8076" y="728.9695">FADBD8  Operaci&#243;n / bodega</text><text fill="#000000" font-family="sans-serif" font-size="14" lengthAdjust="spacing" textLength="13.3574" x="17" y="745.2664">4.</text><text fill="#000000" font-family="sans-serif" font-size="14" lengthAdjust="spacing" textLength="218.8867" x="34.8076" y="745.2664">D5F5E3  Servidor de aplicaci&#243;n</text><text fill="#000000" font-family="sans-serif" font-size="14" lengthAdjust="spacing" textLength="13.3574" x="17" y="761.5632">5.</text><text fill="#000000" font-family="sans-serif" font-size="14" lengthAdjust="spacing" textLength="163.2148" x="34.8076" y="761.5632">E8DAEF  Base de datos</text><text fill="#000000" font-family="sans-serif" font-size="14" lengthAdjust="spacing" textLength="13.3574" x="17" y="777.8601">6.</text><text fill="#000000" font-family="sans-serif" font-size="14" lengthAdjust="spacing" textLength="264.9404" x="34.8076" y="777.8601">F9E79F  Servicios externos (pasarela)</text><ellipse cx="22.5" cy="789.9588" fill="#000000" rx="2.5" ry="2.5"/><text fill="#000000" font-family="sans-serif" font-size="14" lengthAdjust="spacing" textLength="154.8135" x="29" y="794.157">Fuente siempre negra</text></g><!--SRC=[TLLHRkCs4FtNAGREHvCYmGRTR9iDq0AoH66rjMLLSj9TDFrW95eXGfDQadAR5Zr5Jx1ds2FaOXsIikCaNGE9xH7dySsRDsDpnsLFDLt33MtkEgq6sIPAA0r_t7BB8hDxtgXrhoIJjhRtWe5cZQMo4_j7f6eP_1q1P4hQW78Z41OZKwLRflTZ_-mbKctvYZRsVvFt3pP23UrNJaMMMoIMCjCBphg1mGd4-B6XbcyK_CfkO99GBPc1cJ8GYpMxR-aaYhw17_45nI9Tr90IkAmluofV-6ZaQveaY2WjkvQ71TsmZhPuBm8UJO0QI6OvAPO43jBlIPoTUtgxYYR9hLPh1g-0j9rxcpzysN3X4uluol4ELyJjcajkh7RWU56PW5hnXakAIRtIzk6pvIBS6AVpl823B2NJz7JCN_JCf-BfAGOwwZ06QHLmPAwb2gcBabIO6QVJz7nNUexqgu8iCRSYQIWyI3t9VJApr_BTSbdMS7RsEd37qmUPV-rWQb9TvUcYWhYSvKcSv0__5ligranl-2WTNXMQq_27BnAvlbF6SjbvdpdrMeL7hifwhBWiKTytsHlo-fc-cKOdCDawYELyTWn9NH_3U_oRAcMTdds0oAf5iNoIEaNZXCpotjug-IeJrDo1WWBfXgHfdFpy90VRrmv2GSKQPgd1t8frc8PaynWCNm-2jZGaLoHvaXkN-TWCtnpMOf7c67AvGNDHpTKnmhfMCxEjEdS66UMTnZLn_apZ9HhLwzfIIs-eGMsdwPxP4Nr-N_yoGr8bojffXby2P3g50tAUnkHPsv8SCSa7vuCjU6XQIGtLJ530BoNj77R1FWqSiLEwuRr02kwUceGBolWZ6kCj-U5jjj_sXYk7q2YjcUkiLAZANljNWntqwD5vdCyGuxliB3lRiKmM1VcGux-HtNRgJduxE3qz_Vta9sV9A4p6qvYt_DDGvEpx649tHP6ps6C8TRf0jj8CmjU73Hoeu7-vplNRpl77pbtBmGpk4uPryCRHSqmdpGLi4AQb6leWPaLgDtVlwqM1Rtx8NYHwGIw0oGt7H5JTg1qDHtB5zHfd_mY3gaUb9HM8DKgwKx0YCvn9hw3VSekl2Uad1UzpP0wHpSiJpicZF6kkmOmTDj6B1eIJ7SFXnaO3-lFXir2T4snFFPGi-3vwtgsGFog-LwlPbJKZ7qcHng4OmJgSQ11iPN7qjXiPBiVUm0htgS1VWCCcRFGZTohiKO375UnTwH_vHGdWjwkFeh0tVhzw_B2HOBVPqEBqSQsv8s7Oy1VGZIa-nf55yh2TaJ7NYGViJx-eaLq_3fsZzoraWwEAouMjUyr0iaxJ2CiCnVu7]--></g></svg>