<svg xmlns="http://www.w3.org/2000/svg" xmlns:xlink="http://www.w3.org/1999/xlink" contentStyleType="text/css" data-diagram-type="ACTIVITY" height="1270px" preserveAspectRatio="none" style="width:1249px;height:1270px;background:#FFFFFF;" version="1.1" viewBox="0 0 1249 1270" width="1249px" zoomAndPan="magnify"><defs/><g><ellipse cx="725.6823" cy="20" fill="#222222" rx="10" ry="10" style="stroke:#222222;stroke-width:1;"/><rect fill="#F1F1F1" height="33.9688" rx="12.5" ry="12.5" style="stroke:#000000;stroke-width:0.5;" width="51.752" x="699.8063" y="50"/><text fill="#000000" font-family="sans-serif" font-size="12" lengthAdjust="spacing" textLength="31.752" x="709.8063" y="71.1387">Inicio</text><rect fill="#F1F1F1" height="33.9688" rx="12.5" ry="12.5" style="stroke:#000000;stroke-width:0.5;" width="211.7773" x="619.7936" y="103.9688"/><text fill="#000000" font-family="sans-serif" font-size="12" lengthAdjust="spacing" textLength="191.7773" x="629.7936" y="125.1074">login Iniciar sesi&#243;n o registrarse</text><polygon fill="#F1F1F1" points="624.9127,157.9375,826.4518,157.9375,838.4518,169.9375,826.4518,181.9375,624.9127,181.9375,612.9127,169.9375,624.9127,157.9375" style="stroke:#000000;stroke-width:0.5;"/><text fill="#000000" font-family="sans-serif" font-size="12" lengthAdjust="spacing" textLength="201.5391" x="624.9127" y="174.0918">&#191;Usuario administrador o cliente?</text><text fill="#000000" font-family="sans-serif" font-size="11" lengthAdjust="spacing" textLength="38.6128" x="574.2999" y="167.3433">Cliente</text><text fill="#000000" font-family="sans-serif" font-size="11" lengthAdjust="spacing" textLength="77.8486" x="838.4518" y="167.3433">Administrador</text><rect fill="#F1F1F1" height="33.9688" rx="12.5" ry="12.5" style="stroke:#000000;stroke-width:0.5;" width="222.5645" x="346.1843" y="191.9375"/><text fill="#000000" font-family="sans-serif" font-size="12" lengthAdjust="spacing" textLength="202.5645" x="356.1843" y="213.0762">productos Ver cat&#225;logo de carnes</text><polygon fill="#F1F1F1" points="389.4568,245.9063,525.4763,245.9063,537.4763,257.9063,525.4763,269.9063,389.4568,269.9063,377.4568,257.9063,389.4568,245.9063" style="stroke:#000000;stroke-width:0.5;"/><text fill="#000000" font-family="sans-serif" font-size="12" lengthAdjust="spacing" textLength="136.0195" x="389.4568" y="262.0605">&#191;Seleccionar un corte?</text><text fill="#000000" font-family="sans-serif" font-size="11" lengthAdjust="spacing" textLength="10.0386" x="367.4182" y="255.312">S&#237;</text><text fill="#000000" font-family="sans-serif" font-size="11" lengthAdjust="spacing" textLength="14.9585" x="537.4763" y="255.312">No</text><rect fill="#F1F1F1" height="33.9688" rx="12.5" ry="12.5" style="stroke:#000000;stroke-width:0.5;" width="339.2363" x="141.0442" y="279.9063"/><text fill="#000000" font-family="sans-serif" font-size="12" lengthAdjust="spacing" textLength="319.2363" x="151.0442" y="301.0449">productos Elegir tipo de servicio (Adobado o Natural)</text><rect fill="#F1F1F1" height="33.9688" rx="12.5" ry="12.5" style="stroke:#000000;stroke-width:0.5;" width="217.8066" x="201.759" y="348.875"/><text fill="#000000" font-family="sans-serif" font-size="12" lengthAdjust="spacing" textLength="197.8066" x="211.759" y="370.0137">recetas Ver receta recomendada</text><rect fill="#F1F1F1" height="33.9688" rx="12.5" ry="12.5" style="stroke:#000000;stroke-width:0.5;" width="226.1504" x="197.5872" y="417.8438"/><text fill="#000000" font-family="sans-serif" font-size="12" lengthAdjust="spacing" textLength="206.1504" x="207.5872" y="438.9824">carrito Agregar producto al carrito</text><rect fill="#F1F1F1" height="33.9688" rx="12.5" ry="12.5" style="stroke:#000000;stroke-width:0.5;" width="207.9805" x="500.2805" y="279.9063"/><text fill="#000000" font-family="sans-serif" font-size="12" lengthAdjust="spacing" textLength="187.9805" x="510.2805" y="301.0449">productos Regresar al cat&#225;logo</text><polygon fill="#F1F1F1" points="457.4666,457.8125,469.4666,469.8125,457.4666,481.8125,445.4666,469.8125,457.4666,457.8125" style="stroke:#000000;stroke-width:0.5;"/><rect fill="#F1F1F1" height="33.9688" rx="12.5" ry="12.5" style="stroke:#000000;stroke-width:0.5;" width="264.7871" x="325.073" y="550.2148"/><text fill="#000000" font-family="sans-serif" font-size="12" lengthAdjust="spacing" textLength="244.7871" x="335.073" y="571.3535">carrito Revisar carrito (cantidades, total)</text><rect fill="#F1F1F1" height="33.9688" rx="12.5" ry="12.5" style="stroke:#000000;stroke-width:0.5;" width="436.6543" x="239.1394" y="604.1836"/><text fill="#000000" font-family="sans-serif" font-size="12" lengthAdjust="spacing" textLength="416.6543" x="249.1394" y="625.3223">pago Elegir m&#233;todo de pago (tarjeta, PSE, Nequi, Daviplata, efectivo)</text><rect fill="#F1F1F1" height="33.9688" rx="12.5" ry="12.5" style="stroke:#000000;stroke-width:0.5;" width="158.2637" x="378.3347" y="658.1523"/><text fill="#000000" font-family="sans-serif" font-size="12" lengthAdjust="spacing" textLength="138.2637" x="388.3347" y="679.291">pago Confirmar pedido</text><rect fill="#F1F1F1" height="33.9688" rx="12.5" ry="12.5" style="stroke:#000000;stroke-width:0.5;" width="240.7988" x="337.0671" y="712.1211"/><text fill="#000000" font-family="sans-serif" font-size="12" lengthAdjust="spacing" textLength="220.7988" x="347.0671" y="733.2598">carrito Ingresar direcci&#243;n de entrega</text><rect fill="#F1F1F1" height="33.9688" rx="12.5" ry="12.5" style="stroke:#000000;stroke-width:0.5;" width="296.8203" x="309.0564" y="766.0898"/><text fill="#000000" font-family="sans-serif" font-size="12" lengthAdjust="spacing" textLength="276.8203" x="319.0564" y="787.2285">carrito Sistema genera comprobante y estado</text><polygon fill="#F1F1F1" points="416.4421,820.0586,498.491,820.0586,510.491,832.0586,498.491,844.0586,416.4421,844.0586,404.4421,832.0586,416.4421,820.0586" style="stroke:#000000;stroke-width:0.5;"/><text fill="#000000" font-family="sans-serif" font-size="12" lengthAdjust="spacing" textLength="82.0488" x="416.4421" y="836.2129">&#191;Pedido listo?</text><text fill="#000000" font-family="sans-serif" font-size="11" lengthAdjust="spacing" textLength="10.0386" x="394.4036" y="829.4644">S&#237;</text><text fill="#000000" font-family="sans-serif" font-size="11" lengthAdjust="spacing" textLength="14.9585" x="510.491" y="829.4644">No</text><rect fill="#F1F1F1" height="33.9688" rx="12.5" ry="12.5" style="stroke:#000000;stroke-width:0.5;" width="241.9648" x="163.7983" y="854.0586"/><text fill="#000000" font-family="sans-serif" font-size="12" lengthAdjust="spacing" textLength="221.9648" x="173.7983" y="875.1973">carrito Estado cambia a &#8220;En camino&#8221;</text><rect fill="#F1F1F1" height="33.9688" rx="12.5" ry="12.5" style="stroke:#000000;stroke-width:0.5;" width="228.7813" x="170.3901" y="908.0273"/><text fill="#000000" font-family="sans-serif" font-size="12" lengthAdjust="spacing" textLength="208.7813" x="180.3901" y="929.166">carrito Domiciliario realiza entrega</text><polygon fill="#F1F1F1" points="247.3423,961.9961,322.2192,961.9961,334.2192,973.9961,322.2192,985.9961,247.3423,985.9961,235.3423,973.9961,247.3423,961.9961" style="stroke:#000000;stroke-width:0.5;"/><text fill="#000000" font-family="sans-serif" font-size="12" lengthAdjust="spacing" textLength="74.877" x="247.3423" y="978.1504">&#191;Entregado?</text><text fill="#000000" font-family="sans-serif" font-size="11" lengthAdjust="spacing" textLength="10.0386" x="225.3037" y="971.4019">S&#237;</text><text fill="#000000" font-family="sans-serif" font-size="11" lengthAdjust="spacing" textLength="14.9585" x="334.2192" y="971.4019">No</text><rect fill="#F1F1F1" height="33.9688" rx="12.5" ry="12.5" style="stroke:#000000;stroke-width:0.5;" width="256.7598" x="28.8916" y="995.9961"/><text fill="#000000" font-family="sans-serif" font-size="12" lengthAdjust="spacing" textLength="236.7598" x="38.8916" y="1017.1348">carrito Actualizar estado a &#8220;Entregado&#8221;</text><rect fill="#F1F1F1" height="33.9688" rx="12.5" ry="12.5" style="stroke:#000000;stroke-width:0.5;" width="292.543" x="11" y="1049.9648"/><text fill="#000000" font-family="sans-serif" font-size="12" lengthAdjust="spacing" textLength="272.543" x="21" y="1071.1035">reportes Sistema registra pedido completado</text><rect fill="#F1F1F1" height="33.9688" rx="12.5" ry="12.5" style="stroke:#000000;stroke-width:0.5;" width="177.4941" x="323.543" y="995.9961"/><text fill="#000000" font-family="sans-serif" font-size="12" lengthAdjust="spacing" textLength="157.4941" x="333.543" y="1017.1348">carrito Esperando entrega</text><polygon fill="#F1F1F1" points="284.7808,1089.9336,296.7808,1101.9336,284.7808,1113.9336,272.7808,1101.9336,284.7808,1089.9336" style="stroke:#000000;stroke-width:0.5;"/><rect fill="#F1F1F1" height="33.9688" rx="12.5" ry="12.5" style="stroke:#000000;stroke-width:0.5;" width="198.2305" x="531.0371" y="854.0586"/><text fill="#000000" font-family="sans-serif" font-size="12" lengthAdjust="spacing" textLength="178.2305" x="541.0371" y="875.1973">carrito Pedido en preparaci&#243;n</text><polygon fill="#F1F1F1" points="457.4666,1119.9336,469.4666,1131.9336,457.4666,1143.9336,445.4666,1131.9336,457.4666,1119.9336" style="stroke:#000000;stroke-width:0.5;"/><polygon fill="#F1F1F1" points="380.6062,501.8125,534.3269,501.8125,546.3269,513.8125,534.3269,525.8125,380.6062,525.8125,368.6062,513.8125,380.6062,501.8125" style="stroke:#000000;stroke-width:0.5;"/><text fill="#000000" font-family="sans-serif" font-size="11" lengthAdjust="spacing" textLength="14.9585" x="461.4666" y="536.0229">No</text><text fill="#000000" font-family="sans-serif" font-size="12" lengthAdjust="spacing" textLength="153.7207" x="380.6062" y="517.9668">&#191;Agregar m&#225;s productos?</text><text fill="#000000" font-family="sans-serif" font-size="11" lengthAdjust="spacing" textLength="10.0386" x="546.3269" y="511.2183">S&#237;</text><polygon fill="#F1F1F1" points="457.4666,1163.9336,469.4666,1175.9336,457.4666,1187.9336,445.4666,1175.9336,457.4666,1163.9336" style="stroke:#000000;stroke-width:0.5;"/><text fill="#000000" font-family="sans-serif" font-size="11" lengthAdjust="spacing" textLength="189.3901" x="469.4666" y="1173.3394">:productos Ver cat&#225;logo de carnes</text><rect fill="#F1F1F1" height="33.9688" rx="12.5" ry="12.5" style="stroke:#000000;stroke-width:0.5;" width="288.2715" x="849.7622" y="191.9375"/><text fill="#000000" font-family="sans-serif" font-size="12" lengthAdjust="spacing" textLength="268.2715" x="859.7622" y="213.0762">productos Crear / editar / eliminar productos</text><rect fill="#F1F1F1" height="33.9688" rx="12.5" ry="12.5" style="stroke:#000000;stroke-width:0.5;" width="264.3477" x="861.7241" y="245.9063"/><text fill="#000000" font-family="sans-serif" font-size="12" lengthAdjust="spacing" textLength="244.3477" x="871.7241" y="267.0449">inventario Verificar niveles de inventario</text><polygon fill="#F1F1F1" points="939.8042,314.875,1047.9917,314.875,1059.9917,326.875,1047.9917,338.875,939.8042,338.875,927.8042,326.875,939.8042,314.875" style="stroke:#000000;stroke-width:0.5;"/><text fill="#000000" font-family="sans-serif" font-size="12" lengthAdjust="spacing" textLength="108.1875" x="939.8042" y="331.0293">&#191;Stock suficiente?</text><text fill="#000000" font-family="sans-serif" font-size="11" lengthAdjust="spacing" textLength="10.0386" x="917.7656" y="324.2808">S&#237;</text><text fill="#000000" font-family="sans-serif" font-size="11" lengthAdjust="spacing" textLength="14.9585" x="1059.9917" y="324.2808">No</text><rect fill="#F1F1F1" height="33.9688" rx="12.5" ry="12.5" style="stroke:#000000;stroke-width:0.5;" width="171.4355" x="791.2676" y="348.875"/><text fill="#000000" font-family="sans-serif" font-size="12" lengthAdjust="spacing" textLength="151.4355" x="801.2676" y="370.0137">inventario Estado normal</text><rect fill="#F1F1F1" height="33.9688" rx="12.5" ry="12.5" style="stroke:#000000;stroke-width:0.5;" width="256.2148" x="982.7031" y="348.875"/><text fill="#000000" font-family="sans-serif" font-size="12" lengthAdjust="spacing" textLength="236.2148" x="992.7031" y="370.0137">inventario Generar alerta de bajo stock</text><polygon fill="#F1F1F1" points="993.8979,388.8438,1005.8979,400.8438,993.8979,412.8438,981.8979,400.8438,993.8979,388.8438" style="stroke:#000000;stroke-width:0.5;"/><rect fill="#F1F1F1" height="33.9688" rx="12.5" ry="12.5" style="stroke:#000000;stroke-width:0.5;" width="302.5391" x="842.6284" y="447.8438"/><text fill="#000000" font-family="sans-serif" font-size="12" lengthAdjust="spacing" textLength="282.5391" x="852.6284" y="468.9824">reportes Generar reportes de ventas y pedidos</text><rect fill="#F1F1F1" height="33.9688" rx="12.5" ry="12.5" style="stroke:#000000;stroke-width:0.5;" width="286.9121" x="850.4419" y="501.8125"/><text fill="#000000" font-family="sans-serif" font-size="12" lengthAdjust="spacing" textLength="266.9121" x="860.4419" y="522.9512">reportes Revisar estad&#237;sticas de desempe&#241;o</text><polygon fill="#F1F1F1" points="725.6823,1193.9336,737.6823,1205.9336,725.6823,1217.9336,713.6823,1205.9336,725.6823,1193.9336" style="stroke:#000000;stroke-width:0.5;"/><ellipse cx="725.6823" cy="1248.9336" fill="none" rx="11" ry="11" style="stroke:#222222;stroke-width:1;"/><ellipse cx="725.6823" cy="1248.9336" fill="#222222" rx="6" ry="6" style="stroke:#222222;stroke-width:1;"/><line style="stroke:#181818;stroke-width:1;" x1="725.6823" x2="725.6823" y1="30" y2="50"/><polygon fill="#181818" points="721.6823,40,725.6823,50,729.6823,40,725.6823,44" style="stroke:#181818;stroke-width:1;"/><line style="stroke:#181818;stroke-width:1;" x1="725.6823" x2="725.6823" y1="83.9688" y2="103.9688"/><polygon fill="#181818" points="721.6823,93.9688,725.6823,103.9688,729.6823,93.9688,725.6823,97.9688" style="stroke:#181818;stroke-width:1;"/><line style="stroke:#181818;stroke-width:1;" x1="310.6624" x2="310.6624" y1="313.875" y2="348.875"/><polygon fill="#181818" points="306.6624,338.875,310.6624,348.875,314.6624,338.875,310.6624,342.875" style="stroke:#181818;stroke-width:1;"/><line style="stroke:#181818;stroke-width:1;" x1="310.6624" x2="310.6624" y1="382.8438" y2="417.8438"/><polygon fill="#181818" points="306.6624,407.8438,310.6624,417.8438,314.6624,407.8438,310.6624,411.8438" style="stroke:#181818;stroke-width:1;"/><line style="stroke:#181818;stroke-width:1;" x1="377.4568" x2="310.6624" y1="257.9063" y2="257.9063"/><line style="stroke:#181818;stroke-width:1;" x1="310.6624" x2="310.6624" y1="257.9063" y2="279.9063"/><polygon fill="#181818" points="306.6624,269.9063,310.6624,279.9063,314.6624,269.9063,310.6624,273.9063" style="stroke:#181818;stroke-width:1;"/><line style="stroke:#181818;stroke-width:1;" x1="537.4763" x2="604.2708" y1="257.9063" y2="257.9063"/><line style="stroke:#181818;stroke-width:1;" x1="604.2708" x2="604.2708" y1="257.9063" y2="279.9063"/><polygon fill="#181818" points="600.2708,269.9063,604.2708,279.9063,608.2708,269.9063,604.2708,273.9063" style="stroke:#181818;stroke-width:1;"/><line style="stroke:#181818;stroke-width:1;" x1="310.6624" x2="310.6624" y1="451.8125" y2="469.8125"/><line style="stroke:#181818;stroke-width:1;" x1="310.6624" x2="445.4666" y1="469.8125" y2="469.8125"/><polygon fill="#181818" points="435.4666,465.8125,445.4666,469.8125,435.4666,473.8125,439.4666,469.8125" style="stroke:#181818;stroke-width:1;"/><line style="stroke:#181818;stroke-width:1;" x1="604.2708" x2="604.2708" y1="313.875" y2="469.8125"/><line style="stroke:#181818;stroke-width:1;" x1="604.2708" x2="469.4666" y1="469.8125" y2="469.8125"/><polygon fill="#181818" points="479.4666,465.8125,469.4666,469.8125,479.4666,473.8125,475.4666,469.8125" style="stroke:#181818;stroke-width:1;"/><line style="stroke:#181818;stroke-width:1;" x1="457.4666" x2="457.4666" y1="225.9063" y2="245.9063"/><polygon fill="#181818" points="453.4666,235.9063,457.4666,245.9063,461.4666,235.9063,457.4666,239.9063" style="stroke:#181818;stroke-width:1;"/><line style="stroke:#181818;stroke-width:1;" x1="457.4666" x2="457.4666" y1="584.1836" y2="604.1836"/><polygon fill="#181818" points="453.4666,594.1836,457.4666,604.1836,461.4666,594.1836,457.4666,598.1836" style="stroke:#181818;stroke-width:1;"/><line style="stroke:#181818;stroke-width:1;" x1="457.4666" x2="457.4666" y1="638.1523" y2="658.1523"/><polygon fill="#181818" points="453.4666,648.1523,457.4666,658.1523,461.4666,648.1523,457.4666,652.1523" style="stroke:#181818;stroke-width:1;"/><line style="stroke:#181818;stroke-width:1;" x1="457.4666" x2="457.4666" y1="692.1211" y2="712.1211"/><polygon fill="#181818" points="453.4666,702.1211,457.4666,712.1211,461.4666,702.1211,457.4666,706.1211" style="stroke:#181818;stroke-width:1;"/><line style="stroke:#181818;stroke-width:1;" x1="457.4666" x2="457.4666" y1="746.0898" y2="766.0898"/><polygon fill="#181818" points="453.4666,756.0898,457.4666,766.0898,461.4666,756.0898,457.4666,760.0898" style="stroke:#181818;stroke-width:1;"/><line style="stroke:#181818;stroke-width:1;" x1="284.7808" x2="284.7808" y1="888.0273" y2="908.0273"/><polygon fill="#181818" points="280.7808,898.0273,284.7808,908.0273,288.7808,898.0273,284.7808,902.0273" style="stroke:#181818;stroke-width:1;"/><line style="stroke:#181818;stroke-width:1;" x1="157.2715" x2="157.2715" y1="1029.9648" y2="1049.9648"/><polygon fill="#181818" points="153.2715,1039.9648,157.2715,1049.9648,161.2715,1039.9648,157.2715,1043.9648" style="stroke:#181818;stroke-width:1;"/><line style="stroke:#181818;stroke-width:1;" x1="235.3423" x2="157.2715" y1="973.9961" y2="973.9961"/><line style="stroke:#181818;stroke-width:1;" x1="157.2715" x2="157.2715" y1="973.9961" y2="995.9961"/><polygon fill="#181818" points="153.2715,985.9961,157.2715,995.9961,161.2715,985.9961,157.2715,989.9961" style="stroke:#181818;stroke-width:1;"/><line style="stroke:#181818;stroke-width:1;" x1="334.2192" x2="412.29" y1="973.9961" y2="973.9961"/><line style="stroke:#181818;stroke-width:1;" x1="412.29" x2="412.29" y1="973.9961" y2="995.9961"/><polygon fill="#181818" points="408.29,985.9961,412.29,995.9961,416.29,985.9961,412.29,989.9961" style="stroke:#181818;stroke-width:1;"/><line style="stroke:#181818;stroke-width:1;" x1="157.2715" x2="157.2715" y1="1083.9336" y2="1101.9336"/><line style="stroke:#181818;stroke-width:1;" x1="157.2715" x2="272.7808" y1="1101.9336" y2="1101.9336"/><polygon fill="#181818" points="262.7808,1097.9336,272.7808,1101.9336,262.7808,1105.9336,266.7808,1101.9336" style="stroke:#181818;stroke-width:1;"/><line style="stroke:#181818;stroke-width:1;" x1="412.29" x2="412.29" y1="1029.9648" y2="1101.9336"/><line style="stroke:#181818;stroke-width:1;" x1="412.29" x2="296.7808" y1="1101.9336" y2="1101.9336"/><polygon fill="#181818" points="306.7808,1097.9336,296.7808,1101.9336,306.7808,1105.9336,302.7808,1101.9336" style="stroke:#181818;stroke-width:1;"/><line style="stroke:#181818;stroke-width:1;" x1="284.7808" x2="284.7808" y1="941.9961" y2="961.9961"/><polygon fill="#181818" points="280.7808,951.9961,284.7808,961.9961,288.7808,951.9961,284.7808,955.9961" style="stroke:#181818;stroke-width:1;"/><line style="stroke:#181818;stroke-width:1;" x1="404.4421" x2="284.7808" y1="832.0586" y2="832.0586"/><line style="stroke:#181818;stroke-width:1;" x1="284.7808" x2="284.7808" y1="832.0586" y2="854.0586"/><polygon fill="#181818" points="280.7808,844.0586,284.7808,854.0586,288.7808,844.0586,284.7808,848.0586" style="stroke:#181818;stroke-width:1;"/><line style="stroke:#181818;stroke-width:1;" x1="510.491" x2="630.1523" y1="832.0586" y2="832.0586"/><line style="stroke:#181818;stroke-width:1;" x1="630.1523" x2="630.1523" y1="832.0586" y2="854.0586"/><polygon fill="#181818" points="626.1523,844.0586,630.1523,854.0586,634.1523,844.0586,630.1523,848.0586" style="stroke:#181818;stroke-width:1;"/><line style="stroke:#181818;stroke-width:1;" x1="284.7808" x2="284.7808" y1="1113.9336" y2="1131.9336"/><line style="stroke:#181818;stroke-width:1;" x1="284.7808" x2="445.4666" y1="1131.9336" y2="1131.9336"/><polygon fill="#181818" points="435.4666,1127.9336,445.4666,1131.9336,435.4666,1135.9336,439.4666,1131.9336" style="stroke:#181818;stroke-width:1;"/><line style="stroke:#181818;stroke-width:1;" x1="630.1523" x2="630.1523" y1="888.0273" y2="1131.9336"/><line style="stroke:#181818;stroke-width:1;" x1="630.1523" x2="469.4666" y1="1131.9336" y2="1131.9336"/><polygon fill="#181818" points="479.4666,1127.9336,469.4666,1131.9336,479.4666,1135.9336,475.4666,1131.9336" style="stroke:#181818;stroke-width:1;"/><line style="stroke:#181818;stroke-width:1;" x1="457.4666" x2="457.4666" y1="800.0586" y2="820.0586"/><polygon fill="#181818" points="453.4666,810.0586,457.4666,820.0586,461.4666,810.0586,457.4666,814.0586" style="stroke:#181818;stroke-width:1;"/><line style="stroke:#181818;stroke-width:1;" x1="457.4666" x2="457.4666" y1="525.8125" y2="550.2148"/><polygon fill="#181818" points="453.4666,540.2148,457.4666,550.2148,461.4666,540.2148,457.4666,544.2148" style="stroke:#181818;stroke-width:1;"/><line style="stroke:#181818;stroke-width:1;" x1="546.3269" x2="749.2676" y1="513.8125" y2="513.8125"/><polygon fill="#181818" points="745.2676,822.0742,749.2676,832.0742,753.2676,822.0742,749.2676,826.0742" style="stroke:#181818;stroke-width:1;"/><line style="stroke:#181818;stroke-width:1;" x1="749.2676" x2="749.2676" y1="513.8125" y2="1175.9336"/><line style="stroke:#181818;stroke-width:1;" x1="749.2676" x2="469.4666" y1="1175.9336" y2="1175.9336"/><polygon fill="#181818" points="479.4666,1171.9336,469.4666,1175.9336,479.4666,1179.9336,475.4666,1175.9336" style="stroke:#181818;stroke-width:1;"/><line style="stroke:#181818;stroke-width:1;" x1="457.4666" x2="457.4666" y1="1143.9336" y2="1163.9336"/><polygon fill="#181818" points="453.4666,1153.9336,457.4666,1163.9336,461.4666,1153.9336,457.4666,1157.9336" style="stroke:#181818;stroke-width:1;"/><line style="stroke:#181818;stroke-width:1;" x1="457.4666" x2="457.4666" y1="481.8125" y2="501.8125"/><polygon fill="#181818" points="453.4666,491.8125,457.4666,501.8125,461.4666,491.8125,457.4666,495.8125" style="stroke:#181818;stroke-width:1;"/><line style="stroke:#181818;stroke-width:1;" x1="993.8979" x2="993.8979" y1="225.9063" y2="245.9063"/><polygon fill="#181818" points="989.8979,235.9063,993.8979,245.9063,997.8979,235.9063,993.8979,239.9063" style="stroke:#181818;stroke-width:1;"/><line style="stroke:#181818;stroke-width:1;" x1="927.8042" x2="876.9854" y1="326.875" y2="326.875"/><line style="stroke:#181818;stroke-width:1;" x1="876.9854" x2="876.9854" y1="326.875" y2="348.875"/><polygon fill="#181818" points="872.9854,338.875,876.9854,348.875,880.9854,338.875,876.9854,342.875" style="stroke:#181818;stroke-width:1;"/><line style="stroke:#181818;stroke-width:1;" x1="1059.9917" x2="1110.8105" y1="326.875" y2="326.875"/><line style="stroke:#181818;stroke-width:1;" x1="1110.8105" x2="1110.8105" y1="326.875" y2="348.875"/><polygon fill="#181818" points="1106.8105,338.875,1110.8105,348.875,1114.8105,338.875,1110.8105,342.875" style="stroke:#181818;stroke-width:1;"/><line style="stroke:#181818;stroke-width:1;" x1="876.9854" x2="876.9854" y1="382.8438" y2="400.8438"/><line style="stroke:#181818;stroke-width:1;" x1="876.9854" x2="981.8979" y1="400.8438" y2="400.8438"/><polygon fill="#181818" points="971.8979,396.8438,981.8979,400.8438,971.8979,404.8438,975.8979,400.8438" style="stroke:#181818;stroke-width:1;"/><line style="stroke:#181818;stroke-width:1;" x1="1110.8105" x2="1110.8105" y1="382.8438" y2="400.8438"/><line style="stroke:#181818;stroke-width:1;" x1="1110.8105" x2="1005.8979" y1="400.8438" y2="400.8438"/><polygon fill="#181818" points="1015.8979,396.8438,1005.8979,400.8438,1015.8979,404.8438,1011.8979,400.8438" style="stroke:#181818;stroke-width:1;"/><line style="stroke:#181818;stroke-width:1;" x1="993.8979" x2="993.8979" y1="279.875" y2="314.875"/><polygon fill="#181818" points="989.8979,304.875,993.8979,314.875,997.8979,304.875,993.8979,308.875" style="stroke:#181818;stroke-width:1;"/><line style="stroke:#181818;stroke-width:1;" x1="993.8979" x2="993.8979" y1="412.8438" y2="447.8438"/><polygon fill="#181818" points="989.8979,437.8438,993.8979,447.8438,997.8979,437.8438,993.8979,441.8438" style="stroke:#181818;stroke-width:1;"/><line style="stroke:#181818;stroke-width:1;" x1="993.8979" x2="993.8979" y1="481.8125" y2="501.8125"/><polygon fill="#181818" points="989.8979,491.8125,993.8979,501.8125,997.8979,491.8125,993.8979,495.8125" style="stroke:#181818;stroke-width:1;"/><line style="stroke:#181818;stroke-width:1;" x1="612.9127" x2="457.4666" y1="169.9375" y2="169.9375"/><line style="stroke:#181818;stroke-width:1;" x1="457.4666" x2="457.4666" y1="169.9375" y2="191.9375"/><polygon fill="#181818" points="453.4666,181.9375,457.4666,191.9375,461.4666,181.9375,457.4666,185.9375" style="stroke:#181818;stroke-width:1;"/><line style="stroke:#181818;stroke-width:1;" x1="838.4518" x2="993.8979" y1="169.9375" y2="169.9375"/><line style="stroke:#181818;stroke-width:1;" x1="993.8979" x2="993.8979" y1="169.9375" y2="191.9375"/><polygon fill="#181818" points="989.8979,181.9375,993.8979,191.9375,997.8979,181.9375,993.8979,185.9375" style="stroke:#181818;stroke-width:1;"/><line style="stroke:#181818;stroke-width:1;" x1="457.4666" x2="457.4666" y1="1187.9336" y2="1205.9336"/><line style="stroke:#181818;stroke-width:1;" x1="457.4666" x2="713.6823" y1="1205.9336" y2="1205.9336"/><polygon fill="#181818" points="703.6823,1201.9336,713.6823,1205.9336,703.6823,1209.9336,707.6823,1205.9336" style="stroke:#181818;stroke-width:1;"/><line style="stroke:#181818;stroke-width:1;" x1="993.8979" x2="993.8979" y1="535.7813" y2="1205.9336"/><line style="stroke:#181818;stroke-width:1;" x1="993.8979" x2="737.6823" y1="1205.9336" y2="1205.9336"/><polygon fill="#181818" points="747.6823,1201.9336,737.6823,1205.9336,747.6823,1209.9336,743.6823,1205.9336" style="stroke:#181818;stroke-width:1;"/><line style="stroke:#181818;stroke-width:1;" x1="725.6823" x2="725.6823" y1="137.9375" y2="157.9375"/><polygon fill="#181818" points="721.6823,147.9375,725.6823,157.9375,729.6823,147.9375,725.6823,151.9375" style="stroke:#181818;stroke-width:1;"/><line style="stroke:#181818;stroke-width:1;" x1="725.6823" x2="725.6823" y1="1217.9336" y2="1237.9336"/><polygon fill="#181818" points="721.6823,1227.9336,725.6823,1237.9336,729.6823,1227.9336,725.6823,1231.9336" style="stroke:#181818;stroke-width:1;"/><!--SRC=[bLN1Zjis4BthAmReORt0fi6cQDAiqnIoB2zKEB9Xx_PEIsE7MOfqIThffbWW_v1hUyYnXnoAVa21wa_o9HrIagsrjwxZWsrIysRcFJwEJk3x__q49n2Dqa5oUJq9ewJyaC9bdCQJS4WFZa2R6owNJBC2PYoxMMYradcaXDBmzZMts7gUuvojXBt2Nsme-48MA2raz8Mw5SKoozVStiAl0S10ILibcmdANkzC-Jk4yoUqwYcTesv7t0N7jNq2yVGg6OwcC1vDu5NveNyz71q7VM7ihS2NLBxfjS_PmlNkMWQGAiUlXLfmMMzGdplIV1N6_QU3S__qRWjQQfMlCglC0M0lxaLFTu4PqvfRzT-mGJJu9XhirMEBGvXlUyzwUprgpD2o0nt6t_N3UAyKbsiwQQRveOBFusVF1_i5bqfRF52nVpvu4lSskBlWnUFwY8xrmc1u_UC8nfCaZPBnqSudEZQuI2JFkEe6mKLrvdxDD1WqlFnBWWAD2swiPjfWD-1pwFppzxLPUIrONd3f7-R4H44ckBiGFvo2VOqIEb6rFWs8rmayElpnCHMLQ9Z4wLLy9EfYQxoVK4F6RFcHo2YwihJG4asNeghEfoWm8yAIAAuaPEviDkrEoq-d_XnQ6MD1z3LOllJv3Egr4mmwOQvcH9jOfyokD1EdtGhRMCprKlrtFuhcHSvoLWSrbWyN92_rqXG49g1-vY9H68HEglRQcY013G5zV4tO8sJEvy66RvE_A3-QJH6pp_ZHooDbtEceuJ71DNVjDEjEngJbH1ZD6LXbj_BuMrkhMfH_M9Nx2dwxGvvyGuATmNWQdq6AFw_u6VJPcYy5SziuHpUqrBraaP9phWkd8kOyLpiI9xAMAkVQdRrpDHKaOpffTeAdv6Oi62nGecRaZu9KcH4NX5j0kZDDUlzLQJpsLK4GLEqhsqeUUpnfLCmu0mQVt_yMIxVaKdr-_tjtDxwl2lAQuFwkQMI2lsFt-svQYAlD_C7wRRjbTkNJw9fCqqKDRtNXdLpFhaQLPXJKGdjv16v5sRN73libIIe9jaEXikn3w0ssbfY8BQafUjFwOwmIDF3Q-LMEi3sPldZ-XFrNIPfChoPXVpJvyYaKqLbfU0pKjAt-24xjjAwvlqeNhRSAtJW-vqGN95_JZ3BEejldhG5cLNO3PaN1zsVjTdYrqjQEaugkXtZW-hP2BxtZtK11JIEBoi_O6mN6rTiEbhOh6iHcWp0-dQ6xKZcauha9QAQ4zrxvoLXYx64q9h1OOlcdUnFL1qcLb_y2]--></g></svg>