<svg xmlns="http://www.w3.org/2000/svg" xmlns:xlink="http://www.w3.org/1999/xlink" contentStyleType="text/css" data-diagram-type="MINDMAP" height="1317px" preserveAspectRatio="none" style="width:1057px;height:1317px;background:#FFFFFF;" version="1.1" viewBox="0 0 1057 1317" width="1057px" zoomAndPan="magnify"><defs><filter height="1" id="b1w75vzpxg5efx0" width="1" x="0" y="0"><feFlood flood-color="#BDBDBD" result="flood"/><feComposite in="SourceGraphic" in2="flood" operator="over"/></filter><filter height="1" id="b1w75vzpxg5efx1" width="1" x="0" y="0"><feFlood flood-color="#E3E3E3" result="flood"/><feComposite in="SourceGraphic" in2="flood" operator="over"/></filter><filter height="1" id="b1w75vzpxg5efx2" width="1" x="0" y="0"><feFlood flood-color="#F6F6F6" result="flood"/><feComposite in="SourceGraphic" in2="flood" operator="over"/></filter><filter height="1" id="b1w75vzpxg5efx3" width="1" x="0" y="0"><feFlood flood-color="#F5F5F5" result="flood"/><feComposite in="SourceGraphic" in2="flood" operator="over"/></filter><filter height="1" id="b1w75vzpxg5efx4" width="1" x="0" y="0"><feFlood flood-color="#DEDEDE" result="flood"/><feComposite in="SourceGraphic" in2="flood" operator="over"/></filter><filter height="1" id="b1w75vzpxg5efx5" width="1" x="0" y="0"><feFlood flood-color="#CDCDCD" result="flood"/><feComposite in="SourceGraphic" in2="flood" operator="over"/></filter><filter height="1" id="b1w75vzpxg5efx6" width="1" x="0" y="0"><feFlood flood-color="#C7C7C7" result="flood"/><feComposite in="SourceGraphic" in2="flood" operator="over"/></filter></defs><g><rect fill="#F1F1F1" height="33.9688" rx="5" ry="5" style="stroke:#181818;stroke-width:1.5;" width="316.3555" x="10" y="640.6406"/><text fill="#000000" filter="url(#b1w75vzpxg5efx0)" font-family="sans-serif" font-size="12" lengthAdjust="spacing" textLength="296.3555" x="20" y="661.7793">&#129504; Mapa de Empat&#237;a - Cliente Carnes Los Almeyda</text><rect fill="#F1F1F1" height="33.9688" rx="5" ry="5" style="stroke:#181818;stroke-width:1.5;" width="86.4863" x="376.3555" y="100.9531"/><text fill="#000000" filter="url(#b1w75vzpxg5efx1)" font-family="sans-serif" font-size="12" lengthAdjust="spacing" textLength="66.4863" x="386.3555" y="122.0918">&#128064; &#191;Qu&#233; ve?</text><rect fill="#F1F1F1" height="33.9688" rx="5" ry="5" style="stroke:#181818;stroke-width:1.5;" width="288.0957" x="512.8418" y="20"/><text fill="#000000" font-family="sans-serif" font-size="12" lengthAdjust="spacing" textLength="268.0957" x="522.8418" y="41.1387">Promociones en WhatsApp o volantes f&#237;sicos</text><path d="M462.8418,117.9375 L472.8418,117.9375 C487.8418,117.9375 487.8418,36.9844 502.8418,36.9844 L512.8418,36.9844" fill="none" style="stroke:#000000;stroke-width:1;"/><rect fill="#F1F1F1" height="33.9688" rx="5" ry="5" style="stroke:#181818;stroke-width:1.5;" width="233.5039" x="512.8418" y="73.9688"/><text fill="#000000" font-family="sans-serif" font-size="12" lengthAdjust="spacing" textLength="213.5039" x="522.8418" y="95.1074">Limitado acceso digital a productos</text><path d="M462.8418,117.9375 L472.8418,117.9375 C487.8418,117.9375 487.8418,90.9531 502.8418,90.9531 L512.8418,90.9531" fill="none" style="stroke:#000000;stroke-width:1;"/><rect fill="#F1F1F1" height="33.9688" rx="5" ry="5" style="stroke:#181818;stroke-width:1.5;" width="217.3262" x="512.8418" y="127.9375"/><text fill="#000000" font-family="sans-serif" font-size="12" lengthAdjust="spacing" textLength="197.3262" x="522.8418" y="149.0762">Dificultad para comparar precios</text><path d="M462.8418,117.9375 L472.8418,117.9375 C487.8418,117.9375 487.8418,144.9219 502.8418,144.9219 L512.8418,144.9219" fill="none" style="stroke:#000000;stroke-width:1;"/><rect fill="#F1F1F1" height="33.9688" rx="5" ry="5" style="stroke:#181818;stroke-width:1.5;" width="285.8164" x="512.8418" y="181.9063"/><text fill="#000000" font-family="sans-serif" font-size="12" lengthAdjust="spacing" textLength="265.8164" x="522.8418" y="203.0449">Falta de informaci&#243;n visual de los productos</text><path d="M462.8418,117.9375 L472.8418,117.9375 C487.8418,117.9375 487.8418,198.8906 502.8418,198.8906 L512.8418,198.8906" fill="none" style="stroke:#000000;stroke-width:1;"/><path d="M326.3555,657.625 L336.3555,657.625 C351.3555,657.625 351.3555,117.9375 366.3555,117.9375 L376.3555,117.9375" fill="none" style="stroke:#000000;stroke-width:1;"/><rect fill="#F1F1F1" height="33.9688" rx="5" ry="5" style="stroke:#181818;stroke-width:1.5;" width="93.8281" x="376.3555" y="316.8281"/><text fill="#000000" filter="url(#b1w75vzpxg5efx2)" font-family="sans-serif" font-size="12" lengthAdjust="spacing" textLength="73.8281" x="386.3555" y="337.9668">&#128066; &#191;Qu&#233; oye?</text><rect fill="#F1F1F1" height="33.9688" rx="5" ry="5" style="stroke:#181818;stroke-width:1.5;" width="212.4805" x="520.1836" y="235.875"/><text fill="#000000" font-family="sans-serif" font-size="12" lengthAdjust="spacing" textLength="192.4805" x="530.1836" y="257.0137">Recomendaciones de conocidos</text><path d="M470.1836,333.8125 L480.1836,333.8125 C495.1836,333.8125 495.1836,252.8594 510.1836,252.8594 L520.1836,252.8594" fill="none" style="stroke:#000000;stroke-width:1;"/><rect fill="#F1F1F1" height="33.9688" rx="5" ry="5" style="stroke:#181818;stroke-width:1.5;" width="260.4043" x="520.1836" y="289.8438"/><text fill="#000000" font-family="sans-serif" font-size="12" lengthAdjust="spacing" textLength="240.4043" x="530.1836" y="310.9824">Comentarios sobre calidad del producto</text><path d="M470.1836,333.8125 L480.1836,333.8125 C495.1836,333.8125 495.1836,306.8281 510.1836,306.8281 L520.1836,306.8281" fill="none" style="stroke:#000000;stroke-width:1;"/><rect fill="#F1F1F1" height="33.9688" rx="5" ry="5" style="stroke:#181818;stroke-width:1.5;" width="297.2539" x="520.1836" y="343.8125"/><text fill="#000000" font-family="sans-serif" font-size="12" lengthAdjust="spacing" textLength="277.2539" x="530.1836" y="364.9512">Sugerencias de recetas de la abuela o amigos</text><path d="M470.1836,333.8125 L480.1836,333.8125 C495.1836,333.8125 495.1836,360.7969 510.1836,360.7969 L520.1836,360.7969" fill="none" style="stroke:#000000;stroke-width:1;"/><rect fill="#F1F1F1" height="33.9688" rx="5" ry="5" style="stroke:#181818;stroke-width:1.5;" width="297.7578" x="520.1836" y="397.7813"/><text fill="#000000" font-family="sans-serif" font-size="12" lengthAdjust="spacing" textLength="277.7578" x="530.1836" y="418.9199">Quejas por demoras en pedidos o confusiones</text><path d="M470.1836,333.8125 L480.1836,333.8125 C495.1836,333.8125 495.1836,414.7656 510.1836,414.7656 L520.1836,414.7656" fill="none" style="stroke:#000000;stroke-width:1;"/><path d="M326.3555,657.625 L336.3555,657.625 C351.3555,657.625 351.3555,333.8125 366.3555,333.8125 L376.3555,333.8125" fill="none" style="stroke:#000000;stroke-width:1;"/><rect fill="#F1F1F1" height="33.9688" rx="5" ry="5" style="stroke:#181818;stroke-width:1.5;" width="162.9395" x="376.3555" y="532.7031"/><text fill="#000000" filter="url(#b1w75vzpxg5efx3)" font-family="sans-serif" font-size="12" lengthAdjust="spacing" textLength="142.9395" x="386.3555" y="553.8418">&#128173; &#191;Qu&#233; piensa y siente?</text><rect fill="#F1F1F1" height="33.9688" rx="5" ry="5" style="stroke:#181818;stroke-width:1.5;" width="193.4785" x="589.2949" y="451.75"/><text fill="#000000" font-family="sans-serif" font-size="12" lengthAdjust="spacing" textLength="173.4785" x="599.2949" y="472.8887">Desea comprar f&#225;cil y r&#225;pido</text><path d="M539.2949,549.6875 L549.2949,549.6875 C564.2949,549.6875 564.2949,468.7344 579.2949,468.7344 L589.2949,468.7344" fill="none" style="stroke:#000000;stroke-width:1;"/><rect fill="#F1F1F1" height="33.9688" rx="5" ry="5" style="stroke:#181818;stroke-width:1.5;" width="297.5527" x="589.2949" y="505.7188"/><text fill="#000000" font-family="sans-serif" font-size="12" lengthAdjust="spacing" textLength="277.5527" x="599.2949" y="526.8574">Quiere calidad y confianza en lo que consume</text><path d="M539.2949,549.6875 L549.2949,549.6875 C564.2949,549.6875 564.2949,522.7031 579.2949,522.7031 L589.2949,522.7031" fill="none" style="stroke:#000000;stroke-width:1;"/><rect fill="#F1F1F1" height="33.9688" rx="5" ry="5" style="stroke:#181818;stroke-width:1.5;" width="308.6914" x="589.2949" y="559.6875"/><text fill="#000000" font-family="sans-serif" font-size="12" lengthAdjust="spacing" textLength="288.6914" x="599.2949" y="580.8262">Le frustra repetir pedidos por errores anteriores</text><path d="M539.2949,549.6875 L549.2949,549.6875 C564.2949,549.6875 564.2949,576.6719 579.2949,576.6719 L589.2949,576.6719" fill="none" style="stroke:#000000;stroke-width:1;"/><rect fill="#F1F1F1" height="33.9688" rx="5" ry="5" style="stroke:#181818;stroke-width:1.5;" width="385.1328" x="589.2949" y="613.6563"/><text fill="#000000" font-family="sans-serif" font-size="12" lengthAdjust="spacing" textLength="365.1328" x="599.2949" y="634.7949">Se siente m&#225;s c&#243;modo si sabe c&#243;mo preparar lo que compra</text><path d="M539.2949,549.6875 L549.2949,549.6875 C564.2949,549.6875 564.2949,630.6406 579.2949,630.6406 L589.2949,630.6406" fill="none" style="stroke:#000000;stroke-width:1;"/><path d="M326.3555,657.625 L336.3555,657.625 C351.3555,657.625 351.3555,549.6875 366.3555,549.6875 L376.3555,549.6875" fill="none" style="stroke:#000000;stroke-width:1;"/><rect fill="#F1F1F1" height="33.9688" rx="5" ry="5" style="stroke:#181818;stroke-width:1.5;" width="140.6035" x="376.3555" y="748.5781"/><text fill="#000000" filter="url(#b1w75vzpxg5efx4)" font-family="sans-serif" font-size="12" lengthAdjust="spacing" textLength="120.6035" x="386.3555" y="769.7168">&#128483;&#65039; &#191;Qu&#233; dice y hace?</text><rect fill="#F1F1F1" height="33.9688" rx="5" ry="5" style="stroke:#181818;stroke-width:1.5;" width="264.3711" x="566.959" y="667.625"/><text fill="#000000" font-family="sans-serif" font-size="12" lengthAdjust="spacing" textLength="244.3711" x="576.959" y="688.7637">Pregunta por cortes especiales o adobos</text><path d="M516.959,765.5625 L526.959,765.5625 C541.959,765.5625 541.959,684.6094 556.959,684.6094 L566.959,684.6094" fill="none" style="stroke:#000000;stroke-width:1;"/><rect fill="#F1F1F1" height="33.9688" rx="5" ry="5" style="stroke:#181818;stroke-width:1.5;" width="265.127" x="566.959" y="721.5938"/><text fill="#000000" font-family="sans-serif" font-size="12" lengthAdjust="spacing" textLength="245.127" x="576.959" y="742.7324">Requiere domicilios r&#225;pidos y sin errores</text><path d="M516.959,765.5625 L526.959,765.5625 C541.959,765.5625 541.959,738.5781 556.959,738.5781 L566.959,738.5781" fill="none" style="stroke:#000000;stroke-width:1;"/><rect fill="#F1F1F1" height="33.9688" rx="5" ry="5" style="stroke:#181818;stroke-width:1.5;" width="198.6582" x="566.959" y="775.5625"/><text fill="#000000" font-family="sans-serif" font-size="12" lengthAdjust="spacing" textLength="178.6582" x="576.959" y="796.7012">Comenta si algo no lleg&#243; bien</text><path d="M516.959,765.5625 L526.959,765.5625 C541.959,765.5625 541.959,792.5469 556.959,792.5469 L566.959,792.5469" fill="none" style="stroke:#000000;stroke-width:1;"/><rect fill="#F1F1F1" height="33.9688" rx="5" ry="5" style="stroke:#181818;stroke-width:1.5;" width="225.4707" x="566.959" y="829.5313"/><text fill="#000000" font-family="sans-serif" font-size="12" lengthAdjust="spacing" textLength="205.4707" x="576.959" y="850.6699">Usa celular, pero no siempre apps</text><path d="M516.959,765.5625 L526.959,765.5625 C541.959,765.5625 541.959,846.5156 556.959,846.5156 L566.959,846.5156" fill="none" style="stroke:#000000;stroke-width:1;"/><path d="M326.3555,657.625 L336.3555,657.625 C351.3555,657.625 351.3555,765.5625 366.3555,765.5625 L376.3555,765.5625" fill="none" style="stroke:#000000;stroke-width:1;"/><rect fill="#F1F1F1" height="33.9688" rx="5" ry="5" style="stroke:#181818;stroke-width:1.5;" width="146.2695" x="376.3555" y="964.4531"/><text fill="#000000" filter="url(#b1w75vzpxg5efx5)" font-family="sans-serif" font-size="12" lengthAdjust="spacing" textLength="126.2695" x="386.3555" y="985.5918">&#129327; Esfuerzos (dolores)</text><rect fill="#F1F1F1" height="33.9688" rx="5" ry="5" style="stroke:#181818;stroke-width:1.5;" width="258.4297" x="572.625" y="883.5"/><text fill="#000000" font-family="sans-serif" font-size="12" lengthAdjust="spacing" textLength="238.4297" x="582.625" y="904.6387">No saber si un producto est&#225; disponible</text><path d="M522.625,981.4375 L532.625,981.4375 C547.625,981.4375 547.625,900.4844 562.625,900.4844 L572.625,900.4844" fill="none" style="stroke:#000000;stroke-width:1;"/><rect fill="#F1F1F1" height="33.9688" rx="5" ry="5" style="stroke:#181818;stroke-width:1.5;" width="281.5742" x="572.625" y="937.4688"/><text fill="#000000" font-family="sans-serif" font-size="12" lengthAdjust="spacing" textLength="261.5742" x="582.625" y="958.6074">Confusi&#243;n con precios por peso y porciones</text><path d="M522.625,981.4375 L532.625,981.4375 C547.625,981.4375 547.625,954.4531 562.625,954.4531 L572.625,954.4531" fill="none" style="stroke:#000000;stroke-width:1;"/><rect fill="#F1F1F1" height="33.9688" rx="5" ry="5" style="stroke:#181818;stroke-width:1.5;" width="323.6387" x="572.625" y="991.4375"/><text fill="#000000" font-family="sans-serif" font-size="12" lengthAdjust="spacing" textLength="303.6387" x="582.625" y="1012.5762">P&#233;rdida de tiempo haciendo el pedido por llamada</text><path d="M522.625,981.4375 L532.625,981.4375 C547.625,981.4375 547.625,1008.4219 562.625,1008.4219 L572.625,1008.4219" fill="none" style="stroke:#000000;stroke-width:1;"/><rect fill="#F1F1F1" height="33.9688" rx="5" ry="5" style="stroke:#181818;stroke-width:1.5;" width="282.3125" x="572.625" y="1045.4063"/><text fill="#000000" font-family="sans-serif" font-size="12" lengthAdjust="spacing" textLength="262.3125" x="582.625" y="1066.5449">Incertidumbre sobre cu&#225;ndo llega el pedido</text><path d="M522.625,981.4375 L532.625,981.4375 C547.625,981.4375 547.625,1062.3906 562.625,1062.3906 L572.625,1062.3906" fill="none" style="stroke:#000000;stroke-width:1;"/><path d="M326.3555,657.625 L336.3555,657.625 C351.3555,657.625 351.3555,981.4375 366.3555,981.4375 L376.3555,981.4375" fill="none" style="stroke:#000000;stroke-width:1;"/><rect fill="#F1F1F1" height="33.9688" rx="5" ry="5" style="stroke:#181818;stroke-width:1.5;" width="171.4473" x="376.3555" y="1180.3281"/><text fill="#000000" filter="url(#b1w75vzpxg5efx6)" font-family="sans-serif" font-size="12" lengthAdjust="spacing" textLength="151.4473" x="386.3555" y="1201.4668">&#128161; Resultados (ganancias)</text><rect fill="#F1F1F1" height="33.9688" rx="5" ry="5" style="stroke:#181818;stroke-width:1.5;" width="227.627" x="597.8027" y="1099.375"/><text fill="#000000" font-family="sans-serif" font-size="12" lengthAdjust="spacing" textLength="207.627" x="607.8027" y="1120.5137">Hacer pedido f&#225;cil desde el celular</text><path d="M547.8027,1197.3125 L557.8027,1197.3125 C572.8027,1197.3125 572.8027,1116.3594 587.8027,1116.3594 L597.8027,1116.3594" fill="none" style="stroke:#000000;stroke-width:1;"/><rect fill="#F1F1F1" height="33.9688" rx="5" ry="5" style="stroke:#181818;stroke-width:1.5;" width="365.7031" x="597.8027" y="1153.3438"/><text fill="#000000" font-family="sans-serif" font-size="12" lengthAdjust="spacing" textLength="345.7031" x="607.8027" y="1174.4824">Ver productos con fotos, precios y formas de preparaci&#243;n</text><path d="M547.8027,1197.3125 L557.8027,1197.3125 C572.8027,1197.3125 572.8027,1170.3281 587.8027,1170.3281 L597.8027,1170.3281" fill="none" style="stroke:#000000;stroke-width:1;"/><rect fill="#F1F1F1" height="33.9688" rx="5" ry="5" style="stroke:#181818;stroke-width:1.5;" width="202.0566" x="597.8027" y="1207.3125"/><text fill="#000000" font-family="sans-serif" font-size="12" lengthAdjust="spacing" textLength="182.0566" x="607.8027" y="1228.4512">Usar medios de pago digitales</text><path d="M547.8027,1197.3125 L557.8027,1197.3125 C572.8027,1197.3125 572.8027,1224.2969 587.8027,1224.2969 L597.8027,1224.2969" fill="none" style="stroke:#000000;stroke-width:1;"/><rect fill="#F1F1F1" height="33.9688" rx="5" ry="5" style="stroke:#181818;stroke-width:1.5;" width="447.6465" x="597.8027" y="1261.2813"/><text fill="#000000" font-family="sans-serif" font-size="12" lengthAdjust="spacing" textLength="427.6465" x="607.8027" y="1282.4199">Recibir recomendaciones autom&#225;ticas de recetas seg&#250;n lo que compra</text><path d="M547.8027,1197.3125 L557.8027,1197.3125 C572.8027,1197.3125 572.8027,1278.2656 587.8027,1278.2656 L597.8027,1278.2656" fill="none" style="stroke:#000000;stroke-width:1;"/><path d="M326.3555,657.625 L336.3555,657.625 C351.3555,657.625 351.3555,1197.3125 366.3555,1197.3125 L376.3555,1197.3125" fill="none" style="stroke:#000000;stroke-width:1;"/><!--SRC=[RLLBRnn54BxFhoY9Yst5qTe2ox4GnDu7uAo3OyVcNDjJEzkuftlI3virYeJu0mWk76454ih1uk0BueB4_23u2LJtpAmd4PTzJ5LNrVUedgVEe_Mbr7c9LUQkfAxGOWcbqKOih2a9l0tKY-Gqnw3yI_hA7ofPw9Aq1y4VP7jPRe6vkP6wW3agrpz_XEAgi2ReV6YKiN2paBuVFxJMt3IXcUBSNcWgDVr_fArdDLdO6VG2skG4NsS04wDz_sppv5pU4kpiPg-pR0i-d77WO2gBXJ-_MXwfG1_z-zDlFyC9LiYmOLnMwEixX6qOAXaHmn2vfOEfSN2eIbhcc6rrXTwRJ4QZuGxN-FuR-Fkl5w5-0zVqCITimIapQuGqyJ1f-6A1tXrM5HYuDWgvieDvVUUaC2xbJsKfFJCAA0Gv0xai-By2XCgQF0ZVvetaN0fM1tE8-46OCdvRJYDkroHDa1CY8AddnfOeP7sluLgwm1NviM8q_R8FU2Q7mr74yss7nonRG6V4hKZds8BYCY9QIEPjqs4CizTu271cPZcEIkOyQ4vgtIwbdeU2B6aXCTNXoSatFnK2pWBn5pDHogAj_IBGbvnGiRWvbSPY8hMYF7RdL9va7bmQh0TdF6104uRpmrq7fs9L7S8IN9AtWJOYHmsJaSXvlH9ISOgjLnNNRmUGr4EqJ1qbwbkCWoW3hqBYmuMI6Zq9vZOupn9PgiXBknuteY3U0SiiHYSmOvOQdEVK3WPblN8WwllIi2US18SpQlv7fHl9rstZu7qP1-Ez_I7Z_l6NV_xuheEUIq4y-0B5sg9K15Oi3IICZPuaLx6DK55abUquQmKuerSD0xaf9TCJHMxvSObDtK7gUo4EZgemlAIW51NrFSmONagvO1a4gQ3GFc9gR4fYy8o50AlgRLyUxQKz-_Lt6Bjv87lBRJVokEtaDbEzvoPnP6FFeDT-OqI-NZ5uLnajPuhQ-P9VubQmQDtk92Agk7tB-5DqVcAgwZUMnKixvUEC9lB8K5YSQEwaR3gk59QOBeaj-4mBibxceOpRqEv4g5VnLAG37yxsm3uPZCTF1j6rAwRTfLsFQ0lKc5QcmVifwzXvglDiJeu7vA8jiIdnCgProvxWpWt_UhH6lOHqIQJzQxsLBenE9WibTp5D78lrtKITDOISiRtjEnS41c_OnLwAjxVSiG_-rE-OzoaVxDvHsMcy82zEfdoPshZKiFDuTx3xmUFz6HVOsRZGLzhSw7HKgYX8IPlPnYUdK-OuM7Ovg-sjd0NFXpUpOxn6E6EdSzu1V5wHFXuzwnx0M5zBQz9BBZk-F7b8s7j_-qXwNadBOy3bIJPgtejyGfYSNtm7SF5oihsVJL4N0GkkpTOUydlAsoN7ply3]--></g></svg>