<svg xmlns="http://www.w3.org/2000/svg" xmlns:xlink="http://www.w3.org/1999/xlink" contentStyleType="text/css" data-diagram-type="MINDMAP" height="1429px" preserveAspectRatio="none" style="width:1190px;height:1429px;background:#FFFFFF;" version="1.1" viewBox="0 0 1190 1429" width="1190px" zoomAndPan="magnify"><defs/><g><rect fill="#F1F1F1" height="36.2969" rx="12.5" ry="12.5" style="stroke:#181818;stroke-width:1.5;" width="367.1699" x="10" y="20"/><text fill="#000000" font-family="sans-serif" font-size="14" lengthAdjust="spacing" textLength="347.1699" x="20" y="42.9951">Proyecto Software 7 Sem iberoaAmeroAmericana</text><rect fill="#F1F1F1" height="36.2969" rx="12.5" ry="12.5" style="stroke:#181818;stroke-width:1.5;" width="352.8965" x="10" y="723.7109"/><text fill="#000000" font-family="sans-serif" font-size="14" lengthAdjust="spacing" textLength="332.8965" x="20" y="746.7061">Mapa de Empat&#237;a - Cliente Carnes Los Almeyda</text><rect fill="#F1F1F1" height="36.2969" rx="12.5" ry="12.5" style="stroke:#181818;stroke-width:1.5;" width="97.5674" x="412.8965" y="160.7422"/><text fill="#000000" font-family="sans-serif" font-size="14" lengthAdjust="spacing" textLength="77.5674" x="422.8965" y="183.7373">&#128064; &#191;Qu&#233; ve?</text><rect fill="#F1F1F1" height="36.2969" rx="12.5" ry="12.5" style="stroke:#181818;stroke-width:1.5;" width="332.7783" x="560.4639" y="76.2969"/><text fill="#000000" font-family="sans-serif" font-size="14" lengthAdjust="spacing" textLength="312.7783" x="570.4639" y="99.292">Promociones en WhatsApp o volantes f&#237;sicos</text><path d="M510.4639,178.8906 L520.4639,178.8906 C535.4639,178.8906 535.4639,94.4453 550.4639,94.4453 L560.4639,94.4453" fill="none" style="stroke:#181818;stroke-width:1;"/><rect fill="#F1F1F1" height="36.2969" rx="12.5" ry="12.5" style="stroke:#181818;stroke-width:1.5;" width="269.0879" x="560.4639" y="132.5938"/><text fill="#000000" font-family="sans-serif" font-size="14" lengthAdjust="spacing" textLength="249.0879" x="570.4639" y="155.5889">Limitado acceso digital a productos</text><path d="M510.4639,178.8906 L520.4639,178.8906 C535.4639,178.8906 535.4639,150.7422 550.4639,150.7422 L560.4639,150.7422" fill="none" style="stroke:#181818;stroke-width:1;"/><rect fill="#F1F1F1" height="36.2969" rx="12.5" ry="12.5" style="stroke:#181818;stroke-width:1.5;" width="250.2139" x="560.4639" y="188.8906"/><text fill="#000000" font-family="sans-serif" font-size="14" lengthAdjust="spacing" textLength="230.2139" x="570.4639" y="211.8857">Dificultad para comparar precios</text><path d="M510.4639,178.8906 L520.4639,178.8906 C535.4639,178.8906 535.4639,207.0391 550.4639,207.0391 L560.4639,207.0391" fill="none" style="stroke:#181818;stroke-width:1;"/><rect fill="#F1F1F1" height="36.2969" rx="12.5" ry="12.5" style="stroke:#181818;stroke-width:1.5;" width="330.1191" x="560.4639" y="245.1875"/><text fill="#000000" font-family="sans-serif" font-size="14" lengthAdjust="spacing" textLength="310.1191" x="570.4639" y="268.1826">Falta de informaci&#243;n visual de los productos</text><path d="M510.4639,178.8906 L520.4639,178.8906 C535.4639,178.8906 535.4639,263.3359 550.4639,263.3359 L560.4639,263.3359" fill="none" style="stroke:#181818;stroke-width:1;"/><path d="M362.8965,741.8594 L372.8965,741.8594 C387.8965,741.8594 387.8965,178.8906 402.8965,178.8906 L412.8965,178.8906" fill="none" style="stroke:#181818;stroke-width:1;"/><rect fill="#F1F1F1" height="36.2969" rx="12.5" ry="12.5" style="stroke:#181818;stroke-width:1.5;" width="106.1328" x="412.8965" y="385.9297"/><text fill="#000000" font-family="sans-serif" font-size="14" lengthAdjust="spacing" textLength="86.1328" x="422.8965" y="408.9248">&#128066; &#191;Qu&#233; oye?</text><rect fill="#F1F1F1" height="36.2969" rx="12.5" ry="12.5" style="stroke:#181818;stroke-width:1.5;" width="244.5605" x="569.0293" y="301.4844"/><text fill="#000000" font-family="sans-serif" font-size="14" lengthAdjust="spacing" textLength="224.5605" x="579.0293" y="324.4795">Recomendaciones de conocidos</text><path d="M519.0293,404.0781 L529.0293,404.0781 C544.0293,404.0781 544.0293,319.6328 559.0293,319.6328 L569.0293,319.6328" fill="none" style="stroke:#181818;stroke-width:1;"/><rect fill="#F1F1F1" height="36.2969" rx="12.5" ry="12.5" style="stroke:#181818;stroke-width:1.5;" width="300.4717" x="569.0293" y="357.7813"/><text fill="#000000" font-family="sans-serif" font-size="14" lengthAdjust="spacing" textLength="280.4717" x="579.0293" y="380.7764">Comentarios sobre calidad del producto</text><path d="M519.0293,404.0781 L529.0293,404.0781 C544.0293,404.0781 544.0293,375.9297 559.0293,375.9297 L569.0293,375.9297" fill="none" style="stroke:#181818;stroke-width:1;"/><rect fill="#F1F1F1" height="36.2969" rx="12.5" ry="12.5" style="stroke:#181818;stroke-width:1.5;" width="343.4629" x="569.0293" y="414.0781"/><text fill="#000000" font-family="sans-serif" font-size="14" lengthAdjust="spacing" textLength="323.4629" x="579.0293" y="437.0732">Sugerencias de recetas de la abuela o amigos</text><path d="M519.0293,404.0781 L529.0293,404.0781 C544.0293,404.0781 544.0293,432.2266 559.0293,432.2266 L569.0293,432.2266" fill="none" style="stroke:#181818;stroke-width:1;"/><rect fill="#F1F1F1" height="36.2969" rx="12.5" ry="12.5" style="stroke:#181818;stroke-width:1.5;" width="344.0508" x="569.0293" y="470.375"/><text fill="#000000" font-family="sans-serif" font-size="14" lengthAdjust="spacing" textLength="324.0508" x="579.0293" y="493.3701">Quejas por demoras en pedidos o confusiones</text><path d="M519.0293,404.0781 L529.0293,404.0781 C544.0293,404.0781 544.0293,488.5234 559.0293,488.5234 L569.0293,488.5234" fill="none" style="stroke:#181818;stroke-width:1;"/><path d="M362.8965,741.8594 L372.8965,741.8594 C387.8965,741.8594 387.8965,404.0781 402.8965,404.0781 L412.8965,404.0781" fill="none" style="stroke:#181818;stroke-width:1;"/><rect fill="#F1F1F1" height="36.2969" rx="12.5" ry="12.5" style="stroke:#181818;stroke-width:1.5;" width="186.7627" x="412.8965" y="611.1172"/><text fill="#000000" font-family="sans-serif" font-size="14" lengthAdjust="spacing" textLength="166.7627" x="422.8965" y="634.1123">&#128173; &#191;Qu&#233; piensa y siente?</text><rect fill="#F1F1F1" height="36.2969" rx="12.5" ry="12.5" style="stroke:#181818;stroke-width:1.5;" width="222.3916" x="649.6592" y="526.6719"/><text fill="#000000" font-family="sans-serif" font-size="14" lengthAdjust="spacing" textLength="202.3916" x="659.6592" y="549.667">Desea comprar f&#225;cil y r&#225;pido</text><path d="M599.6592,629.2656 L609.6592,629.2656 C624.6592,629.2656 624.6592,544.8203 639.6592,544.8203 L649.6592,544.8203" fill="none" style="stroke:#181818;stroke-width:1;"/><rect fill="#F1F1F1" height="36.2969" rx="12.5" ry="12.5" style="stroke:#181818;stroke-width:1.5;" width="343.8115" x="649.6592" y="582.9688"/><text fill="#000000" font-family="sans-serif" font-size="14" lengthAdjust="spacing" textLength="323.8115" x="659.6592" y="605.9639">Quiere calidad y confianza en lo que consume</text><path d="M599.6592,629.2656 L609.6592,629.2656 C624.6592,629.2656 624.6592,601.1172 639.6592,601.1172 L649.6592,601.1172" fill="none" style="stroke:#181818;stroke-width:1;"/><rect fill="#F1F1F1" height="36.2969" rx="12.5" ry="12.5" style="stroke:#181818;stroke-width:1.5;" width="356.8066" x="649.6592" y="639.2656"/><text fill="#000000" font-family="sans-serif" font-size="14" lengthAdjust="spacing" textLength="336.8066" x="659.6592" y="662.2607">Le frustra repetir pedidos por errores anteriores</text><path d="M599.6592,629.2656 L609.6592,629.2656 C624.6592,629.2656 624.6592,657.4141 639.6592,657.4141 L649.6592,657.4141" fill="none" style="stroke:#181818;stroke-width:1;"/><rect fill="#F1F1F1" height="36.2969" rx="12.5" ry="12.5" style="stroke:#181818;stroke-width:1.5;" width="445.9883" x="649.6592" y="695.5625"/><text fill="#000000" font-family="sans-serif" font-size="14" lengthAdjust="spacing" textLength="425.9883" x="659.6592" y="718.5576">Se siente m&#225;s c&#243;modo si sabe c&#243;mo preparar lo que compra</text><path d="M599.6592,629.2656 L609.6592,629.2656 C624.6592,629.2656 624.6592,713.7109 639.6592,713.7109 L649.6592,713.7109" fill="none" style="stroke:#181818;stroke-width:1;"/><path d="M362.8965,741.8594 L372.8965,741.8594 C387.8965,741.8594 387.8965,629.2656 402.8965,629.2656 L412.8965,629.2656" fill="none" style="stroke:#181818;stroke-width:1;"/><rect fill="#F1F1F1" height="36.2969" rx="12.5" ry="12.5" style="stroke:#181818;stroke-width:1.5;" width="160.7041" x="412.8965" y="836.3047"/><text fill="#000000" font-family="sans-serif" font-size="14" lengthAdjust="spacing" textLength="140.7041" x="422.8965" y="859.2998">&#128483;&#65039; &#191;Qu&#233; dice y hace?</text><rect fill="#F1F1F1" height="36.2969" rx="12.5" ry="12.5" style="stroke:#181818;stroke-width:1.5;" width="305.0996" x="623.6006" y="751.8594"/><text fill="#000000" font-family="sans-serif" font-size="14" lengthAdjust="spacing" textLength="285.0996" x="633.6006" y="774.8545">Pregunta por cortes especiales o adobos</text><path d="M573.6006,854.4531 L583.6006,854.4531 C598.6006,854.4531 598.6006,770.0078 613.6006,770.0078 L623.6006,770.0078" fill="none" style="stroke:#181818;stroke-width:1;"/><rect fill="#F1F1F1" height="36.2969" rx="12.5" ry="12.5" style="stroke:#181818;stroke-width:1.5;" width="305.9814" x="623.6006" y="808.1563"/><text fill="#000000" font-family="sans-serif" font-size="14" lengthAdjust="spacing" textLength="285.9814" x="633.6006" y="831.1514">Requiere domicilios r&#225;pidos y sin errores</text><path d="M573.6006,854.4531 L583.6006,854.4531 C598.6006,854.4531 598.6006,826.3047 613.6006,826.3047 L623.6006,826.3047" fill="none" style="stroke:#181818;stroke-width:1;"/><rect fill="#F1F1F1" height="36.2969" rx="12.5" ry="12.5" style="stroke:#181818;stroke-width:1.5;" width="228.4346" x="623.6006" y="864.4531"/><text fill="#000000" font-family="sans-serif" font-size="14" lengthAdjust="spacing" textLength="208.4346" x="633.6006" y="887.4482">Comenta si algo no lleg&#243; bien</text><path d="M573.6006,854.4531 L583.6006,854.4531 C598.6006,854.4531 598.6006,882.6016 613.6006,882.6016 L623.6006,882.6016" fill="none" style="stroke:#181818;stroke-width:1;"/><rect fill="#F1F1F1" height="36.2969" rx="12.5" ry="12.5" style="stroke:#181818;stroke-width:1.5;" width="259.7158" x="623.6006" y="920.75"/><text fill="#000000" font-family="sans-serif" font-size="14" lengthAdjust="spacing" textLength="239.7158" x="633.6006" y="943.7451">Usa celular, pero no siempre apps</text><path d="M573.6006,854.4531 L583.6006,854.4531 C598.6006,854.4531 598.6006,938.8984 613.6006,938.8984 L623.6006,938.8984" fill="none" style="stroke:#181818;stroke-width:1;"/><path d="M362.8965,741.8594 L372.8965,741.8594 C387.8965,741.8594 387.8965,854.4531 402.8965,854.4531 L412.8965,854.4531" fill="none" style="stroke:#181818;stroke-width:1;"/><rect fill="#F1F1F1" height="36.2969" rx="12.5" ry="12.5" style="stroke:#181818;stroke-width:1.5;" width="167.3145" x="412.8965" y="1061.4922"/><text fill="#000000" font-family="sans-serif" font-size="14" lengthAdjust="spacing" textLength="147.3145" x="422.8965" y="1084.4873">&#129327; Esfuerzos (dolores)</text><rect fill="#F1F1F1" height="36.2969" rx="12.5" ry="12.5" style="stroke:#181818;stroke-width:1.5;" width="298.168" x="630.2109" y="977.0469"/><text fill="#000000" font-family="sans-serif" font-size="14" lengthAdjust="spacing" textLength="278.168" x="640.2109" y="1000.042">No saber si un producto est&#225; disponible</text><path d="M580.2109,1079.6406 L590.2109,1079.6406 C605.2109,1079.6406 605.2109,995.1953 620.2109,995.1953 L630.2109,995.1953" fill="none" style="stroke:#181818;stroke-width:1;"/><rect fill="#F1F1F1" height="36.2969" rx="12.5" ry="12.5" style="stroke:#181818;stroke-width:1.5;" width="325.1699" x="630.2109" y="1033.3438"/><text fill="#000000" font-family="sans-serif" font-size="14" lengthAdjust="spacing" textLength="305.1699" x="640.2109" y="1056.3389">Confusi&#243;n con precios por peso y porciones</text><path d="M580.2109,1079.6406 L590.2109,1079.6406 C605.2109,1079.6406 605.2109,1051.4922 620.2109,1051.4922 L630.2109,1051.4922" fill="none" style="stroke:#181818;stroke-width:1;"/><rect fill="#F1F1F1" height="36.2969" rx="12.5" ry="12.5" style="stroke:#181818;stroke-width:1.5;" width="374.2451" x="630.2109" y="1089.6406"/><text fill="#000000" font-family="sans-serif" font-size="14" lengthAdjust="spacing" textLength="354.2451" x="640.2109" y="1112.6357">P&#233;rdida de tiempo haciendo el pedido por llamada</text><path d="M580.2109,1079.6406 L590.2109,1079.6406 C605.2109,1079.6406 605.2109,1107.7891 620.2109,1107.7891 L630.2109,1107.7891" fill="none" style="stroke:#181818;stroke-width:1;"/><rect fill="#F1F1F1" height="36.2969" rx="12.5" ry="12.5" style="stroke:#181818;stroke-width:1.5;" width="326.0313" x="630.2109" y="1145.9375"/><text fill="#000000" font-family="sans-serif" font-size="14" lengthAdjust="spacing" textLength="306.0313" x="640.2109" y="1168.9326">Incertidumbre sobre cu&#225;ndo llega el pedido</text><path d="M580.2109,1079.6406 L590.2109,1079.6406 C605.2109,1079.6406 605.2109,1164.0859 620.2109,1164.0859 L630.2109,1164.0859" fill="none" style="stroke:#181818;stroke-width:1;"/><path d="M362.8965,741.8594 L372.8965,741.8594 C387.8965,741.8594 387.8965,1079.6406 402.8965,1079.6406 L412.8965,1079.6406" fill="none" style="stroke:#181818;stroke-width:1;"/><rect fill="#F1F1F1" height="36.2969" rx="12.5" ry="12.5" style="stroke:#181818;stroke-width:1.5;" width="196.6885" x="412.8965" y="1286.6797"/><text fill="#000000" font-family="sans-serif" font-size="14" lengthAdjust="spacing" textLength="176.6885" x="422.8965" y="1309.6748">&#128161; Resultados (ganancias)</text><rect fill="#F1F1F1" height="36.2969" rx="12.5" ry="12.5" style="stroke:#181818;stroke-width:1.5;" width="262.2314" x="659.585" y="1202.2344"/><text fill="#000000" font-family="sans-serif" font-size="14" lengthAdjust="spacing" textLength="242.2314" x="669.585" y="1225.2295">Hacer pedido f&#225;cil desde el celular</text><path d="M609.585,1304.8281 L619.585,1304.8281 C634.585,1304.8281 634.585,1220.3828 649.585,1220.3828 L659.585,1220.3828" fill="none" style="stroke:#181818;stroke-width:1;"/><rect fill="#F1F1F1" height="36.2969" rx="12.5" ry="12.5" style="stroke:#181818;stroke-width:1.5;" width="423.3203" x="659.585" y="1258.5313"/><text fill="#000000" font-family="sans-serif" font-size="14" lengthAdjust="spacing" textLength="403.3203" x="669.585" y="1281.5264">Ver productos con fotos, precios y formas de preparaci&#243;n</text><path d="M609.585,1304.8281 L619.585,1304.8281 C634.585,1304.8281 634.585,1276.6797 649.585,1276.6797 L659.585,1276.6797" fill="none" style="stroke:#181818;stroke-width:1;"/><rect fill="#F1F1F1" height="36.2969" rx="12.5" ry="12.5" style="stroke:#181818;stroke-width:1.5;" width="232.3994" x="659.585" y="1314.8281"/><text fill="#000000" font-family="sans-serif" font-size="14" lengthAdjust="spacing" textLength="212.3994" x="669.585" y="1337.8232">Usar medios de pago digitales</text><path d="M609.585,1304.8281 L619.585,1304.8281 C634.585,1304.8281 634.585,1332.9766 649.585,1332.9766 L659.585,1332.9766" fill="none" style="stroke:#181818;stroke-width:1;"/><rect fill="#F1F1F1" height="36.2969" rx="12.5" ry="12.5" style="stroke:#181818;stroke-width:1.5;" width="518.9209" x="659.585" y="1371.125"/><text fill="#000000" font-family="sans-serif" font-size="14" lengthAdjust="spacing" textLength="498.9209" x="669.585" y="1394.1201">Recibir recomendaciones autom&#225;ticas de recetas seg&#250;n lo que compra</text><path d="M609.585,1304.8281 L619.585,1304.8281 C634.585,1304.8281 634.585,1389.2734 649.585,1389.2734 L659.585,1389.2734" fill="none" style="stroke:#181818;stroke-width:1;"/><path d="M362.8965,741.8594 L372.8965,741.8594 C387.8965,741.8594 387.8965,1304.8281 402.8965,1304.8281 L412.8965,1304.8281" fill="none" style="stroke:#181818;stroke-width:1;"/><!--SRC=[NLIxSXn55CttAsuegImNTl5mES52aW6nCh8MYVXEpvrnGp_6tTFhMaSKFq11GaXjGU90HQ248g6A-I3u14xtpAo5attCdBxtdiVj9x7dq5ljQilTue3e8lYDgDxJoZVzAmv27z5ABEbAWkSZYy_yeHKxpdYYS-wOQg5Jst4_t30Tqh7HudgXOmvE8Yrzf2DZPLFZo07z-ykFtz7VVprFmnjQoyTuT93RMg-qpt1nzFKBxkDHrv6djJUCMf6QuIPgvMF1BxNLFTUUM2c9dchTuhyXfYxuEe70Y3lHZLR904eT1oRbRVuEW0dQZQ2d342ce5tZWsMbXrj7QnqJAkAnmVntosO6tyyC8DT8uL9GN5pD4mqSLDw1L3srESwl8JVQKlGLf5LiT8tHQZ6x1WMwIgq4SKfpgODPfHz_6YQkak0BtArkfzhFatm3GES3GDO7BZ9sKkVkW6AI9iKos4ZWfvkPG0Ul8jE6OZ5j97CYKKQribZDi5NQ01A6ROUAKqijTpXiIW_DxZNdriRJorGKYCdAw9bG4rBiOKEGJdeTTWFckIK47w1RTXiQ1HcPhMGQZEomZQI6M-lXUzGKkPBnVtPpj7NNDWy-Cltvrt_- -64cMsib6FK5grtmf4rmfOoWVCX9azWX76maAuUGLPF8b_9ov5nxgo58Dd9I91Rzt4pYhjzvL3Qj9-V966c7Mwf0g42k8BmIamo7Un0Z513eOdeXxhh9hDz-fzFO90clqMYlzYRts2yLdlcYGyXTajkb21pwOGkwiVDELqQcYKeAShfXpBm3XNgNjsYJVwev9H1dU1DWKDcDFa_bit8O7WRao1Rtod5Zs79PxmFwt2a9lQwJpHcVafw6RJwL1U2tPwSiRY5jB5kQ-RMuMahqHuQVmQivANCIQuaO2MKcyGhmEiFcDIq46uzVztOyDrJMk-pHb9YowhCLWIow-F4zjxjRHMRxbQuGsl3EedFgFRBPuqxytxP6UFsdUoUIJt1mlcuN5_bgkpfVuXeCUJdfmVs7xptyuFwZ2WKUx5svRvr_vSfHRR85LlONUvzUBA5g2aWo_Es3hbAFm_kBCrupNIBDm3scBpjnPoTVp0_erArry2vdSd5sVVuMyE7xXv_e7eiMC0PTdozEf66uWHFArzgrZ-dggwU7ZnPBTctY5hKHtsEFkc63Twl_0000]--></g></svg>