<svg xmlns="http://www.w3.org/2000/svg" xmlns:xlink="http://www.w3.org/1999/xlink" contentStyleType="text/css" data-diagram-type="DESCRIPTION" height="1105px" preserveAspectRatio="none" style="width:1554px;height:1105px;background:#FFFFFF;" version="1.1" viewBox="0 0 1554 1105" width="1554px" zoomAndPan="magnify"><defs/><g><!--cluster Client--><g class="cluster" data-entity="Client" data-source-line="7" data-uid="ent0002" id="cluster_Client"><polygon fill="none" points="194,141.54,204,131.54,418,131.54,418,265.13,408,275.13,194,275.13,194,141.54" style="stroke:#181818;stroke-width:1;"/><line style="stroke:#181818;stroke-width:1;" x1="408" x2="418" y1="141.54" y2="131.54"/><line style="stroke:#181818;stroke-width:1;" x1="194" x2="408" y1="141.54" y2="141.54"/><line style="stroke:#181818;stroke-width:1;" x1="408" x2="408" y1="141.54" y2="275.13"/><text fill="#000000" font-family="sans-serif" font-size="14" font-weight="bold" lengthAdjust="spacing" textLength="55.5215" x="232.7861" y="157.5351">Cliente</text><text fill="#000000" font-family="sans-serif" font-size="14" font-weight="bold" lengthAdjust="spacing" textLength="138.4277" x="232.7861" y="173.832">(Navegador Web)</text></g><!--cluster Admin--><g class="cluster" data-entity="Admin" data-source-line="11" data-uid="ent0004" id="cluster_Admin"><polygon fill="none" points="458,141.54,468,131.54,699,131.54,699,265.13,689,275.13,458,275.13,458,141.54" style="stroke:#181818;stroke-width:1;"/><line style="stroke:#181818;stroke-width:1;" x1="689" x2="699" y1="141.54" y2="131.54"/><line style="stroke:#181818;stroke-width:1;" x1="458" x2="689" y1="141.54" y2="141.54"/><line style="stroke:#181818;stroke-width:1;" x1="689" x2="689" y1="141.54" y2="275.13"/><text fill="#000000" font-family="sans-serif" font-size="14" font-weight="bold" lengthAdjust="spacing" textLength="112.9297" x="491.9697" y="157.5351">Administrador</text><text fill="#000000" font-family="sans-serif" font-size="14" font-weight="bold" lengthAdjust="spacing" textLength="165.0605" x="491.9697" y="173.832">(PC oficina / port&#225;til)</text></g><!--cluster WebServer--><g class="cluster" data-entity="WebServer" data-source-line="16" data-uid="ent0006" id="cluster_WebServer"><polygon fill="none" points="319,350.13,329,340.13,584,340.13,584,473.72,574,483.72,319,483.72,319,350.13" style="stroke:#181818;stroke-width:1;"/><line style="stroke:#181818;stroke-width:1;" x1="574" x2="584" y1="350.13" y2="340.13"/><line style="stroke:#181818;stroke-width:1;" x1="319" x2="574" y1="350.13" y2="350.13"/><line style="stroke:#181818;stroke-width:1;" x1="574" x2="574" y1="350.13" y2="483.72"/><text fill="#000000" font-family="sans-serif" font-size="14" font-weight="bold" lengthAdjust="spacing" textLength="182.793" x="356.1035" y="366.1251">Hosting / Servidor Web</text><text fill="#000000" font-family="sans-serif" font-size="14" font-weight="bold" lengthAdjust="spacing" textLength="172.0742" x="356.1035" y="382.422">(Nginx/Apache + SSL)</text></g><!--cluster AppServer--><g class="cluster" data-entity="AppServer" data-source-line="20" data-uid="ent0008" id="cluster_AppServer"><polygon fill="none" points="16,573.72,26,563.72,584,563.72,584,932.36,574,942.36,16,942.36,16,573.72" style="stroke:#181818;stroke-width:1;"/><line style="stroke:#181818;stroke-width:1;" x1="574" x2="584" y1="573.72" y2="563.72"/><line style="stroke:#181818;stroke-width:1;" x1="16" x2="574" y1="573.72" y2="573.72"/><line style="stroke:#181818;stroke-width:1;" x1="574" x2="574" y1="573.72" y2="942.36"/><text fill="#000000" font-family="sans-serif" font-size="14" font-weight="bold" lengthAdjust="spacing" textLength="177.0986" x="196.209" y="589.7151">Servidor de Aplicaci&#243;n</text><text fill="#000000" font-family="sans-serif" font-size="14" font-weight="bold" lengthAdjust="spacing" textLength="199.582" x="196.209" y="606.012">(Python / Django o Flask)</text></g><!--cluster DB--><g class="cluster" data-entity="DB" data-source-line="29" data-uid="ent0015" id="cluster_DB"><polygon fill="none" points="624,813.92,634,803.92,909,803.92,909,927.21,899,937.21,624,937.21,624,813.92" style="stroke:#181818;stroke-width:1;"/><line style="stroke:#181818;stroke-width:1;" x1="899" x2="909" y1="813.92" y2="803.92"/><line style="stroke:#181818;stroke-width:1;" x1="624" x2="899" y1="813.92" y2="813.92"/><line style="stroke:#181818;stroke-width:1;" x1="899" x2="899" y1="813.92" y2="937.21"/><text fill="#000000" font-family="sans-serif" font-size="14" font-weight="bold" lengthAdjust="spacing" textLength="209.1387" x="657.9307" y="829.9151">Servidor de Base de Datos</text><text fill="#000000" font-family="sans-serif" font-size="14" font-weight="bold" lengthAdjust="spacing" textLength="173.8516" x="657.9307" y="846.212">(MySQL / PostgreSQL)</text></g><!--cluster PayGW--><g class="cluster" data-entity="PayGW" data-source-line="34" data-uid="ent0017" id="cluster_PayGW"><polygon fill="none" points="949,808.77,959,798.77,1227,798.77,1227,932.36,1217,942.36,949,942.36,949,808.77" style="stroke:#181818;stroke-width:1;"/><line style="stroke:#181818;stroke-width:1;" x1="1217" x2="1227" y1="808.77" y2="798.77"/><line style="stroke:#181818;stroke-width:1;" x1="949" x2="1217" y1="808.77" y2="808.77"/><line style="stroke:#181818;stroke-width:1;" x1="1217" x2="1217" y1="808.77" y2="942.36"/><text fill="#000000" font-family="sans-serif" font-size="14" font-weight="bold" lengthAdjust="spacing" textLength="202.4121" x="982.7939" y="824.7651">Pasarela de pago externa</text><text fill="#000000" font-family="sans-serif" font-size="14" font-weight="bold" lengthAdjust="spacing" textLength="193.8262" x="982.7939" y="841.062">(Nequi / Daviplata / PSE)</text></g><!--cluster IAService--><g class="cluster" data-entity="IAService" data-source-line="38" data-uid="ent0019" id="cluster_IAService"><polygon fill="none" points="1267,808.77,1277,798.77,1528,798.77,1528,932.36,1518,942.36,1267,942.36,1267,808.77" style="stroke:#181818;stroke-width:1;"/><line style="stroke:#181818;stroke-width:1;" x1="1518" x2="1528" y1="808.77" y2="798.77"/><line style="stroke:#181818;stroke-width:1;" x1="1267" x2="1518" y1="808.77" y2="808.77"/><line style="stroke:#181818;stroke-width:1;" x1="1518" x2="1518" y1="808.77" y2="942.36"/><text fill="#000000" font-family="sans-serif" font-size="14" font-weight="bold" lengthAdjust="spacing" textLength="185.835" x="1300.5825" y="824.7651">Servicio de Recetas / IA</text><text fill="#000000" font-family="sans-serif" font-size="14" font-weight="bold" lengthAdjust="spacing" textLength="138.0996" x="1300.5825" y="841.062">(futuro / externo)</text></g><!--entity WebUI--><g class="entity" data-entity="WebUI" data-source-line="8" data-uid="ent0003" id="entity_WebUI"><rect fill="#F1F1F1" height="55.5938" rx="2.5" ry="2.5" style="stroke:#181818;stroke-width:0.5;" width="156.9707" x="217.51" y="195.54"/><polygon fill="#F1F1F1" points="357.4807,200.54,357.4807,214.54,369.4807,214.54,369.4807,206.54,363.4807,200.54,357.4807,200.54" style="stroke:#181818;stroke-width:0.5;"/><line style="stroke:#181818;stroke-width:0.5;" x1="363.4807" x2="363.4807" y1="200.54" y2="206.54"/><line style="stroke:#181818;stroke-width:0.5;" x1="369.4807" x2="363.4807" y1="206.54" y2="206.54"/><text fill="#000000" font-family="sans-serif" font-size="14" lengthAdjust="spacing" textLength="50.1689" x="227.51" y="221.5351">UI Web</text><text fill="#000000" font-family="sans-serif" font-size="14" lengthAdjust="spacing" textLength="126.9707" x="227.51" y="237.832">(React/HTML/CSS)</text></g><!--entity AdminUI--><g class="entity" data-entity="AdminUI" data-source-line="12" data-uid="ent0005" id="entity_AdminUI"><rect fill="#F1F1F1" height="55.5938" rx="2.5" ry="2.5" style="stroke:#181818;stroke-width:0.5;" width="141.1523" x="482.42" y="195.54"/><polygon fill="#F1F1F1" points="606.5723,200.54,606.5723,214.54,618.5723,214.54,618.5723,206.54,612.5723,200.54,606.5723,200.54" style="stroke:#181818;stroke-width:0.5;"/><line style="stroke:#181818;stroke-width:0.5;" x1="612.5723" x2="612.5723" y1="200.54" y2="206.54"/><line style="stroke:#181818;stroke-width:0.5;" x1="618.5723" x2="612.5723" y1="206.54" y2="206.54"/><text fill="#000000" font-family="sans-serif" font-size="14" lengthAdjust="spacing" textLength="87.7119" x="492.42" y="221.5351">Panel Admin</text><text fill="#000000" font-family="sans-serif" font-size="14" lengthAdjust="spacing" textLength="111.1523" x="492.42" y="237.832">(v&#237;a navegador)</text></g><!--entity Front--><g class="entity" data-entity="Front" data-source-line="17" data-uid="ent0007" id="entity_Front"><rect fill="#F1F1F1" height="55.5938" rx="2.5" ry="2.5" style="stroke:#181818;stroke-width:0.5;" width="198.0615" x="342.97" y="404.13"/><polygon fill="#F1F1F1" points="524.0315,409.13,524.0315,423.13,536.0315,423.13,536.0315,415.13,530.0315,409.13,524.0315,409.13" style="stroke:#181818;stroke-width:0.5;"/><line style="stroke:#181818;stroke-width:0.5;" x1="530.0315" x2="530.0315" y1="409.13" y2="415.13"/><line style="stroke:#181818;stroke-width:0.5;" x1="536.0315" x2="530.0315" y1="415.13" y2="415.13"/><text fill="#000000" font-family="sans-serif" font-size="14" lengthAdjust="spacing" textLength="122.5273" x="352.97" y="430.1251">Frontend del sitio</text><text fill="#000000" font-family="sans-serif" font-size="14" lengthAdjust="spacing" textLength="168.0615" x="352.97" y="446.422">(P&#225;gina p&#250;blica + login)</text></g><!--entity ModPedidos--><g class="entity" data-entity="ModPedidos" data-source-line="21" data-uid="ent0009" id="entity_ModPedidos"><rect fill="#F1F1F1" height="39.2969" rx="2.5" ry="2.5" style="stroke:#181818;stroke-width:0.5;" width="139.8877" x="40.06" y="627.72"/><polygon fill="#F1F1F1" points="162.9477,632.72,162.9477,646.72,174.9477,646.72,174.9477,638.72,168.9477,632.72,162.9477,632.72" style="stroke:#181818;stroke-width:0.5;"/><line style="stroke:#181818;stroke-width:0.5;" x1="168.9477" x2="168.9477" y1="632.72" y2="638.72"/><line style="stroke:#181818;stroke-width:0.5;" x1="174.9477" x2="168.9477" y1="638.72" y2="638.72"/><text fill="#000000" font-family="sans-serif" font-size="14" lengthAdjust="spacing" textLength="109.8877" x="50.06" y="653.7151">M&#243;dulo Pedidos</text></g><!--entity ModCarrito--><g class="entity" data-entity="ModCarrito" data-source-line="22" data-uid="ent0010" id="entity_ModCarrito"><rect fill="#F1F1F1" height="39.2969" rx="2.5" ry="2.5" style="stroke:#181818;stroke-width:0.5;" width="133.1201" x="215.44" y="627.72"/><polygon fill="#F1F1F1" points="331.5601,632.72,331.5601,646.72,343.5601,646.72,343.5601,638.72,337.5601,632.72,331.5601,632.72" style="stroke:#181818;stroke-width:0.5;"/><line style="stroke:#181818;stroke-width:0.5;" x1="337.5601" x2="337.5601" y1="632.72" y2="638.72"/><line style="stroke:#181818;stroke-width:0.5;" x1="343.5601" x2="337.5601" y1="638.72" y2="638.72"/><text fill="#000000" font-family="sans-serif" font-size="14" lengthAdjust="spacing" textLength="103.1201" x="225.44" y="653.7151">M&#243;dulo Carrito</text></g><!--entity ModInv--><g class="entity" data-entity="ModInv" data-source-line="23" data-uid="ent0011" id="entity_ModInv"><rect fill="#F1F1F1" height="39.2969" rx="2.5" ry="2.5" style="stroke:#181818;stroke-width:0.5;" width="156.3623" x="383.82" y="627.72"/><polygon fill="#F1F1F1" points="523.1823,632.72,523.1823,646.72,535.1823,646.72,535.1823,638.72,529.1823,632.72,523.1823,632.72" style="stroke:#181818;stroke-width:0.5;"/><line style="stroke:#181818;stroke-width:0.5;" x1="529.1823" x2="529.1823" y1="632.72" y2="638.72"/><line style="stroke:#181818;stroke-width:0.5;" x1="535.1823" x2="529.1823" y1="638.72" y2="638.72"/><text fill="#000000" font-family="sans-serif" font-size="14" lengthAdjust="spacing" textLength="126.3623" x="393.82" y="653.7151">M&#243;dulo Inventario</text></g><!--entity ModRecetas--><g class="entity" data-entity="ModRecetas" data-source-line="24" data-uid="ent0012" id="entity_ModRecetas"><rect fill="#F1F1F1" height="55.5938" rx="2.5" ry="2.5" style="stroke:#181818;stroke-width:0.5;" width="141.3232" x="40.34" y="862.77"/><polygon fill="#F1F1F1" points="164.6632,867.77,164.6632,881.77,176.6632,881.77,176.6632,873.77,170.6632,867.77,164.6632,867.77" style="stroke:#181818;stroke-width:0.5;"/><line style="stroke:#181818;stroke-width:0.5;" x1="170.6632" x2="170.6632" y1="867.77" y2="873.77"/><line style="stroke:#181818;stroke-width:0.5;" x1="176.6632" x2="170.6632" y1="873.77" y2="873.77"/><text fill="#000000" font-family="sans-serif" font-size="14" lengthAdjust="spacing" textLength="111.3232" x="50.34" y="888.7651">M&#243;dulo Recetas</text><text fill="#000000" font-family="sans-serif" font-size="14" lengthAdjust="spacing" textLength="99.9004" x="50.34" y="905.062">(l&#243;gica reglas)</text></g><!--entity ModReportes--><g class="entity" data-entity="ModReportes" data-source-line="25" data-uid="ent0013" id="entity_ModReportes"><rect fill="#F1F1F1" height="39.2969" rx="2.5" ry="2.5" style="stroke:#181818;stroke-width:0.5;" width="148.2549" x="216.87" y="870.92"/><polygon fill="#F1F1F1" points="348.1249,875.92,348.1249,889.92,360.1249,889.92,360.1249,881.92,354.1249,875.92,348.1249,875.92" style="stroke:#181818;stroke-width:0.5;"/><line style="stroke:#181818;stroke-width:0.5;" x1="354.1249" x2="354.1249" y1="875.92" y2="881.92"/><line style="stroke:#181818;stroke-width:0.5;" x1="360.1249" x2="354.1249" y1="881.92" y2="881.92"/><text fill="#000000" font-family="sans-serif" font-size="14" lengthAdjust="spacing" textLength="118.2549" x="226.87" y="896.9151">M&#243;dulo Reportes</text></g><!--entity API--><g class="entity" data-entity="API" data-source-line="26" data-uid="ent0014" id="entity_API"><rect fill="#F1F1F1" height="39.2969" rx="2.5" ry="2.5" style="stroke:#181818;stroke-width:0.5;" width="147.1338" x="400.43" y="870.92"/><polygon fill="#F1F1F1" points="530.5638,875.92,530.5638,889.92,542.5638,889.92,542.5638,881.92,536.5638,875.92,530.5638,875.92" style="stroke:#181818;stroke-width:0.5;"/><line style="stroke:#181818;stroke-width:0.5;" x1="536.5638" x2="536.5638" y1="875.92" y2="881.92"/><line style="stroke:#181818;stroke-width:0.5;" x1="542.5638" x2="536.5638" y1="881.92" y2="881.92"/><text fill="#000000" font-family="sans-serif" font-size="14" lengthAdjust="spacing" textLength="117.1338" x="410.43" y="896.9151">API REST interna</text></g><!--entity DBMain--><g class="entity" data-entity="DBMain" data-source-line="30" data-uid="ent0016" id="entity_DBMain"><path d="M648.3,877.92 C648.3,867.92 739.0017,867.92 739.0017,867.92 C739.0017,867.92 829.7033,867.92 829.7033,877.92 L829.7033,903.2169 C829.7033,913.2169 739.0017,913.2169 739.0017,913.2169 C739.0017,913.2169 648.3,913.2169 648.3,903.2169 L648.3,877.92" fill="#F1F1F1" style="stroke:#181818;stroke-width:0.5;"/><path d="M648.3,877.92 C648.3,887.92 739.0017,887.92 739.0017,887.92 C739.0017,887.92 829.7033,887.92 829.7033,877.92" fill="none" style="stroke:#181818;stroke-width:0.5;"/><text fill="#000000" font-family="sans-serif" font-size="14" lengthAdjust="spacing" textLength="161.4033" x="658.3" y="904.9151">DB_CarnesLosAlmeyda</text></g><!--entity PayAPI--><g class="entity" data-entity="PayAPI" data-source-line="35" data-uid="ent0018" id="entity_PayAPI"><rect fill="#F1F1F1" height="55.5938" rx="2.5" ry="2.5" style="stroke:#181818;stroke-width:0.5;" width="189.8447" x="973.08" y="862.77"/><polygon fill="#F1F1F1" points="1145.9247,867.77,1145.9247,881.77,1157.9247,881.77,1157.9247,873.77,1151.9247,867.77,1145.9247,867.77" style="stroke:#181818;stroke-width:0.5;"/><line style="stroke:#181818;stroke-width:0.5;" x1="1151.9247" x2="1151.9247" y1="867.77" y2="873.77"/><line style="stroke:#181818;stroke-width:0.5;" x1="1157.9247" x2="1151.9247" y1="873.77" y2="873.77"/><text fill="#000000" font-family="sans-serif" font-size="14" lengthAdjust="spacing" textLength="159.8447" x="983.08" y="888.7651">Endpoint de validaci&#243;n</text><text fill="#000000" font-family="sans-serif" font-size="14" lengthAdjust="spacing" textLength="56.8682" x="983.08" y="905.062">de pago</text></g><!--entity IARec--><g class="entity" data-entity="IARec" data-source-line="39" data-uid="ent0020" id="entity_IARec"><rect fill="#F1F1F1" height="55.5938" rx="2.5" ry="2.5" style="stroke:#181818;stroke-width:0.5;" width="148.8223" x="1290.59" y="862.77"/><polygon fill="#F1F1F1" points="1422.4123,867.77,1422.4123,881.77,1434.4123,881.77,1434.4123,873.77,1428.4123,867.77,1422.4123,867.77" style="stroke:#181818;stroke-width:0.5;"/><line style="stroke:#181818;stroke-width:0.5;" x1="1428.4123" x2="1428.4123" y1="867.77" y2="873.77"/><line style="stroke:#181818;stroke-width:0.5;" x1="1434.4123" x2="1428.4123" y1="873.77" y2="873.77"/><text fill="#000000" font-family="sans-serif" font-size="14" lengthAdjust="spacing" textLength="118.8223" x="1300.59" y="888.7651">Cat&#225;logo recetas</text><text fill="#000000" font-family="sans-serif" font-size="14" lengthAdjust="spacing" textLength="100.5498" x="1300.59" y="905.062">+ sugerencias</text></g><g class="entity" data-entity="GMN27" data-source-line="54" data-uid="ent0028" id="entity_GMN27"><path d="M334.81,6 L334.81,76.5313 L485.1879,76.5313 L485.1879,16 L475.1879,6 L334.81,6" fill="#FEFFDD" style="stroke:#181818;stroke-width:0.5;"/><path d="M475.1879,6 L475.1879,16 L485.1879,16 L475.1879,6" fill="#FEFFDD" style="stroke:#181818;stroke-width:1;"/><text fill="#000000" font-family="sans-serif" font-size="13" lengthAdjust="spacing" textLength="129.3779" x="340.81" y="23.0669">Usuario cliente final</text><text fill="#000000" font-family="sans-serif" font-size="13" lengthAdjust="spacing" textLength="114.0356" x="340.81" y="38.1997">&#8226; Realiza pedidos</text><text fill="#000000" font-family="sans-serif" font-size="13" lengthAdjust="spacing" textLength="81.1484" x="340.81" y="53.3325">&#8226; Ve recetas</text><text fill="#000000" font-family="sans-serif" font-size="13" lengthAdjust="spacing" textLength="99.7534" x="340.81" y="68.4653">&#8226; Paga en l&#237;nea</text></g><g class="entity" data-entity="GMN30" data-source-line="61" data-uid="ent0031" id="entity_GMN30"><path d="M611.22,596.97 L611.22,697.7669 L830.781,697.7669 L830.781,606.97 L820.781,596.97 L611.22,596.97" fill="#FEFFDD" style="stroke:#181818;stroke-width:0.5;"/><path d="M820.781,596.97 L820.781,606.97 L830.781,606.97 L820.781,596.97" fill="#FEFFDD" style="stroke:#181818;stroke-width:1;"/><text fill="#000000" font-family="sans-serif" font-size="13" lengthAdjust="spacing" textLength="198.561" x="617.22" y="614.0369">Aqu&#237; vive la l&#243;gica de negocio:</text><text fill="#000000" font-family="sans-serif" font-size="13" lengthAdjust="spacing" textLength="144.7773" x="617.22" y="629.1697">- autenticaci&#243;n y roles</text><text fill="#000000" font-family="sans-serif" font-size="13" lengthAdjust="spacing" textLength="146.2754" x="617.22" y="644.3025">- gesti&#243;n de productos</text><text fill="#000000" font-family="sans-serif" font-size="13" lengthAdjust="spacing" textLength="118.3394" x="617.22" y="659.4353">- carrito y pedidos</text><text fill="#000000" font-family="sans-serif" font-size="13" lengthAdjust="spacing" textLength="160.8496" x="617.22" y="674.5681">- generaci&#243;n de reportes</text><text fill="#000000" font-family="sans-serif" font-size="13" lengthAdjust="spacing" textLength="184.4756" x="617.22" y="689.701">- actualizaci&#243;n de inventario</text></g><g class="entity" data-entity="GMN33" data-source-line="70" data-uid="ent0034" id="entity_GMN33"><path d="M799.44,997.36 L799.44,1098.1569 L966.5694,1098.1569 L966.5694,1007.36 L956.5694,997.36 L799.44,997.36" fill="#FEFFDD" style="stroke:#181818;stroke-width:0.5;"/><path d="M956.5694,997.36 L956.5694,1007.36 L966.5694,1007.36 L956.5694,997.36" fill="#FEFFDD" style="stroke:#181818;stroke-width:1;"/><text fill="#000000" font-family="sans-serif" font-size="13" lengthAdjust="spacing" textLength="146.1294" x="805.44" y="1014.4269">Base de datos central:</text><text fill="#000000" font-family="sans-serif" font-size="13" lengthAdjust="spacing" textLength="63.7241" x="805.44" y="1029.5597">- usuarios</text><text fill="#000000" font-family="sans-serif" font-size="13" lengthAdjust="spacing" textLength="73.8359" x="805.44" y="1044.6925">- productos</text><text fill="#000000" font-family="sans-serif" font-size="13" lengthAdjust="spacing" textLength="59.9155" x="805.44" y="1059.8253">- pedidos</text><text fill="#000000" font-family="sans-serif" font-size="13" lengthAdjust="spacing" textLength="57.1479" x="805.44" y="1074.9581">- recetas</text><text fill="#000000" font-family="sans-serif" font-size="13" lengthAdjust="spacing" textLength="62.1626" x="805.44" y="1090.091">- bit&#225;cora</text></g><!--link Client to WebServer--><g class="link" data-entity-1="Client" data-entity-2="WebServer" data-source-line="43" data-uid="lnk21" id="link_Client_WebServer"><path d="M418.1546,237.7866 C418.3801,238.1343 418.6097,238.4869 418.8436,238.844 C419.3112,239.5584 419.7955,240.2912 420.2959,241.0407 C422.2977,244.0388 424.5581,247.3031 427.0475,250.715 C437.005,264.3625 450.625,280.37 466,291.13 C501.25,315.79 529.3,291.21 557,324.13 C560.8188,328.6688 563.9855,333.7075 566.6028,339.0545 C566.7664,339.3887 564.3606,334.301 564.5199,334.6375" fill="none" id="Client-to-WebServer" style="stroke:#181818;stroke-width:1;"/><polygon fill="#181818" points="567.0871,340.0606,566.8517,330.2146,564.9478,335.5414,559.621,333.6375,567.0871,340.0606" style="stroke:#181818;stroke-width:1;"/><text fill="#000000" font-family="sans-serif" font-size="13" lengthAdjust="spacing" textLength="41.7485" x="549" y="312.1969">HTTPS</text></g><!--link Admin to WebServer--><g class="link" data-entity-1="Admin" data-entity-2="WebServer" data-source-line="44" data-uid="lnk22" id="link_Admin_WebServer"><path d="M645.3292,275.4443 C645.256,275.6762 645.1826,275.908 645.109,276.1398 C644.9617,276.6033 644.8137,277.0666 644.665,277.5294 C644.3675,278.4552 644.067,279.3793 643.7638,280.3004 C642.5506,283.985 641.2925,287.6225 640,291.13 C628.365,322.685 612.68,357.0425 599.75,383.8 C596.5175,390.4894 593.4572,396.7038 590.6754,402.2806 C589.2845,405.069 587.9632,407.698 586.7249,410.1474 C586.1057,411.372 585.5073,412.5518 584.9312,413.684 C584.6432,414.2502 587.0879,409.4601 586.8113,410.0022" fill="none" id="Admin-to-WebServer" style="stroke:#181818;stroke-width:1;"/><polygon fill="#181818" points="584.0841,415.3465,591.7378,409.1481,586.3568,410.8929,584.612,405.5118,584.0841,415.3465" style="stroke:#181818;stroke-width:1;"/><text fill="#000000" font-family="sans-serif" font-size="13" lengthAdjust="spacing" textLength="41.7485" x="636" y="312.1969">HTTPS</text></g><!--link WebServer to AppServer--><g class="link" data-entity-1="WebServer" data-entity-2="AppServer" data-source-line="46" data-uid="lnk23" id="link_WebServer_AppServer"><path d="M576,484.0717 C576,489.6828 576,495.5783 576,501.6632 C576,513.833 576,526.7606 576,539.6875 C576,546.1509 576,552.6142 576,558.9824 C576,559.7784 576,560.573 576,561.3658 C576,561.7623 576,562.1583 576,562.5539 C576,562.7517 576,556.9493 576,557.1469" fill="none" id="WebServer-to-AppServer" style="stroke:#181818;stroke-width:1;"/><polygon fill="#181818" points="576,563.1469,580,554.1469,576,558.1469,572,554.1469,576,563.1469" style="stroke:#181818;stroke-width:1;"/><text fill="#000000" font-family="sans-serif" font-size="13" lengthAdjust="spacing" textLength="79.625" x="577" y="520.7869">HTTP/HTTPS</text><text fill="#000000" font-family="sans-serif" font-size="13" lengthAdjust="spacing" textLength="65.5269" x="577" y="535.9197">(backend)</text></g><!--link AppServer to DBMain--><g class="link" data-entity-1="AppServer" data-entity-2="DBMain" data-source-line="47" data-uid="lnk24" id="link_AppServer_DBMain"><path d="M584.017,674.8699 C584.1357,675.2003 584.2557,675.5317 584.3769,675.8641 C584.6192,676.5288 584.8662,677.1972 585.1179,677.8683 C585.6213,679.2105 586.1434,680.5634 586.6836,681.9188 C588.8444,687.34 591.295,692.8 594,697.77 C630.32,764.5 684.2873,828.8113 714.7673,863.0013" fill="none" id="AppServer-to-DBMain" style="stroke:#181818;stroke-width:1;"/><polygon fill="#181818" points="718.76,867.48,715.7568,858.1002,715.4328,863.7478,709.7852,863.4238,718.76,867.48" style="stroke:#181818;stroke-width:1;"/><text fill="#000000" font-family="sans-serif" font-size="13" lengthAdjust="spacing" textLength="74.458" x="641" y="748.3369">JDBC/ODBC</text><text fill="#000000" font-family="sans-serif" font-size="13" lengthAdjust="spacing" textLength="117.1523" x="641" y="763.4697">Puerto 5432/3306</text></g><!--link AppServer to PayGW--><g class="link" data-entity-1="AppServer" data-entity-2="PayGW" data-source-line="49" data-uid="lnk25" id="link_AppServer_PayGW"><path d="M584.0185,684.8106 C584.0985,684.9702 584.1793,685.1293 584.2609,685.2881 C584.4242,685.6055 584.5907,685.9212 584.7604,686.235 C585.1,686.8626 585.4527,687.4825 585.819,688.0933 C586.5518,689.3148 587.3392,690.4997 588.1853,691.6358 C589.8777,693.908 591.805,695.985 594,697.77 C619.48,718.49 1155.41,759.92 1179,782.77 C1183.2613,786.8975 1186.7616,791.6263 1189.6237,796.7458 C1189.9814,797.3857 1187.5666,792.7056 1187.9046,793.3574" fill="none" id="AppServer-to-PayGW" style="stroke:#181818;stroke-width:1;"/><polygon fill="#181818" points="1190.6673,798.6835,1190.074,788.8525,1188.3651,794.2451,1182.9725,792.5361,1190.6673,798.6835" style="stroke:#181818;stroke-width:1;"/><text fill="#000000" font-family="sans-serif" font-size="13" lengthAdjust="spacing" textLength="41.7485" x="1151" y="748.3369">HTTPS</text><text fill="#000000" font-family="sans-serif" font-size="13" lengthAdjust="spacing" textLength="92.3457" x="1151" y="763.4697">(Validar pago)</text></g><!--link AppServer to IAService--><g class="link" data-entity-1="AppServer" data-entity-2="IAService" data-source-line="50" data-uid="lnk26" id="link_AppServer_IAService"><path d="M584.1007,685.8923 C584.1425,685.9705 584.1847,686.0487 584.227,686.1267 C584.3116,686.2827 584.3972,686.4382 584.4836,686.5931 C584.8292,687.2128 585.1888,687.8238 585.5631,688.4244 C586.3116,689.6255 587.1185,690.7851 587.9885,691.8905 C589.7283,694.1013 591.72,696.095 594,697.77 C652.99,741.09 1180.33,712.95 1252,727.77 C1309.72,739.71 1318.64,761.24 1376,774.77 C1393.17,778.82 1442.01,770.83 1455,782.77 C1459.375,786.7913 1462.9761,791.4398 1465.9275,796.5005 C1466.2964,797.1331 1463.8009,792.4945 1464.1497,793.1396" fill="none" id="AppServer-to-IAService" style="stroke:#181818;stroke-width:1;"/><polygon fill="#181818" points="1467.0041,798.4172,1466.2409,788.5979,1464.6254,794.0192,1459.2042,792.4037,1467.0041,798.4172" style="stroke:#181818;stroke-width:1;"/><text fill="#000000" font-family="sans-serif" font-size="13" lengthAdjust="spacing" textLength="41.7485" x="1377" y="740.8369">HTTPS</text><text fill="#000000" font-family="sans-serif" font-size="13" lengthAdjust="spacing" textLength="169.5586" x="1377" y="755.9697">(Obtener receta sugerida)</text><text fill="#000000" font-family="sans-serif" font-size="13" lengthAdjust="spacing" textLength="64.8794" x="1377" y="771.1025">(opcional)</text></g><!--link GMN27 to Client--><g class="link" data-entity-1="GMN27" data-entity-2="Client" data-source-line="54" data-uid="lnk29" id="link_GMN27_Client"><path d="M410,76.99 C410,89.865 410,105.205 410,121.017 C410,122.9935 410,124.9774 410,126.9648 C410,127.9585 410,128.953 410,129.9479 C410,130.4454 410,130.943 410,131.4406" fill="none" id="GMN27-Client" style="stroke:#181818;stroke-width:1;stroke-dasharray:7,7;"/></g><!--link AppServer to GMN30--><g class="link" data-entity-1="AppServer" data-entity-2="GMN30" data-source-line="61" data-uid="lnk32" id="link_AppServer_GMN30"><path d="M584.0376,647.37 C584.1263,647.37 584.2151,647.37 584.3038,647.37 C584.6587,647.37 585.0136,647.37 585.3684,647.37 C588.2075,647.37 591.0463,647.37 593.885,647.37 C599.5625,647.37 605.24,647.37 610.92,647.37" fill="none" id="AppServer-GMN30" style="stroke:#181818;stroke-width:1;stroke-dasharray:7,7;"/></g><!--link DB to GMN33--><g class="link" data-entity-1="DB" data-entity-2="GMN33" data-source-line="70" data-uid="lnk35" id="link_DB_GMN33"><path d="M883,937.3686 C883,937.5383 883,937.7082 883,937.8784 C883,938.2187 883,938.5599 883,938.9021 C883,939.5865 883,940.2746 883,940.9662 C883,942.3494 883,943.7464 883,945.1551 C883,950.79 883,956.6123 883,962.4861 C883,974.2338 883,986.1875 883,997.26" fill="none" id="DB-GMN33" style="stroke:#181818;stroke-width:1;stroke-dasharray:7,7;"/></g><!--SRC=[TLLDRnit4BtlhnZuqWg1eA9kUmZG0lfmQXLsih7av1AW6EsErgmfSiFbAbQB0FqhwTqdtthLF-alwUDoLv9LLGVB9D_Cl7dpeUfUcP8ThsZ1sNtXR6toiTNMqQSxvIMfTk-vBBdMVYuFVgXLOLPYF6bP-WDCPbUbDNYO-OqMSf9vDeK-T5CY31To34Y-eX_3XrxRt5O8HdLLirFulxbFZCNTsLWhU9SFvklNl9Q2Sn1zBulU6N55yP7-I8ZOURNapDFPxJG0O70ZE0ykvzTNW_5i5YtmSZjDFYUjzs6-KaPLtWM_C4d7P9SgKuPfGALrVll5AnrD6-nHh9IDwFW2w_NsaSbqD0-iOiWkuQbPEXO4hJDVEwRIAPEfalMpn2zjvPKfm6CcRgtQl8CEXJ8FWo5alHDwGRFPrIwrW1HtnF6Lin3Gv91OKwMyiY7HxPSYP5bk_rvebJ4SQOkRwAensQkq8u33i0pmJ6sVGiRfnjzP0uwJtr1LIvPUQQxkszJByYIXw-rJNcjBgUJmMZNOQvktnvFGCJkdlEsWxV4aT6hMw8dGI1qQDoUHDvA9vmffwErJ4KHmKe1-hpDi0VzZ7Df3gZqsdf-1X-cKRYvcSrAeW3CSPKcdfwKTSINXUyBU1bRNczdRAsYReXCA9pX4PfDH8sZEdXV1v6mo-XMA6AckR3NKAzdat0AlMPd3rcl2PM76BXu2ewDXIxbY9ve3Yv9HJsbG7BfEFjOg59hNgjG87OZDBYAZb3S_lp-gyeN9IukyWwyrQvLtJTFwxWp_AmVu1QDMVSIP3a5WMMDOB4wHausHfyDe8aVHnupHHKVRi75YbLzGLHVY1BF6LMkC68Vot21tH8UIhIpjWkdtVpeOhvTqEP-dioGkXDDloVug0FQZ40631eMimWx6RFQIFIBWO-K0_cKo6W_UuCy7azRYlANllpl_Td1-_iqFoP5DB49B0AxVDQAxHknZ_tlPzlWt2sm9l4V1ebXmqCEJBOCgh7k7MplKfciUB-HjYTtPhcJKuZPkSyhY0gSbret6_Jz__WMTmUrtR9_To8VRTz8Lgxr8kM0IGthxQ8IJiCD2g2G6TAguyo7aBZMO3J_MsqTQgxKGshYRQtIJaS8YYPV0z8bhfEgxFKORSbOtezkd0ekvkGnjwcoE7MtZInQN3j1xsW4FpLe_UKXWjmOG1lkzINJth7RBwJYRXVNUha8wan6CkrsGXrr06OmSwqY- -vbi3iyf7XBRIzcdXS8qPDRjDVmN]--></g></svg>