<svg xmlns="http://www.w3.org/2000/svg" xmlns:xlink="http://www.w3.org/1999/xlink" contentStyleType="text/css" data-diagram-type="CLASS" height="1053px" preserveAspectRatio="none" style="width:1167px;height:1053px;background:#FFFFFF;" version="1.1" viewBox="0 0 1167 1053" width="1167px" zoomAndPan="magnify"><title>Modelo Base de Datos -Entidad-Relaci&#243;n (E-R) - Aplicativo Web "Carnes Los Almeyda -Proyecto de Software-Universidad IberoAmericana "</title><defs/><g><g class="title" data-source-line="1"><text fill="#000000" font-family="sans-serif" font-size="14" font-weight="bold" lengthAdjust="spacing" textLength="1092.0547" x="30.8571" y="22.9951">Modelo Base de Datos -Entidad-Relaci&#243;n (E-R) - Aplicativo Web "Carnes Los Almeyda -Proyecto de Software-Universidad IberoAmericana "</text></g><!--class ROLES--><g class="entity" data-entity="ROLES" data-source-line="17" data-uid="ent0002" id="entity_ROLES"><rect fill="#F9E79F" height="96.8906" rx="2.5" ry="2.5" style="stroke:#181818;stroke-width:0.5;" width="211.8008" x="33.36" y="44.2969"/><ellipse cx="115.9655" cy="60.2969" fill="#ADD1B2" rx="11" ry="11" style="stroke:#181818;stroke-width:1;"/><path d="M120.0748,66.2969 L112.3561,66.2969 L112.3561,53.9063 L120.0748,53.9063 L120.0748,56.0625 L114.8092,56.0625 L114.8092,58.7344 L119.5748,58.7344 L119.5748,60.8906 L114.8092,60.8906 L114.8092,64.1406 L120.0748,64.1406 L120.0748,66.2969 Z " fill="#000000"/><text fill="#000000" font-family="sans-serif" font-size="14" lengthAdjust="spacing" textLength="38.0898" x="136.4655" y="65.1436">Roles</text><line style="stroke:#181818;stroke-width:0.5;" x1="34.36" x2="244.1608" y1="76.2969" y2="76.2969"/><ellipse cx="44.36" cy="89.9453" fill="#000000" rx="3" ry="3" style="stroke:#000000;stroke-width:1;"/><text fill="#000000" font-family="sans-serif" font-size="14" lengthAdjust="spacing" textLength="74.7578" x="53.36" y="93.292">id_rol : INT</text><line style="stroke:#181818;stroke-width:1;" x1="34.36" x2="244.1608" y1="100.5938" y2="100.5938"/><text fill="#000000" font-family="sans-serif" font-size="14" lengthAdjust="spacing" textLength="190.3877" x="39.36" y="117.5889">nombre_rol : VARCHAR(50)</text><text fill="#000000" font-family="sans-serif" font-size="14" lengthAdjust="spacing" textLength="199.8008" x="39.36" y="133.8857">descripcion : VARCHAR(100)</text></g><!--class USUARIOS--><g class="entity" data-entity="USUARIOS" data-source-line="24" data-uid="ent0003" id="entity_USUARIOS"><rect fill="#D6EAF8" height="162.0781" rx="2.5" ry="2.5" style="stroke:#181818;stroke-width:0.5;" width="210.0713" x="34.22" y="218.1869"/><ellipse cx="104.7566" cy="234.1869" fill="#ADD1B2" rx="11" ry="11" style="stroke:#181818;stroke-width:1;"/><path d="M108.866,240.1869 L101.1472,240.1869 L101.1472,227.7963 L108.866,227.7963 L108.866,229.9525 L103.6004,229.9525 L103.6004,232.6244 L108.366,232.6244 L108.366,234.7806 L103.6004,234.7806 L103.6004,238.0306 L108.866,238.0306 L108.866,240.1869 Z " fill="#000000"/><text fill="#000000" font-family="sans-serif" font-size="14" lengthAdjust="spacing" textLength="60.498" x="125.2566" y="239.0336">Usuarios</text><line style="stroke:#181818;stroke-width:0.5;" x1="35.22" x2="243.2913" y1="250.1869" y2="250.1869"/><ellipse cx="45.22" cy="263.8353" fill="#000000" rx="3" ry="3" style="stroke:#000000;stroke-width:1;"/><text fill="#000000" font-family="sans-serif" font-size="14" lengthAdjust="spacing" textLength="108.377" x="54.22" y="267.182">id_usuario : INT</text><line style="stroke:#181818;stroke-width:1;" x1="35.22" x2="243.2913" y1="274.4838" y2="274.4838"/><text fill="#000000" font-family="sans-serif" font-size="14" lengthAdjust="spacing" textLength="174.084" x="40.22" y="291.4789">nombre : VARCHAR(100)</text><text fill="#000000" font-family="sans-serif" font-size="14" lengthAdjust="spacing" textLength="164.7051" x="40.22" y="307.7757">correo : VARCHAR(100)</text><text fill="#000000" font-family="sans-serif" font-size="14" lengthAdjust="spacing" textLength="198.0713" x="40.22" y="324.0726">contrase&#241;a : VARCHAR(255)</text><text fill="#000000" font-family="sans-serif" font-size="14" lengthAdjust="spacing" textLength="168.3828" x="40.22" y="340.3695">telefono : VARCHAR(20)</text><text fill="#000000" font-family="sans-serif" font-size="14" lengthAdjust="spacing" textLength="183.6201" x="40.22" y="356.6664">direccion : VARCHAR(255)</text><text fill="#000000" font-family="sans-serif" font-size="14" lengthAdjust="spacing" textLength="74.7578" x="40.22" y="372.9632">id_rol : INT</text></g><!--class PEDIDOS--><g class="entity" data-entity="PEDIDOS" data-source-line="40" data-uid="ent0005" id="entity_PEDIDOS"><rect fill="#FADBD8" height="129.4844" rx="2.5" ry="2.5" style="stroke:#181818;stroke-width:0.5;" width="190.3975" x="44.06" y="473.5569"/><ellipse cx="107.7197" cy="489.5569" fill="#ADD1B2" rx="11" ry="11" style="stroke:#181818;stroke-width:1;"/><path d="M111.829,495.5569 L104.1103,495.5569 L104.1103,483.1663 L111.829,483.1663 L111.829,485.3225 L106.5634,485.3225 L106.5634,487.9944 L111.329,487.9944 L111.329,490.1506 L106.5634,490.1506 L106.5634,493.4006 L111.829,493.4006 L111.829,495.5569 Z " fill="#000000"/><text fill="#000000" font-family="sans-serif" font-size="14" lengthAdjust="spacing" textLength="54.5781" x="128.2197" y="494.4036">Pedidos</text><line style="stroke:#181818;stroke-width:0.5;" x1="45.06" x2="233.4575" y1="505.5569" y2="505.5569"/><ellipse cx="55.06" cy="519.2053" fill="#000000" rx="3" ry="3" style="stroke:#000000;stroke-width:1;"/><text fill="#000000" font-family="sans-serif" font-size="14" lengthAdjust="spacing" textLength="104.2754" x="64.06" y="522.552">id_pedido : INT</text><line style="stroke:#181818;stroke-width:1;" x1="45.06" x2="233.4575" y1="529.8538" y2="529.8538"/><text fill="#000000" font-family="sans-serif" font-size="14" lengthAdjust="spacing" textLength="108.377" x="50.06" y="546.8489">id_usuario : INT</text><text fill="#000000" font-family="sans-serif" font-size="14" lengthAdjust="spacing" textLength="178.3975" x="50.06" y="563.1457">fecha_pedido : DATETIME</text><text fill="#000000" font-family="sans-serif" font-size="14" lengthAdjust="spacing" textLength="150.7119" x="50.06" y="579.4426">total : DECIMAL(12,2)</text><text fill="#000000" font-family="sans-serif" font-size="14" lengthAdjust="spacing" textLength="158.2725" x="50.06" y="595.7395">estado : VARCHAR(50)</text></g><!--class DETALLE--><g class="entity" data-entity="DETALLE" data-source-line="49" data-uid="ent0006" id="entity_DETALLE"><rect fill="#FADBD8" height="145.7813" rx="2.5" ry="2.5" style="stroke:#181818;stroke-width:0.5;" width="191.5801" x="260.47" y="704.4869"/><ellipse cx="300.4186" cy="720.4869" fill="#ADD1B2" rx="11" ry="11" style="stroke:#181818;stroke-width:1;"/><path d="M304.528,726.4869 L296.8093,726.4869 L296.8093,714.0962 L304.528,714.0962 L304.528,716.2525 L299.2624,716.2525 L299.2624,718.9244 L304.028,718.9244 L304.028,721.0806 L299.2624,721.0806 L299.2624,724.3306 L304.528,724.3306 L304.528,726.4869 Z " fill="#000000"/><text fill="#000000" font-family="sans-serif" font-size="14" lengthAdjust="spacing" textLength="104.1387" x="319.9628" y="725.3336">Detalle_Pedido</text><line style="stroke:#181818;stroke-width:0.5;" x1="261.47" x2="451.0501" y1="736.4869" y2="736.4869"/><ellipse cx="271.47" cy="750.1353" fill="#000000" rx="3" ry="3" style="stroke:#000000;stroke-width:1;"/><text fill="#000000" font-family="sans-serif" font-size="14" lengthAdjust="spacing" textLength="104.5078" x="280.47" y="753.482">id_detalle : INT</text><line style="stroke:#181818;stroke-width:1;" x1="261.47" x2="451.0501" y1="760.7837" y2="760.7837"/><text fill="#000000" font-family="sans-serif" font-size="14" lengthAdjust="spacing" textLength="104.2754" x="266.47" y="777.7789">id_pedido : INT</text><text fill="#000000" font-family="sans-serif" font-size="14" lengthAdjust="spacing" textLength="119.2666" x="266.47" y="794.0757">id_producto : INT</text><text fill="#000000" font-family="sans-serif" font-size="14" lengthAdjust="spacing" textLength="179.5801" x="266.47" y="810.3726">cantidad : DECIMAL(10,2)</text><text fill="#000000" font-family="sans-serif" font-size="14" lengthAdjust="spacing" textLength="175.7656" x="266.47" y="826.6695">subtotal : DECIMAL(10,2)</text><text fill="#000000" font-family="sans-serif" font-size="14" lengthAdjust="spacing" textLength="110.5371" x="266.47" y="842.9664">id_servicio : INT</text></g><!--class PRODUCTOS--><g class="entity" data-entity="PRODUCTOS" data-source-line="65" data-uid="ent0009" id="entity_PRODUCTOS"><rect fill="#D5F5E3" height="162.0781" rx="2.5" ry="2.5" style="stroke:#181818;stroke-width:0.5;" width="212.1084" x="611.21" y="457.2569"/><ellipse cx="678.2295" cy="473.2569" fill="#ADD1B2" rx="11" ry="11" style="stroke:#181818;stroke-width:1;"/><path d="M682.3389,479.2569 L674.6202,479.2569 L674.6202,466.8663 L682.3389,466.8663 L682.3389,469.0225 L677.0733,469.0225 L677.0733,471.6944 L681.8389,471.6944 L681.8389,473.8506 L677.0733,473.8506 L677.0733,477.1006 L682.3389,477.1006 L682.3389,479.2569 Z " fill="#000000"/><text fill="#000000" font-family="sans-serif" font-size="14" lengthAdjust="spacing" textLength="69.5693" x="698.7295" y="478.1036">Productos</text><line style="stroke:#181818;stroke-width:0.5;" x1="612.21" x2="822.3184" y1="489.2569" y2="489.2569"/><ellipse cx="622.21" cy="502.9053" fill="#000000" rx="3" ry="3" style="stroke:#000000;stroke-width:1;"/><text fill="#000000" font-family="sans-serif" font-size="14" lengthAdjust="spacing" textLength="119.2666" x="631.21" y="506.252">id_producto : INT</text><line style="stroke:#181818;stroke-width:1;" x1="612.21" x2="822.3184" y1="513.5538" y2="513.5538"/><text fill="#000000" font-family="sans-serif" font-size="14" lengthAdjust="spacing" textLength="174.084" x="617.21" y="530.5489">nombre : VARCHAR(100)</text><text fill="#000000" font-family="sans-serif" font-size="14" lengthAdjust="spacing" textLength="176.9004" x="617.21" y="546.8457">categoria : VARCHAR(50)</text><text fill="#000000" font-family="sans-serif" font-size="14" lengthAdjust="spacing" textLength="200.1084" x="617.21" y="563.1426">precio_libra : DECIMAL(10,2)</text><text fill="#000000" font-family="sans-serif" font-size="14" lengthAdjust="spacing" textLength="129.2061" x="617.21" y="579.4395">descripcion : TEXT</text><text fill="#000000" font-family="sans-serif" font-size="14" lengthAdjust="spacing" textLength="197.75" x="617.21" y="595.7364">imagen_url : VARCHAR(255)</text><text fill="#000000" font-family="sans-serif" font-size="14" lengthAdjust="spacing" textLength="124.4619" x="617.21" y="612.0332">activo : BOOLEAN</text></g><!--class SERVICIOS--><g class="entity" data-entity="SERVICIOS" data-source-line="81" data-uid="ent0011" id="entity_SERVICIOS"><rect fill="#FCF3CF" height="113.1875" rx="2.5" ry="2.5" style="stroke:#181818;stroke-width:0.5;" width="238.167" x="315.18" y="481.7069"/><ellipse cx="356.7682" cy="497.7069" fill="#ADD1B2" rx="11" ry="11" style="stroke:#181818;stroke-width:1;"/><path d="M360.8776,503.7069 L353.1589,503.7069 L353.1589,491.3163 L360.8776,491.3163 L360.8776,493.4725 L355.612,493.4725 L355.612,496.1444 L360.3776,496.1444 L360.3776,498.3006 L355.612,498.3006 L355.612,501.5506 L360.8776,501.5506 L360.8776,503.7069 Z " fill="#000000"/><text fill="#000000" font-family="sans-serif" font-size="14" lengthAdjust="spacing" textLength="147.082" x="376.6767" y="502.5536">Servicios Adicionales</text><line style="stroke:#181818;stroke-width:0.5;" x1="316.18" x2="552.347" y1="513.7069" y2="513.7069"/><ellipse cx="326.18" cy="527.3553" fill="#000000" rx="3" ry="3" style="stroke:#000000;stroke-width:1;"/><text fill="#000000" font-family="sans-serif" font-size="14" lengthAdjust="spacing" textLength="110.5371" x="335.18" y="530.702">id_servicio : INT</text><line style="stroke:#181818;stroke-width:1;" x1="316.18" x2="552.347" y1="538.0038" y2="538.0038"/><text fill="#000000" font-family="sans-serif" font-size="14" lengthAdjust="spacing" textLength="226.167" x="321.18" y="554.9989">nombre_servicio : VARCHAR(50)</text><text fill="#000000" font-family="sans-serif" font-size="14" lengthAdjust="spacing" textLength="162.1074" x="321.18" y="571.2957">precio : DECIMAL(10,2)</text><text fill="#000000" font-family="sans-serif" font-size="14" lengthAdjust="spacing" textLength="199.8008" x="321.18" y="587.5926">descripcion : VARCHAR(150)</text></g><!--class PROD_SERV--><g class="entity" data-entity="PROD_SERV" data-source-line="90" data-uid="ent0012" id="entity_PROD_SERV"><rect fill="#FCF3CF" height="80.5938" rx="2.5" ry="2.5" style="stroke:#181818;stroke-width:0.5;" width="156.8584" x="486.83" y="737.0769"/><ellipse cx="501.83" cy="753.0769" fill="#ADD1B2" rx="11" ry="11" style="stroke:#181818;stroke-width:1;"/><path d="M505.9394,759.0769 L498.2206,759.0769 L498.2206,746.6863 L505.9394,746.6863 L505.9394,748.8425 L500.6738,748.8425 L500.6738,751.5144 L505.4394,751.5144 L505.4394,753.6706 L500.6738,753.6706 L500.6738,756.9206 L505.9394,756.9206 L505.9394,759.0769 Z " fill="#000000"/><text fill="#000000" font-family="sans-serif" font-size="14" lengthAdjust="spacing" textLength="124.8584" x="515.83" y="757.9236">Producto_Servicio</text><line style="stroke:#181818;stroke-width:0.5;" x1="487.83" x2="642.6884" y1="769.0769" y2="769.0769"/><ellipse cx="497.83" cy="782.7253" fill="#000000" rx="3" ry="3" style="stroke:#000000;stroke-width:1;"/><text fill="#000000" font-family="sans-serif" font-size="14" lengthAdjust="spacing" textLength="119.2666" x="506.83" y="786.072">id_producto : INT</text><ellipse cx="497.83" cy="799.0222" fill="#000000" rx="3" ry="3" style="stroke:#000000;stroke-width:1;"/><text fill="#000000" font-family="sans-serif" font-size="14" lengthAdjust="spacing" textLength="110.5371" x="506.83" y="802.3689">id_servicio : INT</text><line style="stroke:#181818;stroke-width:0.5;" x1="487.83" x2="642.6884" y1="809.6706" y2="809.6706"/></g><!--class RECETAS--><g class="entity" data-entity="RECETAS" data-source-line="104" data-uid="ent0016" id="entity_RECETAS"><rect fill="#E8DAEF" height="129.4844" rx="2.5" ry="2.5" style="stroke:#181818;stroke-width:0.5;" width="263.0088" x="897.76" y="473.5569"/><ellipse cx="997.0076" cy="489.5569" fill="#ADD1B2" rx="11" ry="11" style="stroke:#181818;stroke-width:1;"/><path d="M1001.1169,495.5569 L993.3982,495.5569 L993.3982,483.1663 L1001.1169,483.1663 L1001.1169,485.3225 L995.8513,485.3225 L995.8513,487.9944 L1000.6169,487.9944 L1000.6169,490.1506 L995.8513,490.1506 L995.8513,493.4006 L1001.1169,493.4006 L1001.1169,495.5569 Z " fill="#000000"/><text fill="#000000" font-family="sans-serif" font-size="14" lengthAdjust="spacing" textLength="56.0137" x="1017.5076" y="494.4036">Recetas</text><line style="stroke:#181818;stroke-width:0.5;" x1="898.76" x2="1159.7688" y1="505.5569" y2="505.5569"/><ellipse cx="908.76" cy="519.2053" fill="#000000" rx="3" ry="3" style="stroke:#000000;stroke-width:1;"/><text fill="#000000" font-family="sans-serif" font-size="14" lengthAdjust="spacing" textLength="101.2949" x="917.76" y="522.552">id_receta : INT</text><line style="stroke:#181818;stroke-width:1;" x1="898.76" x2="1159.7688" y1="529.8538" y2="529.8538"/><text fill="#000000" font-family="sans-serif" font-size="14" lengthAdjust="spacing" textLength="174.084" x="903.76" y="546.8489">nombre : VARCHAR(100)</text><text fill="#000000" font-family="sans-serif" font-size="14" lengthAdjust="spacing" textLength="129.2061" x="903.76" y="563.1457">descripcion : TEXT</text><text fill="#000000" font-family="sans-serif" font-size="14" lengthAdjust="spacing" textLength="180.8584" x="903.76" y="579.4426">pasos_preparacion : TEXT</text><text fill="#000000" font-family="sans-serif" font-size="14" lengthAdjust="spacing" textLength="251.0088" x="903.76" y="595.7395">tiempo_preparacion : VARCHAR(50)</text></g><!--class RECETA_PROD--><g class="entity" data-entity="RECETA_PROD" data-source-line="113" data-uid="ent0017" id="entity_RECETA_PROD"><rect fill="#E8DAEF" height="80.5938" rx="2.5" ry="2.5" style="stroke:#181818;stroke-width:0.5;" width="149.9951" x="954.26" y="737.0769"/><ellipse cx="969.26" cy="753.0769" fill="#ADD1B2" rx="11" ry="11" style="stroke:#181818;stroke-width:1;"/><path d="M973.3694,759.0769 L965.6506,759.0769 L965.6506,746.6863 L973.3694,746.6863 L973.3694,748.8425 L968.1038,748.8425 L968.1038,751.5144 L972.8694,751.5144 L972.8694,753.6706 L968.1038,753.6706 L968.1038,756.9206 L973.3694,756.9206 L973.3694,759.0769 Z " fill="#000000"/><text fill="#000000" font-family="sans-serif" font-size="14" lengthAdjust="spacing" textLength="117.9951" x="983.26" y="757.9236">Receta_Producto</text><line style="stroke:#181818;stroke-width:0.5;" x1="955.26" x2="1103.2551" y1="769.0769" y2="769.0769"/><ellipse cx="965.26" cy="782.7253" fill="#000000" rx="3" ry="3" style="stroke:#000000;stroke-width:1;"/><text fill="#000000" font-family="sans-serif" font-size="14" lengthAdjust="spacing" textLength="101.2949" x="974.26" y="786.072">id_receta : INT</text><ellipse cx="965.26" cy="799.0222" fill="#000000" rx="3" ry="3" style="stroke:#000000;stroke-width:1;"/><text fill="#000000" font-family="sans-serif" font-size="14" lengthAdjust="spacing" textLength="119.2666" x="974.26" y="802.3689">id_producto : INT</text><line style="stroke:#181818;stroke-width:0.5;" x1="955.26" x2="1103.2551" y1="809.6706" y2="809.6706"/></g><!--class PAGOS--><g class="entity" data-entity="PAGOS" data-source-line="124" data-uid="ent0020" id="entity_PAGOS"><rect fill="#FDEBD0" height="162.0781" rx="2.5" ry="2.5" style="stroke:#181818;stroke-width:0.5;" width="218.5205" x="7" y="696.3369"/><ellipse cx="91.1265" cy="712.3369" fill="#ADD1B2" rx="11" ry="11" style="stroke:#181818;stroke-width:1;"/><path d="M95.2358,718.3369 L87.5171,718.3369 L87.5171,705.9463 L95.2358,705.9463 L95.2358,708.1025 L89.9702,708.1025 L89.9702,710.7744 L94.7358,710.7744 L94.7358,712.9306 L89.9702,712.9306 L89.9702,716.1806 L95.2358,716.1806 L95.2358,718.3369 Z " fill="#000000"/><text fill="#000000" font-family="sans-serif" font-size="14" lengthAdjust="spacing" textLength="41.7676" x="111.6265" y="717.1836">Pagos</text><line style="stroke:#181818;stroke-width:0.5;" x1="8" x2="224.5205" y1="728.3369" y2="728.3369"/><ellipse cx="18" cy="741.9853" fill="#000000" rx="3" ry="3" style="stroke:#000000;stroke-width:1;"/><text fill="#000000" font-family="sans-serif" font-size="14" lengthAdjust="spacing" textLength="91.4648" x="27" y="745.332">id_pago : INT</text><line style="stroke:#181818;stroke-width:1;" x1="8" x2="224.5205" y1="752.6338" y2="752.6338"/><text fill="#000000" font-family="sans-serif" font-size="14" lengthAdjust="spacing" textLength="104.2754" x="13" y="769.6289">id_pedido : INT</text><text fill="#000000" font-family="sans-serif" font-size="14" lengthAdjust="spacing" textLength="206.5205" x="13" y="785.9257">metodo_pago : VARCHAR(50)</text><text fill="#000000" font-family="sans-serif" font-size="14" lengthAdjust="spacing" textLength="191.0713" x="13" y="802.2226">referencia : VARCHAR(120)</text><text fill="#000000" font-family="sans-serif" font-size="14" lengthAdjust="spacing" textLength="163.8301" x="13" y="818.5195">monto : DECIMAL(12,2)</text><text fill="#000000" font-family="sans-serif" font-size="14" lengthAdjust="spacing" textLength="165.5869" x="13" y="834.8164">fecha_pago : DATETIME</text><text fill="#000000" font-family="sans-serif" font-size="14" lengthAdjust="spacing" textLength="158.2725" x="13" y="851.1132">estado : VARCHAR(50)</text></g><!--class INVENTARIO--><g class="entity" data-entity="INVENTARIO" data-source-line="140" data-uid="ent0022" id="entity_INVENTARIO"><rect fill="#AED6F1" height="129.4844" rx="2.5" ry="2.5" style="stroke:#181818;stroke-width:0.5;" width="240.2861" x="679.12" y="712.6369"/><ellipse cx="759.4867" cy="728.6369" fill="#ADD1B2" rx="11" ry="11" style="stroke:#181818;stroke-width:1;"/><path d="M763.5961,734.6369 L755.8773,734.6369 L755.8773,722.2463 L763.5961,722.2463 L763.5961,724.4025 L758.3304,724.4025 L758.3304,727.0744 L763.0961,727.0744 L763.0961,729.2306 L758.3304,729.2306 L758.3304,732.4806 L763.5961,732.4806 L763.5961,734.6369 Z " fill="#000000"/><text fill="#000000" font-family="sans-serif" font-size="14" lengthAdjust="spacing" textLength="71.0527" x="779.9867" y="733.4836">Inventario</text><line style="stroke:#181818;stroke-width:0.5;" x1="680.12" x2="918.4061" y1="744.6369" y2="744.6369"/><ellipse cx="690.12" cy="758.2853" fill="#000000" rx="3" ry="3" style="stroke:#000000;stroke-width:1;"/><text fill="#000000" font-family="sans-serif" font-size="14" lengthAdjust="spacing" textLength="127.3604" x="699.12" y="761.632">id_inventario : INT</text><line style="stroke:#181818;stroke-width:1;" x1="680.12" x2="918.4061" y1="768.9338" y2="768.9338"/><text fill="#000000" font-family="sans-serif" font-size="14" lengthAdjust="spacing" textLength="119.2666" x="685.12" y="785.9289">id_producto : INT</text><text fill="#000000" font-family="sans-serif" font-size="14" lengthAdjust="spacing" textLength="124.0313" x="685.12" y="802.2257">stock_actual : INT</text><text fill="#000000" font-family="sans-serif" font-size="14" lengthAdjust="spacing" textLength="133.417" x="685.12" y="818.5226">stock_minimo : INT</text><text fill="#000000" font-family="sans-serif" font-size="14" lengthAdjust="spacing" textLength="228.2861" x="685.12" y="834.8195">ultima_actualizacion : DATETIME</text></g><!--link ROLES to USUARIOS--><g class="link" data-entity-1="ROLES" data-entity-2="USUARIOS" data-source-line="35" data-uid="lnk4" id="link_ROLES_USUARIOS"><path codeLine="35" d="M139.26,149.6769 C139.26,172.3469 139.26,174.0269 139.26,199.7669" fill="none" id="ROLES-USUARIOS" style="stroke:#181818;stroke-width:1;"/><line style="stroke:#181818;stroke-width:1;" x1="135.26" x2="143.26" y1="145.6769" y2="145.6769"/><line style="stroke:#181818;stroke-width:1;" x1="135.26" x2="143.26" y1="148.6769" y2="148.6769"/><line style="stroke:#181818;stroke-width:1;" x1="139.26" x2="139.26" y1="149.6769" y2="141.6769"/><line style="stroke:#181818;stroke-width:1;" x1="139.26" x2="145.26" y1="209.7669" y2="217.7669"/><line style="stroke:#181818;stroke-width:1;" x1="139.26" x2="133.26" y1="209.7669" y2="217.7669"/><line style="stroke:#181818;stroke-width:1;" x1="139.26" x2="139.26" y1="209.7669" y2="217.7669"/><ellipse cx="139.26" cy="203.7669" fill="none" rx="4" ry="4" style="stroke:#181818;stroke-width:1;"/><text fill="#000000" font-family="sans-serif" font-size="13" lengthAdjust="spacing" textLength="34.2266" x="140.26" y="184.2538">1 a N</text></g><!--link USUARIOS to PEDIDOS--><g class="link" data-entity-1="USUARIOS" data-entity-2="PEDIDOS" data-source-line="59" data-uid="lnk7" id="link_USUARIOS_PEDIDOS"><path codeLine="59" d="M139.26,388.4869 C139.26,418.7069 139.26,426.6569 139.26,455.2069" fill="none" id="USUARIOS-PEDIDOS" style="stroke:#181818;stroke-width:1;"/><line style="stroke:#181818;stroke-width:1;" x1="135.26" x2="143.26" y1="384.4869" y2="384.4869"/><line style="stroke:#181818;stroke-width:1;" x1="135.26" x2="143.26" y1="387.4869" y2="387.4869"/><line style="stroke:#181818;stroke-width:1;" x1="139.26" x2="139.26" y1="388.4869" y2="380.4869"/><line style="stroke:#181818;stroke-width:1;" x1="139.26" x2="145.26" y1="465.2069" y2="473.2069"/><line style="stroke:#181818;stroke-width:1;" x1="139.26" x2="133.26" y1="465.2069" y2="473.2069"/><line style="stroke:#181818;stroke-width:1;" x1="139.26" x2="139.26" y1="465.2069" y2="473.2069"/><ellipse cx="139.26" cy="459.2069" fill="none" rx="4" ry="4" style="stroke:#181818;stroke-width:1;"/><text fill="#000000" font-family="sans-serif" font-size="13" lengthAdjust="spacing" textLength="34.2266" x="140.26" y="423.3238">1 a N</text></g><!--link PEDIDOS to DETALLE--><g class="link" data-entity-1="PEDIDOS" data-entity-2="DETALLE" data-source-line="60" data-uid="lnk8" id="link_PEDIDOS_DETALLE"><path codeLine="60" d="M203.3821,609.3575 C231.8821,640.4875 248.6667,658.8292 278.0667,690.9492" fill="none" id="PEDIDOS-DETALLE" style="stroke:#181818;stroke-width:1;"/><line style="stroke:#181818;stroke-width:1;" x1="197.7307" x2="203.6314" y1="609.1082" y2="603.7061"/><line style="stroke:#181818;stroke-width:1;" x1="199.7565" x2="205.6571" y1="611.321" y2="605.9189"/><line style="stroke:#181818;stroke-width:1;" x1="203.3821" x2="197.98" y1="609.3575" y2="603.4569"/><line style="stroke:#181818;stroke-width:1;" x1="284.8185" x2="294.6459" y1="698.3257" y2="700.1758"/><line style="stroke:#181818;stroke-width:1;" x1="284.8185" x2="285.7941" y1="698.3257" y2="708.278"/><line style="stroke:#181818;stroke-width:1;" x1="284.8185" x2="290.22" y1="698.3257" y2="704.2269"/><ellipse cx="280.7674" cy="693.8998" fill="none" rx="4" ry="4" style="stroke:#181818;stroke-width:1;"/><text fill="#000000" font-family="sans-serif" font-size="13" lengthAdjust="spacing" textLength="34.2266" x="256.26" y="662.4038">1 a N</text></g><!--link PRODUCTOS to DETALLE--><g class="link" data-entity-1="PRODUCTOS" data-entity-2="DETALLE" data-source-line="76" data-uid="lnk10" id="link_PRODUCTOS_DETALLE"><path codeLine="76" d="M613.4319,624.4921 C590.7319,641.1621 572.53,652.9569 548.26,666.3369 C515.37,684.4669 502.41,678.6769 469.26,696.3369 C463.64,699.3369 473.4049,693.306 467.7549,696.696" fill="none" id="PRODUCTOS-DETALLE" style="stroke:#181818;stroke-width:1;"/><line style="stroke:#181818;stroke-width:1;" x1="614.2884" x2="619.0236" y1="618.9004" y2="625.3485"/><line style="stroke:#181818;stroke-width:1;" x1="611.8703" x2="616.6055" y1="620.6762" y2="627.1242"/><line style="stroke:#181818;stroke-width:1;" x1="613.4319" x2="619.88" y1="624.4921" y2="619.7569"/><line style="stroke:#181818;stroke-width:1;" x1="459.1799" x2="455.407" y1="701.8409" y2="711.1018"/><line style="stroke:#181818;stroke-width:1;" x1="459.1799" x2="449.233" y1="701.8409" y2="700.8119"/><line style="stroke:#181818;stroke-width:1;" x1="459.1799" x2="452.32" y1="701.8409" y2="705.9569"/><ellipse cx="464.3249" cy="698.7539" fill="none" rx="4" ry="4" style="stroke:#181818;stroke-width:1;"/><text fill="#000000" font-family="sans-serif" font-size="13" lengthAdjust="spacing" textLength="34.2266" x="574.26" y="662.4038">1 a N</text></g><!--link PRODUCTOS to PROD_SERV--><g class="link" data-entity-1="PRODUCTOS" data-entity-2="PROD_SERV" data-source-line="95" data-uid="lnk13" id="link_PRODUCTOS_PROD_SERV"><path codeLine="95" d="M681.2275,626.9283 C673.6575,642.8083 668.52,651.8269 659.26,666.3369 C643.32,691.3369 634.2127,703.3522 615.9727,723.4022" fill="none" id="PRODUCTOS-PROD_SERV" style="stroke:#181818;stroke-width:1;"/><line style="stroke:#181818;stroke-width:1;" x1="679.338" x2="686.5595" y1="621.5964" y2="625.0388"/><line style="stroke:#181818;stroke-width:1;" x1="678.0471" x2="685.2686" y1="624.3044" y2="627.7469"/><line style="stroke:#181818;stroke-width:1;" x1="681.2275" x2="684.67" y1="626.9283" y2="619.7069"/><line style="stroke:#181818;stroke-width:1;" x1="609.2434" x2="608.2982" y1="730.7992" y2="740.7545"/><line style="stroke:#181818;stroke-width:1;" x1="609.2434" x2="599.4218" y1="730.7992" y2="732.6793"/><line style="stroke:#181818;stroke-width:1;" x1="609.2434" x2="603.86" y1="730.7992" y2="736.7169"/><ellipse cx="613.281" cy="726.361" fill="none" rx="4" ry="4" style="stroke:#181818;stroke-width:1;"/><text fill="#000000" font-family="sans-serif" font-size="13" lengthAdjust="spacing" textLength="34.2266" x="669.26" y="662.4038">1 a N</text></g><!--link SERVICIOS to PROD_SERV--><g class="link" data-entity-1="SERVICIOS" data-entity-2="PROD_SERV" data-source-line="96" data-uid="lnk14" id="link_SERVICIOS_PROD_SERV"><path codeLine="96" d="M469.0087,602.1892 C493.0587,645.7192 513.2847,682.3119 534.6847,721.0419" fill="none" id="SERVICIOS-PROD_SERV" style="stroke:#181818;stroke-width:1;"/><line style="stroke:#181818;stroke-width:1;" x1="463.5732" x2="470.5755" y1="600.6224" y2="596.7537"/><line style="stroke:#181818;stroke-width:1;" x1="465.024" x2="472.0263" y1="603.2483" y2="599.3796"/><line style="stroke:#181818;stroke-width:1;" x1="469.0087" x2="465.14" y1="602.1892" y2="595.1869"/><line style="stroke:#181818;stroke-width:1;" x1="539.521" x2="548.6416" y1="729.7947" y2="733.8951"/><line style="stroke:#181818;stroke-width:1;" x1="539.521" x2="538.1384" y1="729.7947" y2="739.6986"/><line style="stroke:#181818;stroke-width:1;" x1="539.521" x2="543.39" y1="729.7947" y2="736.7969"/><ellipse cx="536.6192" cy="724.543" fill="none" rx="4" ry="4" style="stroke:#181818;stroke-width:1;"/><text fill="#000000" font-family="sans-serif" font-size="13" lengthAdjust="spacing" textLength="34.2266" x="505.26" y="662.4038">1 a N</text></g><!--link SERVICIOS to DETALLE--><g class="link" data-entity-1="SERVICIOS" data-entity-2="DETALLE" data-source-line="99" data-uid="lnk15" id="link_SERVICIOS_DETALLE"><path codeLine="99" d="M413.3696,602.7861 C402.6496,635.3661 397.1432,652.1078 385.6232,687.1378" fill="none" id="SERVICIOS-DETALLE" style="stroke:#181818;stroke-width:1;"/><line style="stroke:#181818;stroke-width:1;" x1="410.8202" x2="418.4194" y1="597.7363" y2="600.2367"/><line style="stroke:#181818;stroke-width:1;" x1="409.8825" x2="417.4817" y1="600.586" y2="603.0864"/><line style="stroke:#181818;stroke-width:1;" x1="413.3696" x2="415.87" y1="602.7861" y2="595.1869"/><line style="stroke:#181818;stroke-width:1;" x1="382.4992" x2="385.6997" y1="696.6373" y2="706.1113"/><line style="stroke:#181818;stroke-width:1;" x1="382.4992" x2="374.3003" y1="696.6373" y2="702.3625"/><line style="stroke:#181818;stroke-width:1;" x1="382.4992" x2="380" y1="696.6373" y2="704.2369"/><ellipse cx="384.3736" cy="690.9376" fill="none" rx="4" ry="4" style="stroke:#181818;stroke-width:1;"/><text fill="#000000" font-family="sans-serif" font-size="13" lengthAdjust="spacing" textLength="75.1309" x="399.26" y="662.4038">aplicado en</text></g><!--link RECETAS to RECETA_PROD--><g class="link" data-entity-1="RECETAS" data-entity-2="RECETA_PROD" data-source-line="118" data-uid="lnk18" id="link_RECETAS_RECETA_PROD"><path codeLine="118" d="M1029.26,611.4569 C1029.26,653.9669 1029.26,682.3969 1029.26,718.7169" fill="none" id="RECETAS-RECETA_PROD" style="stroke:#181818;stroke-width:1;"/><line style="stroke:#181818;stroke-width:1;" x1="1025.26" x2="1033.26" y1="607.4569" y2="607.4569"/><line style="stroke:#181818;stroke-width:1;" x1="1025.26" x2="1033.26" y1="610.4569" y2="610.4569"/><line style="stroke:#181818;stroke-width:1;" x1="1029.26" x2="1029.26" y1="611.4569" y2="603.4569"/><line style="stroke:#181818;stroke-width:1;" x1="1029.26" x2="1035.26" y1="728.7169" y2="736.7169"/><line style="stroke:#181818;stroke-width:1;" x1="1029.26" x2="1023.26" y1="728.7169" y2="736.7169"/><line style="stroke:#181818;stroke-width:1;" x1="1029.26" x2="1029.26" y1="728.7169" y2="736.7169"/><ellipse cx="1029.26" cy="722.7169" fill="none" rx="4" ry="4" style="stroke:#181818;stroke-width:1;"/><text fill="#000000" font-family="sans-serif" font-size="13" lengthAdjust="spacing" textLength="34.2266" x="1030.26" y="662.4038">1 a N</text></g><!--link PRODUCTOS to RECETA_PROD--><g class="link" data-entity-1="PRODUCTOS" data-entity-2="RECETA_PROD" data-source-line="119" data-uid="lnk19" id="link_PRODUCTOS_RECETA_PROD"><path codeLine="119" d="M830.2221,616.7855 C866.7821,642.6355 901.06,667.7769 937.26,696.3369 C953.38,709.0569 956.9754,711.749 972.0054,724.949" fill="none" id="PRODUCTOS-RECETA_PROD" style="stroke:#181818;stroke-width:1;"/><line style="stroke:#181818;stroke-width:1;" x1="824.6468" x2="829.2654" y1="617.7422" y2="611.2101"/><line style="stroke:#181818;stroke-width:1;" x1="827.0963" x2="831.7149" y1="619.4742" y2="612.9421"/><line style="stroke:#181818;stroke-width:1;" x1="830.2221" x2="823.69" y1="616.7855" y2="612.1669"/><line style="stroke:#181818;stroke-width:1;" x1="979.5191" x2="989.4893" y1="731.5478" y2="732.3187"/><line style="stroke:#181818;stroke-width:1;" x1="979.5191" x2="981.5707" y1="731.5478" y2="741.3351"/><line style="stroke:#181818;stroke-width:1;" x1="979.5191" x2="985.53" y1="731.5478" y2="736.8269"/><ellipse cx="975.0109" cy="727.5885" fill="none" rx="4" ry="4" style="stroke:#181818;stroke-width:1;"/><text fill="#000000" font-family="sans-serif" font-size="13" lengthAdjust="spacing" textLength="34.2266" x="896.26" y="662.4038">1 a N</text></g><!--link PEDIDOS to PAGOS--><g class="link" data-entity-1="PEDIDOS" data-entity-2="PAGOS" data-source-line="135" data-uid="lnk21" id="link_PEDIDOS_PAGOS"><path codeLine="135" d="M132.2666,611.4194 C129.4966,639.9394 128.7188,647.9511 125.7888,678.1411" fill="none" id="PEDIDOS-PAGOS" style="stroke:#181818;stroke-width:1;"/><line style="stroke:#181818;stroke-width:1;" x1="128.6721" x2="136.6346" y1="607.0515" y2="607.8248"/><line style="stroke:#181818;stroke-width:1;" x1="128.382" x2="136.3446" y1="610.0374" y2="610.8108"/><line style="stroke:#181818;stroke-width:1;" x1="132.2666" x2="133.04" y1="611.4194" y2="603.4569"/><line style="stroke:#181818;stroke-width:1;" x1="124.8228" x2="130.0219" y1="688.0943" y2="696.6365"/><line style="stroke:#181818;stroke-width:1;" x1="124.8228" x2="118.0781" y1="688.0943" y2="695.4773"/><line style="stroke:#181818;stroke-width:1;" x1="124.8228" x2="124.05" y1="688.0943" y2="696.0569"/><ellipse cx="125.4024" cy="682.1223" fill="none" rx="4" ry="4" style="stroke:#181818;stroke-width:1;"/><text fill="#000000" font-family="sans-serif" font-size="13" lengthAdjust="spacing" textLength="34.2266" x="130.26" y="662.4038">1 a N</text></g><!--link PRODUCTOS to INVENTARIO--><g class="link" data-entity-1="PRODUCTOS" data-entity-2="INVENTARIO" data-source-line="149" data-uid="lnk23" id="link_PRODUCTOS_INVENTARIO"><path codeLine="149" d="M747.6367,627.1268 C758.0967,657.3468 761.3388,666.7248 771.2088,695.2748" fill="none" id="PRODUCTOS-INVENTARIO" style="stroke:#181818;stroke-width:1;"/><line style="stroke:#181818;stroke-width:1;" x1="742.5484" x2="750.1083" y1="624.6552" y2="622.0385"/><line style="stroke:#181818;stroke-width:1;" x1="743.5296" x2="751.0896" y1="627.4902" y2="624.8735"/><line style="stroke:#181818;stroke-width:1;" x1="747.6367" x2="745.02" y1="627.1268" y2="619.5669"/><line style="stroke:#181818;stroke-width:1;" x1="774.4761" x2="782.7607" y1="704.7259" y2="710.3265"/><line style="stroke:#181818;stroke-width:1;" x1="774.4761" x2="771.4193" y1="704.7259" y2="714.2473"/><line style="stroke:#181818;stroke-width:1;" x1="774.4761" x2="777.09" y1="704.7259" y2="712.2869"/><ellipse cx="772.5157" cy="699.0553" fill="none" rx="4" ry="4" style="stroke:#181818;stroke-width:1;"/><text fill="#000000" font-family="sans-serif" font-size="13" lengthAdjust="spacing" textLength="34.2266" x="761.26" y="662.4038">1 a N</text></g><g class="legend" data-source-line="154"><rect fill="none" height="156.6719" rx="7.5" ry="7.5" style="stroke:#000000;stroke-width:1;" width="283.0342" x="858.7346" y="876.415"/><text fill="#000000" font-family="sans-serif" font-size="14" lengthAdjust="spacing" textLength="263.4365" x="863.7346" y="894.4101">&#129653; Azul claro: Usuarios y autenticaci&#243;n</text><text fill="#000000" font-family="sans-serif" font-size="14" lengthAdjust="spacing" textLength="240.1123" x="863.7346" y="910.707">&#128155; Amarillo claro: Roles / seguridad</text><text fill="#000000" font-family="sans-serif" font-size="14" lengthAdjust="spacing" textLength="261.1465" x="863.7346" y="927.0039">&#128154; Verde claro: Cat&#225;logo de productos</text><text fill="#000000" font-family="sans-serif" font-size="14" lengthAdjust="spacing" textLength="273.0342" x="863.7346" y="943.3007">&#129480; Amarillo p&#225;lido: Servicios adicionales</text><text fill="#000000" font-family="sans-serif" font-size="14" lengthAdjust="spacing" textLength="264.5918" x="863.7346" y="959.5976">&#128156; Lila claro: Recetas y valor agregado</text><text fill="#000000" font-family="sans-serif" font-size="14" lengthAdjust="spacing" textLength="223.0566" x="863.7346" y="975.8945">&#129654; Rosa p&#225;lido: Pedidos y detalle</text><text fill="#000000" font-family="sans-serif" font-size="14" lengthAdjust="spacing" textLength="161.499" x="863.7346" y="992.1914">&#128992; Durazno claro: Pagos</text><text fill="#000000" font-family="sans-serif" font-size="14" lengthAdjust="spacing" textLength="159.8652" x="863.7346" y="1008.4882">&#129653; Azul cielo: Inventario</text><text fill="#000000" font-family="sans-serif" font-size="14" lengthAdjust="spacing" textLength="4.4502" x="863.7346" y="1024.7851">&#160;</text></g><!--SRC=[dLVDRjj64BxxAGRI8KvGgPPTEOc17bRaAbKXImObkyr9M95hUM6AgowN3kmaXzvwxh4jaFPKv5W4xGleXVe8dUMFI96CBDG7szZvPdRccx-b5jhdS2uzxaleiP23ny5cMeRGee4M7lDQ3lUPAzQV0ZYaBUSfj82iVE4oBUuaVCVdqB2O2dW8GzGY_fBVUmnQ5qhUSrTBOt0Yh_KRfdZhCX1tN8N6B0pcN4cov0fD1GmQ1mVXhGXMJB4bp9bxkr0o2ZnB-bB1cnkXUK7EqJLz3syF0Feoq0beZcxUuabFAe-hujdxWghF5ppmOjLUxIrr1ghNl3yuU09Vr_-WfDE6oyabSGRZ2Rm6PpoaantuD9o68tqUDe25YGOq-o_fyvVzsDbd8BoPaZwSmM0qnODM2ty5SZbNF3s_8exr3N4EkqTFKUJnq5LYvGeP56IT8nIYyzcLbs74b939hHkNc_Of9VqN-SLH0gkxl6mSm9LASLbt7cY5DRR-YnM4nzsk4MhkysiP5DMEapY4ucufYbHdYn4CAc7jtRjMIxxDWpc3HWSOZ1gxKtRSXWjg3-muOpQTak6Gxf6p2-u9B-Klqs_sYTsp2_IjOj0sUpMiNdFtXkLWcqpfT71E3JjICnEeJQt1EHaUTew_E3OCy50pJvPoNqYlpL7FvxF4ozZ9DBIgarw2hNXPSjwSAEb5fhUpC-pWU5OKFJnAF0oZUSNvL8IMGgxkXBkX03tVf2rDOyPfdiNi90LayUoPvfCsM6Iw_d4uVZL6NRXmnlQbDHtlqvyNQTnfjZDDR9TklqjF2lak4xIxNvZc2wa4g_Jm2ajVo9alvehL4BZTubFwVPoV9SC9DukKNsqOviP3-mnwOsmLCZA4vs7yFqA_QiE4EbS3ooIDsERlYEmtxoPfzd5jUEPlmBBvbrjizgt-YLMOWQMIsHw41M4TauzokCbCsaTFG3CS-B2Aq6SEcxos8BkfKXopBAfDaSnCDDL0AaNohBuZAWdARUOfoWdR0S9mxe7xa7KwRdr8kni3n4Mzm7daCGK_HEkFcmY1cNM__bIzer0fCSQC8XuyKY_TDZZKGiszDY9tqTTq9oPQqAGlR4ABMp46xTThjIspOg4CCH_SF16sHLhmvKgMP9yPjecpiwmG2axFJ3OUTRokAinMI-DEIIzQB0p5Sf7KmtPcvXGt87crtoHaYsmA6WqiRflsxAD2SIFWiKsov5fwCeDkzwlYrrpnmDqQYftaHR34TuIiMORf-apC5PRdvvPaQP4aaUp9rVCs1d55HrEphFOWR13SuRzcsyUivRhG9DG-xNTowiG6MYMmF392BTtR6OxrYFcbmwK8n397Hhx6pP12nKDMoXkQwWPDmSizQHdIrtHa4pYdtuuTOfCTuFGXhiJYHgD__txu-3UGXyW7rsTAda7sCiMHnI9jU7IJpv0O_FElG9Oez_6x9LM8Ny_m9SwjHQJCQoG1_W9N7D_p6SfYUls7BnVnXqd6PnX3__mfjxb24DRg6UGxYkKxAh7y6mm5xeRi-cHKeRjtp7mdi8NY2wox9BP_qBsGvMRJPoEYqs4Smpxy3dQas4Em2Ifkj6rw17whOLOtLO9IB3CluVC_]--></g></svg>