<svg xmlns="http://www.w3.org/2000/svg" xmlns:xlink="http://www.w3.org/1999/xlink" contentStyleType="text/css" data-diagram-type="CLASS" height="1053px" preserveAspectRatio="none" style="width:1150px;height:1053px;background:#FFFFFF;" version="1.1" viewBox="0 0 1150 1053" width="1150px" zoomAndPan="magnify"><title>Modelo Entidad-Relacion "E-R" - Aplicativo Web "Carnes Los Almeyda"</title><defs/><g><g class="title" data-source-line="1"><text fill="#000000" font-family="sans-serif" font-size="14" font-weight="bold" lengthAdjust="spacing" textLength="554.1416" x="290.9445" y="22.9951">Modelo Entidad-Relacion "E-R" - Aplicativo Web "Carnes Los Almeyda"</text></g><!--class ROLES--><g class="entity" data-entity="ROLES" data-source-line="16" data-uid="ent0002" id="entity_ROLES"><rect fill="#F9E79F" height="96.8906" rx="2.5" ry="2.5" style="stroke:#181818;stroke-width:0.5;" width="174.1553" x="117.81" y="44.2969"/><ellipse cx="181.5927" cy="60.2969" fill="#ADD1B2" rx="11" ry="11" style="stroke:#181818;stroke-width:1;"/><path d="M185.7021,66.2969 L177.9833,66.2969 L177.9833,53.9063 L185.7021,53.9063 L185.7021,56.0625 L180.4365,56.0625 L180.4365,58.7344 L185.2021,58.7344 L185.2021,60.8906 L180.4365,60.8906 L180.4365,64.1406 L185.7021,64.1406 L185.7021,66.2969 Z " fill="#000000"/><text fill="#000000" font-family="sans-serif" font-size="14" lengthAdjust="spacing" textLength="38.0898" x="202.0927" y="65.1436">Roles</text><line style="stroke:#181818;stroke-width:0.5;" x1="118.81" x2="290.9653" y1="76.2969" y2="76.2969"/><ellipse cx="128.81" cy="89.9453" fill="#000000" rx="3" ry="3" style="stroke:#000000;stroke-width:1;"/><text fill="#000000" font-family="sans-serif" font-size="14" lengthAdjust="spacing" textLength="74.7578" x="137.81" y="93.292">id_rol : INT</text><line style="stroke:#181818;stroke-width:1;" x1="118.81" x2="290.9653" y1="100.5938" y2="100.5938"/><text fill="#000000" font-family="sans-serif" font-size="14" lengthAdjust="spacing" textLength="161.6494" x="123.81" y="117.5889">nombre_rol : VARCHAR</text><text fill="#000000" font-family="sans-serif" font-size="14" lengthAdjust="spacing" textLength="162.1553" x="123.81" y="133.8857">descripcion : VARCHAR</text></g><!--class USUARIOS--><g class="entity" data-entity="USUARIOS" data-source-line="23" data-uid="ent0003" id="entity_USUARIOS"><rect fill="#D6EAF8" height="162.0781" rx="2.5" ry="2.5" style="stroke:#181818;stroke-width:0.5;" width="172.4258" x="118.68" y="218.1869"/><ellipse cx="170.3939" cy="234.1869" fill="#ADD1B2" rx="11" ry="11" style="stroke:#181818;stroke-width:1;"/><path d="M174.5032,240.1869 L166.7845,240.1869 L166.7845,227.7963 L174.5032,227.7963 L174.5032,229.9525 L169.2376,229.9525 L169.2376,232.6244 L174.0032,232.6244 L174.0032,234.7806 L169.2376,234.7806 L169.2376,238.0306 L174.5032,238.0306 L174.5032,240.1869 Z " fill="#000000"/><text fill="#000000" font-family="sans-serif" font-size="14" lengthAdjust="spacing" textLength="60.498" x="190.8939" y="239.0336">Usuarios</text><line style="stroke:#181818;stroke-width:0.5;" x1="119.68" x2="290.1058" y1="250.1869" y2="250.1869"/><ellipse cx="129.68" cy="263.8353" fill="#000000" rx="3" ry="3" style="stroke:#000000;stroke-width:1;"/><text fill="#000000" font-family="sans-serif" font-size="14" lengthAdjust="spacing" textLength="108.377" x="138.68" y="267.182">id_usuario : INT</text><line style="stroke:#181818;stroke-width:1;" x1="119.68" x2="290.1058" y1="274.4838" y2="274.4838"/><text fill="#000000" font-family="sans-serif" font-size="14" lengthAdjust="spacing" textLength="136.4385" x="124.68" y="291.4789">nombre : VARCHAR</text><text fill="#000000" font-family="sans-serif" font-size="14" lengthAdjust="spacing" textLength="127.0596" x="124.68" y="307.7757">correo : VARCHAR</text><text fill="#000000" font-family="sans-serif" font-size="14" lengthAdjust="spacing" textLength="160.4258" x="124.68" y="324.0726">contrase&#241;a : VARCHAR</text><text fill="#000000" font-family="sans-serif" font-size="14" lengthAdjust="spacing" textLength="139.6445" x="124.68" y="340.3695">telefono : VARCHAR</text><text fill="#000000" font-family="sans-serif" font-size="14" lengthAdjust="spacing" textLength="145.9746" x="124.68" y="356.6664">direccion : VARCHAR</text><text fill="#000000" font-family="sans-serif" font-size="14" lengthAdjust="spacing" textLength="74.7578" x="124.68" y="372.9632">id_rol : INT</text></g><!--class PRODUCTOS--><g class="entity" data-entity="PRODUCTOS" data-source-line="39" data-uid="ent0005" id="entity_PRODUCTOS"><rect fill="#D5F5E3" height="162.0781" rx="2.5" ry="2.5" style="stroke:#181818;stroke-width:0.5;" width="172.1045" x="452.84" y="457.2569"/><ellipse cx="499.8576" cy="473.2569" fill="#ADD1B2" rx="11" ry="11" style="stroke:#181818;stroke-width:1;"/><path d="M503.967,479.2569 L496.2482,479.2569 L496.2482,466.8663 L503.967,466.8663 L503.967,469.0225 L498.7013,469.0225 L498.7013,471.6944 L503.467,471.6944 L503.467,473.8506 L498.7013,473.8506 L498.7013,477.1006 L503.967,477.1006 L503.967,479.2569 Z " fill="#000000"/><text fill="#000000" font-family="sans-serif" font-size="14" lengthAdjust="spacing" textLength="69.5693" x="520.3576" y="478.1036">Productos</text><line style="stroke:#181818;stroke-width:0.5;" x1="453.84" x2="623.9445" y1="489.2569" y2="489.2569"/><ellipse cx="463.84" cy="502.9053" fill="#000000" rx="3" ry="3" style="stroke:#000000;stroke-width:1;"/><text fill="#000000" font-family="sans-serif" font-size="14" lengthAdjust="spacing" textLength="119.2666" x="472.84" y="506.252">id_producto : INT</text><line style="stroke:#181818;stroke-width:1;" x1="453.84" x2="623.9445" y1="513.5538" y2="513.5538"/><text fill="#000000" font-family="sans-serif" font-size="14" lengthAdjust="spacing" textLength="136.4385" x="458.84" y="530.5489">nombre : VARCHAR</text><text fill="#000000" font-family="sans-serif" font-size="14" lengthAdjust="spacing" textLength="148.1621" x="458.84" y="546.8457">categoria : VARCHAR</text><text fill="#000000" font-family="sans-serif" font-size="14" lengthAdjust="spacing" textLength="158.0127" x="458.84" y="563.1426">precio_libra : DECIMAL</text><text fill="#000000" font-family="sans-serif" font-size="14" lengthAdjust="spacing" textLength="129.2061" x="458.84" y="579.4395">descripcion : TEXT</text><text fill="#000000" font-family="sans-serif" font-size="14" lengthAdjust="spacing" textLength="160.1045" x="458.84" y="595.7364">imagen_url : VARCHAR</text><text fill="#000000" font-family="sans-serif" font-size="14" lengthAdjust="spacing" textLength="124.4619" x="458.84" y="612.0332">activo : BOOLEAN</text></g><!--class SERVICIOS--><g class="entity" data-entity="SERVICIOS" data-source-line="50" data-uid="ent0006" id="entity_SERVICIOS"><rect fill="#FCF3CF" height="123.7813" rx="2.5" ry="2.5" style="stroke:#181818;stroke-width:0.5;" width="209.4287" x="664.18" y="476.4069"/><ellipse cx="724.7669" cy="497.7038" fill="#ADD1B2" rx="11" ry="11" style="stroke:#181818;stroke-width:1;"/><path d="M728.8763,503.7038 L721.1575,503.7038 L721.1575,491.3131 L728.8763,491.3131 L728.8763,493.4694 L723.6107,493.4694 L723.6107,496.1413 L728.3763,496.1413 L728.3763,498.2975 L723.6107,498.2975 L723.6107,501.5475 L728.8763,501.5475 L728.8763,503.7038 Z " fill="#000000"/><text fill="#000000" font-family="sans-serif" font-size="14" lengthAdjust="spacing" textLength="62.877" x="753.7059" y="494.402">Servicios</text><text fill="#000000" font-family="sans-serif" font-size="14" lengthAdjust="spacing" textLength="79.7549" x="745.2669" y="510.6989">Adicionales</text><line style="stroke:#181818;stroke-width:0.5;" x1="665.18" x2="872.6087" y1="519.0006" y2="519.0006"/><ellipse cx="675.18" cy="532.6491" fill="#000000" rx="3" ry="3" style="stroke:#000000;stroke-width:1;"/><text fill="#000000" font-family="sans-serif" font-size="14" lengthAdjust="spacing" textLength="110.5371" x="684.18" y="535.9957">id_servicio : INT</text><line style="stroke:#181818;stroke-width:1;" x1="665.18" x2="872.6087" y1="543.2975" y2="543.2975"/><text fill="#000000" font-family="sans-serif" font-size="14" lengthAdjust="spacing" textLength="197.4287" x="670.18" y="560.2926">nombre_servicio : VARCHAR</text><text fill="#000000" font-family="sans-serif" font-size="14" lengthAdjust="spacing" textLength="120.0117" x="670.18" y="576.5895">precio : DECIMAL</text><text fill="#000000" font-family="sans-serif" font-size="14" lengthAdjust="spacing" textLength="162.1553" x="670.18" y="592.8864">descripcion : VARCHAR</text></g><!--class PROD_SERV--><g class="entity" data-entity="PROD_SERV" data-source-line="59" data-uid="ent0007" id="entity_PROD_SERV"><rect fill="#FCF3CF" height="80.5938" rx="2.5" ry="2.5" style="stroke:#181818;stroke-width:0.5;" width="156.8584" x="692.46" y="737.0769"/><ellipse cx="707.46" cy="753.0769" fill="#ADD1B2" rx="11" ry="11" style="stroke:#181818;stroke-width:1;"/><path d="M711.5694,759.0769 L703.8506,759.0769 L703.8506,746.6863 L711.5694,746.6863 L711.5694,748.8425 L706.3038,748.8425 L706.3038,751.5144 L711.0694,751.5144 L711.0694,753.6706 L706.3038,753.6706 L706.3038,756.9206 L711.5694,756.9206 L711.5694,759.0769 Z " fill="#000000"/><text fill="#000000" font-family="sans-serif" font-size="14" lengthAdjust="spacing" textLength="124.8584" x="721.46" y="757.9236">Producto_Servicio</text><line style="stroke:#181818;stroke-width:0.5;" x1="693.46" x2="848.3184" y1="769.0769" y2="769.0769"/><ellipse cx="703.46" cy="782.7253" fill="#000000" rx="3" ry="3" style="stroke:#000000;stroke-width:1;"/><text fill="#000000" font-family="sans-serif" font-size="14" lengthAdjust="spacing" textLength="119.2666" x="712.46" y="786.072">id_producto : INT</text><ellipse cx="703.46" cy="799.0222" fill="#000000" rx="3" ry="3" style="stroke:#000000;stroke-width:1;"/><text fill="#000000" font-family="sans-serif" font-size="14" lengthAdjust="spacing" textLength="110.5371" x="712.46" y="802.3689">id_servicio : INT</text><line style="stroke:#181818;stroke-width:0.5;" x1="693.46" x2="848.3184" y1="809.6706" y2="809.6706"/></g><!--class RECETAS--><g class="entity" data-entity="RECETAS" data-source-line="69" data-uid="ent0010" id="entity_RECETAS"><rect fill="#E8DAEF" height="129.4844" rx="2.5" ry="2.5" style="stroke:#181818;stroke-width:0.5;" width="234.2705" x="908.76" y="473.5569"/><ellipse cx="993.6384" cy="489.5569" fill="#ADD1B2" rx="11" ry="11" style="stroke:#181818;stroke-width:1;"/><path d="M997.7478,495.5569 L990.029,495.5569 L990.029,483.1663 L997.7478,483.1663 L997.7478,485.3225 L992.4822,485.3225 L992.4822,487.9944 L997.2478,487.9944 L997.2478,490.1506 L992.4822,490.1506 L992.4822,493.4006 L997.7478,493.4006 L997.7478,495.5569 Z " fill="#000000"/><text fill="#000000" font-family="sans-serif" font-size="14" lengthAdjust="spacing" textLength="56.0137" x="1014.1384" y="494.4036">Recetas</text><line style="stroke:#181818;stroke-width:0.5;" x1="909.76" x2="1142.0305" y1="505.5569" y2="505.5569"/><ellipse cx="919.76" cy="519.2053" fill="#000000" rx="3" ry="3" style="stroke:#000000;stroke-width:1;"/><text fill="#000000" font-family="sans-serif" font-size="14" lengthAdjust="spacing" textLength="101.2949" x="928.76" y="522.552">id_receta : INT</text><line style="stroke:#181818;stroke-width:1;" x1="909.76" x2="1142.0305" y1="529.8538" y2="529.8538"/><text fill="#000000" font-family="sans-serif" font-size="14" lengthAdjust="spacing" textLength="136.4385" x="914.76" y="546.8489">nombre : VARCHAR</text><text fill="#000000" font-family="sans-serif" font-size="14" lengthAdjust="spacing" textLength="129.2061" x="914.76" y="563.1457">descripcion : TEXT</text><text fill="#000000" font-family="sans-serif" font-size="14" lengthAdjust="spacing" textLength="180.8584" x="914.76" y="579.4426">pasos_preparacion : TEXT</text><text fill="#000000" font-family="sans-serif" font-size="14" lengthAdjust="spacing" textLength="222.2705" x="914.76" y="595.7395">tiempo_preparacion : VARCHAR</text></g><!--class RECETA_PROD--><g class="entity" data-entity="RECETA_PROD" data-source-line="78" data-uid="ent0011" id="entity_RECETA_PROD"><rect fill="#E8DAEF" height="80.5938" rx="2.5" ry="2.5" style="stroke:#181818;stroke-width:0.5;" width="149.9951" x="917.89" y="737.0769"/><ellipse cx="932.89" cy="753.0769" fill="#ADD1B2" rx="11" ry="11" style="stroke:#181818;stroke-width:1;"/><path d="M936.9994,759.0769 L929.2806,759.0769 L929.2806,746.6863 L936.9994,746.6863 L936.9994,748.8425 L931.7338,748.8425 L931.7338,751.5144 L936.4994,751.5144 L936.4994,753.6706 L931.7338,753.6706 L931.7338,756.9206 L936.9994,756.9206 L936.9994,759.0769 Z " fill="#000000"/><text fill="#000000" font-family="sans-serif" font-size="14" lengthAdjust="spacing" textLength="117.9951" x="946.89" y="757.9236">Receta_Producto</text><line style="stroke:#181818;stroke-width:0.5;" x1="918.89" x2="1066.8851" y1="769.0769" y2="769.0769"/><ellipse cx="928.89" cy="782.7253" fill="#000000" rx="3" ry="3" style="stroke:#000000;stroke-width:1;"/><text fill="#000000" font-family="sans-serif" font-size="14" lengthAdjust="spacing" textLength="101.2949" x="937.89" y="786.072">id_receta : INT</text><ellipse cx="928.89" cy="799.0222" fill="#000000" rx="3" ry="3" style="stroke:#000000;stroke-width:1;"/><text fill="#000000" font-family="sans-serif" font-size="14" lengthAdjust="spacing" textLength="119.2666" x="937.89" y="802.3689">id_producto : INT</text><line style="stroke:#181818;stroke-width:0.5;" x1="918.89" x2="1066.8851" y1="809.6706" y2="809.6706"/></g><!--class PEDIDOS--><g class="entity" data-entity="PEDIDOS" data-source-line="89" data-uid="ent0014" id="entity_PEDIDOS"><rect fill="#FADBD8" height="129.4844" rx="2.5" ry="2.5" style="stroke:#181818;stroke-width:0.5;" width="190.3975" x="109.69" y="473.5569"/><ellipse cx="173.3497" cy="489.5569" fill="#ADD1B2" rx="11" ry="11" style="stroke:#181818;stroke-width:1;"/><path d="M177.459,495.5569 L169.7403,495.5569 L169.7403,483.1663 L177.459,483.1663 L177.459,485.3225 L172.1934,485.3225 L172.1934,487.9944 L176.959,487.9944 L176.959,490.1506 L172.1934,490.1506 L172.1934,493.4006 L177.459,493.4006 L177.459,495.5569 Z " fill="#000000"/><text fill="#000000" font-family="sans-serif" font-size="14" lengthAdjust="spacing" textLength="54.5781" x="193.8497" y="494.4036">Pedidos</text><line style="stroke:#181818;stroke-width:0.5;" x1="110.69" x2="299.0875" y1="505.5569" y2="505.5569"/><ellipse cx="120.69" cy="519.2053" fill="#000000" rx="3" ry="3" style="stroke:#000000;stroke-width:1;"/><text fill="#000000" font-family="sans-serif" font-size="14" lengthAdjust="spacing" textLength="104.2754" x="129.69" y="522.552">id_pedido : INT</text><line style="stroke:#181818;stroke-width:1;" x1="110.69" x2="299.0875" y1="529.8538" y2="529.8538"/><text fill="#000000" font-family="sans-serif" font-size="14" lengthAdjust="spacing" textLength="108.377" x="115.69" y="546.8489">id_usuario : INT</text><text fill="#000000" font-family="sans-serif" font-size="14" lengthAdjust="spacing" textLength="178.3975" x="115.69" y="563.1457">fecha_pedido : DATETIME</text><text fill="#000000" font-family="sans-serif" font-size="14" lengthAdjust="spacing" textLength="108.6162" x="115.69" y="579.4426">total : DECIMAL</text><text fill="#000000" font-family="sans-serif" font-size="14" lengthAdjust="spacing" textLength="129.5342" x="115.69" y="595.7395">estado : VARCHAR</text></g><!--class DETALLE--><g class="entity" data-entity="DETALLE" data-source-line="98" data-uid="ent0015" id="entity_DETALLE"><rect fill="#FADBD8" height="129.4844" rx="2.5" ry="2.5" style="stroke:#181818;stroke-width:0.5;" width="149.4844" x="232.15" y="712.6369"/><ellipse cx="253.1556" cy="728.6369" fill="#ADD1B2" rx="11" ry="11" style="stroke:#181818;stroke-width:1;"/><path d="M257.2649,734.6369 L249.5462,734.6369 L249.5462,722.2463 L257.2649,722.2463 L257.2649,724.4025 L251.9993,724.4025 L251.9993,727.0744 L256.7649,727.0744 L256.7649,729.2306 L251.9993,729.2306 L251.9993,732.4806 L257.2649,732.4806 L257.2649,734.6369 Z " fill="#000000"/><text fill="#000000" font-family="sans-serif" font-size="14" lengthAdjust="spacing" textLength="104.1387" x="268.4901" y="733.4836">Detalle_Pedido</text><line style="stroke:#181818;stroke-width:0.5;" x1="233.15" x2="380.6344" y1="744.6369" y2="744.6369"/><ellipse cx="243.15" cy="758.2853" fill="#000000" rx="3" ry="3" style="stroke:#000000;stroke-width:1;"/><text fill="#000000" font-family="sans-serif" font-size="14" lengthAdjust="spacing" textLength="104.5078" x="252.15" y="761.632">id_detalle : INT</text><line style="stroke:#181818;stroke-width:1;" x1="233.15" x2="380.6344" y1="768.9338" y2="768.9338"/><text fill="#000000" font-family="sans-serif" font-size="14" lengthAdjust="spacing" textLength="104.2754" x="238.15" y="785.9289">id_pedido : INT</text><text fill="#000000" font-family="sans-serif" font-size="14" lengthAdjust="spacing" textLength="119.2666" x="238.15" y="802.2257">id_producto : INT</text><text fill="#000000" font-family="sans-serif" font-size="14" lengthAdjust="spacing" textLength="137.4844" x="238.15" y="818.5226">cantidad : DECIMAL</text><text fill="#000000" font-family="sans-serif" font-size="14" lengthAdjust="spacing" textLength="133.6699" x="238.15" y="834.8195">subtotal : DECIMAL</text></g><!--class PAGOS--><g class="entity" data-entity="PAGOS" data-source-line="114" data-uid="ent0019" id="entity_PAGOS"><rect fill="#FDEBD0" height="162.0781" rx="2.5" ry="2.5" style="stroke:#181818;stroke-width:0.5;" width="189.7822" x="7" y="696.3369"/><ellipse cx="76.7573" cy="712.3369" fill="#ADD1B2" rx="11" ry="11" style="stroke:#181818;stroke-width:1;"/><path d="M80.8667,718.3369 L73.1479,718.3369 L73.1479,705.9463 L80.8667,705.9463 L80.8667,708.1025 L75.6011,708.1025 L75.6011,710.7744 L80.3667,710.7744 L80.3667,712.9306 L75.6011,712.9306 L75.6011,716.1806 L80.8667,716.1806 L80.8667,718.3369 Z " fill="#000000"/><text fill="#000000" font-family="sans-serif" font-size="14" lengthAdjust="spacing" textLength="41.7676" x="97.2573" y="717.1836">Pagos</text><line style="stroke:#181818;stroke-width:0.5;" x1="8" x2="195.7822" y1="728.3369" y2="728.3369"/><ellipse cx="18" cy="741.9853" fill="#000000" rx="3" ry="3" style="stroke:#000000;stroke-width:1;"/><text fill="#000000" font-family="sans-serif" font-size="14" lengthAdjust="spacing" textLength="91.4648" x="27" y="745.332">id_pago : INT</text><line style="stroke:#181818;stroke-width:1;" x1="8" x2="195.7822" y1="752.6338" y2="752.6338"/><text fill="#000000" font-family="sans-serif" font-size="14" lengthAdjust="spacing" textLength="104.2754" x="13" y="769.6289">id_pedido : INT</text><text fill="#000000" font-family="sans-serif" font-size="14" lengthAdjust="spacing" textLength="177.7822" x="13" y="785.9257">metodo_pago : VARCHAR</text><text fill="#000000" font-family="sans-serif" font-size="14" lengthAdjust="spacing" textLength="153.4258" x="13" y="802.2226">referencia : VARCHAR</text><text fill="#000000" font-family="sans-serif" font-size="14" lengthAdjust="spacing" textLength="121.7344" x="13" y="818.5195">monto : DECIMAL</text><text fill="#000000" font-family="sans-serif" font-size="14" lengthAdjust="spacing" textLength="165.5869" x="13" y="834.8164">fecha_pago : DATETIME</text><text fill="#000000" font-family="sans-serif" font-size="14" lengthAdjust="spacing" textLength="129.5342" x="13" y="851.1132">estado : VARCHAR</text></g><!--class INVENTARIO--><g class="entity" data-entity="INVENTARIO" data-source-line="130" data-uid="ent0021" id="entity_INVENTARIO"><rect fill="#AED6F1" height="129.4844" rx="2.5" ry="2.5" style="stroke:#181818;stroke-width:0.5;" width="240.2861" x="416.75" y="712.6369"/><ellipse cx="497.1167" cy="728.6369" fill="#ADD1B2" rx="11" ry="11" style="stroke:#181818;stroke-width:1;"/><path d="M501.2261,734.6369 L493.5073,734.6369 L493.5073,722.2463 L501.2261,722.2463 L501.2261,724.4025 L495.9604,724.4025 L495.9604,727.0744 L500.7261,727.0744 L500.7261,729.2306 L495.9604,729.2306 L495.9604,732.4806 L501.2261,732.4806 L501.2261,734.6369 Z " fill="#000000"/><text fill="#000000" font-family="sans-serif" font-size="14" lengthAdjust="spacing" textLength="71.0527" x="517.6167" y="733.4836">Inventario</text><line style="stroke:#181818;stroke-width:0.5;" x1="417.75" x2="656.0361" y1="744.6369" y2="744.6369"/><ellipse cx="427.75" cy="758.2853" fill="#000000" rx="3" ry="3" style="stroke:#000000;stroke-width:1;"/><text fill="#000000" font-family="sans-serif" font-size="14" lengthAdjust="spacing" textLength="127.3604" x="436.75" y="761.632">id_inventario : INT</text><line style="stroke:#181818;stroke-width:1;" x1="417.75" x2="656.0361" y1="768.9338" y2="768.9338"/><text fill="#000000" font-family="sans-serif" font-size="14" lengthAdjust="spacing" textLength="119.2666" x="422.75" y="785.9289">id_producto : INT</text><text fill="#000000" font-family="sans-serif" font-size="14" lengthAdjust="spacing" textLength="124.0313" x="422.75" y="802.2257">stock_actual : INT</text><text fill="#000000" font-family="sans-serif" font-size="14" lengthAdjust="spacing" textLength="133.417" x="422.75" y="818.5226">stock_minimo : INT</text><text fill="#000000" font-family="sans-serif" font-size="14" lengthAdjust="spacing" textLength="228.2861" x="422.75" y="834.8195">ultima_actualizacion : DATETIME</text></g><!--link ROLES to USUARIOS--><g class="link" data-entity-1="ROLES" data-entity-2="USUARIOS" data-source-line="34" data-uid="lnk4" id="link_ROLES_USUARIOS"><path codeLine="34" d="M204.89,149.6769 C204.89,172.3469 204.89,174.0269 204.89,199.7669" fill="none" id="ROLES-USUARIOS" style="stroke:#181818;stroke-width:1;"/><line style="stroke:#181818;stroke-width:1;" x1="200.89" x2="208.89" y1="145.6769" y2="145.6769"/><line style="stroke:#181818;stroke-width:1;" x1="200.89" x2="208.89" y1="148.6769" y2="148.6769"/><line style="stroke:#181818;stroke-width:1;" x1="204.89" x2="204.89" y1="149.6769" y2="141.6769"/><line style="stroke:#181818;stroke-width:1;" x1="204.89" x2="210.89" y1="209.7669" y2="217.7669"/><line style="stroke:#181818;stroke-width:1;" x1="204.89" x2="198.89" y1="209.7669" y2="217.7669"/><line style="stroke:#181818;stroke-width:1;" x1="204.89" x2="204.89" y1="209.7669" y2="217.7669"/><ellipse cx="204.89" cy="203.7669" fill="none" rx="4" ry="4" style="stroke:#181818;stroke-width:1;"/><text fill="#000000" font-family="sans-serif" font-size="13" lengthAdjust="spacing" textLength="34.2266" x="205.89" y="184.2538">1 a N</text></g><!--link PRODUCTOS to PROD_SERV--><g class="link" data-entity-1="PRODUCTOS" data-entity-2="PROD_SERV" data-source-line="63" data-uid="lnk8" id="link_PRODUCTOS_PROD_SERV"><path codeLine="63" d="M618.7299,625.6159 C633.4099,641.1759 643.29,651.4569 657.89,666.3369 C681.09,689.9969 694.6462,703.3792 716.1562,724.0992" fill="none" id="PRODUCTOS-PROD_SERV" style="stroke:#181818;stroke-width:1;"/><line style="stroke:#181818;stroke-width:1;" x1="613.0755" x2="618.8945" y1="625.4513" y2="619.9614"/><line style="stroke:#181818;stroke-width:1;" x1="615.1342" x2="620.9532" y1="627.6335" y2="622.1436"/><line style="stroke:#181818;stroke-width:1;" x1="618.7299" x2="613.24" y1="625.6159" y2="619.7969"/><line style="stroke:#181818;stroke-width:1;" x1="723.3583" x2="733.2825" y1="731.0368" y2="732.2656"/><line style="stroke:#181818;stroke-width:1;" x1="723.3583" x2="724.9575" y1="731.0368" y2="740.9081"/><line style="stroke:#181818;stroke-width:1;" x1="723.3583" x2="729.12" y1="731.0368" y2="736.5869"/><ellipse cx="719.0371" cy="726.8743" fill="none" rx="4" ry="4" style="stroke:#181818;stroke-width:1;"/></g><!--link SERVICIOS to PROD_SERV--><g class="link" data-entity-1="SERVICIOS" data-entity-2="PROD_SERV" data-source-line="64" data-uid="lnk9" id="link_SERVICIOS_PROD_SERV"><path codeLine="64" d="M769.4771,608.6566 C769.8371,651.6066 770.0848,681.7175 770.4048,718.8375" fill="none" id="SERVICIOS-PROD_SERV" style="stroke:#181818;stroke-width:1;"/><line style="stroke:#181818;stroke-width:1;" x1="765.4437" x2="773.4434" y1="604.6903" y2="604.6232"/><line style="stroke:#181818;stroke-width:1;" x1="765.4688" x2="773.4685" y1="607.6902" y2="607.6231"/><line style="stroke:#181818;stroke-width:1;" x1="769.4771" x2="769.41" y1="608.6566" y2="600.6569"/><line style="stroke:#181818;stroke-width:1;" x1="770.491" x2="776.5598" y1="728.8372" y2="736.7852"/><line style="stroke:#181818;stroke-width:1;" x1="770.491" x2="764.5602" y1="728.8372" y2="736.8886"/><line style="stroke:#181818;stroke-width:1;" x1="770.491" x2="770.56" y1="728.8372" y2="736.8369"/><ellipse cx="770.4393" cy="722.8374" fill="none" rx="4" ry="4" style="stroke:#181818;stroke-width:1;"/></g><!--link RECETAS to RECETA_PROD--><g class="link" data-entity-1="RECETAS" data-entity-2="RECETA_PROD" data-source-line="83" data-uid="lnk12" id="link_RECETAS_RECETA_PROD"><path codeLine="83" d="M1015.8566,611.3804 C1009.9366,653.8904 1005.9537,682.5691 1000.8937,718.8891" fill="none" id="RECETAS-RECETA_PROD" style="stroke:#181818;stroke-width:1;"/><line style="stroke:#181818;stroke-width:1;" x1="1012.4465" x2="1020.37" y1="606.8669" y2="607.9704"/><line style="stroke:#181818;stroke-width:1;" x1="1012.0327" x2="1019.9563" y1="609.8382" y2="610.9417"/><line style="stroke:#181818;stroke-width:1;" x1="1015.8566" x2="1016.96" y1="611.3804" y2="603.4569"/><line style="stroke:#181818;stroke-width:1;" x1="999.5139" x2="1004.3526" y1="728.7934" y2="737.5448"/><line style="stroke:#181818;stroke-width:1;" x1="999.5139" x2="992.4674" y1="728.7934" y2="735.889"/><line style="stroke:#181818;stroke-width:1;" x1="999.5139" x2="998.41" y1="728.7934" y2="736.7169"/><ellipse cx="1000.3418" cy="722.8508" fill="none" rx="4" ry="4" style="stroke:#181818;stroke-width:1;"/><text fill="#000000" font-family="sans-serif" font-size="13" lengthAdjust="spacing" textLength="34.2266" x="1010.89" y="662.4038">1 a N</text></g><!--link PRODUCTOS to RECETA_PROD--><g class="link" data-entity-1="PRODUCTOS" data-entity-2="RECETA_PROD" data-source-line="84" data-uid="lnk13" id="link_PRODUCTOS_RECETA_PROD"><path codeLine="84" d="M632.0105,610.9841 C639.1705,615.5141 639.67,615.5169 646.89,619.3369 C738.43,667.8369 773.67,651.1569 866.89,696.3369 C890.56,707.8069 900.2106,712.9072 921.4106,726.7872" fill="none" id="PRODUCTOS-RECETA_PROD" style="stroke:#181818;stroke-width:1;"/><line style="stroke:#181818;stroke-width:1;" x1="626.4916" x2="630.7689" y1="612.2258" y2="605.4652"/><line style="stroke:#181818;stroke-width:1;" x1="629.0268" x2="633.3041" y1="613.8298" y2="607.0692"/><line style="stroke:#181818;stroke-width:1;" x1="632.0105" x2="625.25" y1="610.9841" y2="606.7069"/><line style="stroke:#181818;stroke-width:1;" x1="929.7769" x2="939.7566" y1="732.2648" y2="731.6271"/><line style="stroke:#181818;stroke-width:1;" x1="929.7769" x2="933.1834" y1="732.2648" y2="741.6667"/><line style="stroke:#181818;stroke-width:1;" x1="929.7769" x2="936.47" y1="732.2648" y2="736.6469"/><ellipse cx="924.7571" cy="728.9782" fill="none" rx="4" ry="4" style="stroke:#181818;stroke-width:1;"/><text fill="#000000" font-family="sans-serif" font-size="13" lengthAdjust="spacing" textLength="34.2266" x="783.89" y="662.4038">1 a N</text></g><!--link USUARIOS to PEDIDOS--><g class="link" data-entity-1="USUARIOS" data-entity-2="PEDIDOS" data-source-line="107" data-uid="lnk16" id="link_USUARIOS_PEDIDOS"><path codeLine="107" d="M204.89,388.4869 C204.89,418.7069 204.89,426.6569 204.89,455.2069" fill="none" id="USUARIOS-PEDIDOS" style="stroke:#181818;stroke-width:1;"/><line style="stroke:#181818;stroke-width:1;" x1="200.89" x2="208.89" y1="384.4869" y2="384.4869"/><line style="stroke:#181818;stroke-width:1;" x1="200.89" x2="208.89" y1="387.4869" y2="387.4869"/><line style="stroke:#181818;stroke-width:1;" x1="204.89" x2="204.89" y1="388.4869" y2="380.4869"/><line style="stroke:#181818;stroke-width:1;" x1="204.89" x2="210.89" y1="465.2069" y2="473.2069"/><line style="stroke:#181818;stroke-width:1;" x1="204.89" x2="198.89" y1="465.2069" y2="473.2069"/><line style="stroke:#181818;stroke-width:1;" x1="204.89" x2="204.89" y1="465.2069" y2="473.2069"/><ellipse cx="204.89" cy="459.2069" fill="none" rx="4" ry="4" style="stroke:#181818;stroke-width:1;"/><text fill="#000000" font-family="sans-serif" font-size="13" lengthAdjust="spacing" textLength="34.2266" x="205.89" y="423.3238">1 a N</text></g><!--link PEDIDOS to DETALLE--><g class="link" data-entity-1="PEDIDOS" data-entity-2="DETALLE" data-source-line="108" data-uid="lnk17" id="link_PEDIDOS_DETALLE"><path codeLine="108" d="M235.6532,610.805 C250.1732,644.535 257.6346,661.8929 272.1546,695.6329" fill="none" id="PEDIDOS-DETALLE" style="stroke:#181818;stroke-width:1;"/><line style="stroke:#181818;stroke-width:1;" x1="230.3976" x2="237.7456" y1="608.7125" y2="605.5493"/><line style="stroke:#181818;stroke-width:1;" x1="231.5837" x2="238.9318" y1="611.468" y2="608.3049"/><line style="stroke:#181818;stroke-width:1;" x1="235.6532" x2="232.49" y1="610.805" y2="603.4569"/><line style="stroke:#181818;stroke-width:1;" x1="276.1076" x2="284.7813" y1="704.8185" y2="709.7951"/><line style="stroke:#181818;stroke-width:1;" x1="276.1076" x2="273.7587" y1="704.8185" y2="714.5387"/><line style="stroke:#181818;stroke-width:1;" x1="276.1076" x2="279.27" y1="704.8185" y2="712.1669"/><ellipse cx="273.7358" cy="699.3071" fill="none" rx="4" ry="4" style="stroke:#181818;stroke-width:1;"/><text fill="#000000" font-family="sans-serif" font-size="13" lengthAdjust="spacing" textLength="34.2266" x="260.89" y="662.4038">1 a N</text></g><!--link PRODUCTOS to DETALLE--><g class="link" data-entity-1="PRODUCTOS" data-entity-2="DETALLE" data-source-line="109" data-uid="lnk18" id="link_PRODUCTOS_DETALLE"><path codeLine="109" d="M454.754,625.2839 C425.174,655.5039 410.1397,670.8723 382.1997,699.4223" fill="none" id="PRODUCTOS-DETALLE" style="stroke:#181818;stroke-width:1;"/><line style="stroke:#181818;stroke-width:1;" x1="454.6935" x2="460.4105" y1="619.6274" y2="625.2234"/><line style="stroke:#181818;stroke-width:1;" x1="452.595" x2="458.312" y1="621.7713" y2="627.3673"/><line style="stroke:#181818;stroke-width:1;" x1="454.754" x2="460.35" y1="625.2839" y2="619.5669"/><line style="stroke:#181818;stroke-width:1;" x1="375.2054" x2="373.8982" y1="706.5693" y2="716.4835"/><line style="stroke:#181818;stroke-width:1;" x1="375.2054" x2="365.3218" y1="706.5693" y2="708.0903"/><line style="stroke:#181818;stroke-width:1;" x1="375.2054" x2="369.61" y1="706.5693" y2="712.2869"/><ellipse cx="379.402" cy="702.2811" fill="none" rx="4" ry="4" style="stroke:#181818;stroke-width:1;"/><text fill="#000000" font-family="sans-serif" font-size="13" lengthAdjust="spacing" textLength="34.2266" x="429.89" y="662.4038">1 a N</text></g><!--link PEDIDOS to PAGOS--><g class="link" data-entity-1="PEDIDOS" data-entity-2="PAGOS" data-source-line="125" data-uid="lnk20" id="link_PEDIDOS_PAGOS"><path codeLine="125" d="M173.8324,610.7944 C161.4424,639.3144 157.0697,649.3564 143.9597,679.5464" fill="none" id="PEDIDOS-PAGOS" style="stroke:#181818;stroke-width:1;"/><line style="stroke:#181818;stroke-width:1;" x1="171.7574" x2="179.0949" y1="605.5318" y2="608.7194"/><line style="stroke:#181818;stroke-width:1;" x1="170.5621" x2="177.8996" y1="608.2834" y2="611.471"/><line style="stroke:#181818;stroke-width:1;" x1="173.8324" x2="177.02" y1="610.7944" y2="603.4569"/><line style="stroke:#181818;stroke-width:1;" x1="139.9765" x2="142.2935" y1="688.7189" y2="698.4468"/><line style="stroke:#181818;stroke-width:1;" x1="139.9765" x2="131.2865" y1="688.7189" y2="693.667"/><line style="stroke:#181818;stroke-width:1;" x1="139.9765" x2="136.79" y1="688.7189" y2="696.0569"/><ellipse cx="142.3664" cy="683.2154" fill="none" rx="4" ry="4" style="stroke:#181818;stroke-width:1;"/><text fill="#000000" font-family="sans-serif" font-size="13" lengthAdjust="spacing" textLength="34.2266" x="157.89" y="662.4038">1 a N</text></g><!--link PRODUCTOS to INVENTARIO--><g class="link" data-entity-1="PRODUCTOS" data-entity-2="INVENTARIO" data-source-line="139" data-uid="lnk22" id="link_PRODUCTOS_INVENTARIO"><path codeLine="139" d="M538.1438,627.5666 C537.8938,657.7866 537.8213,665.7375 537.5813,694.2875" fill="none" id="PRODUCTOS-INVENTARIO" style="stroke:#181818;stroke-width:1;"/><line style="stroke:#181818;stroke-width:1;" x1="534.177" x2="542.1768" y1="623.5336" y2="623.5998"/><line style="stroke:#181818;stroke-width:1;" x1="534.1522" x2="542.152" y1="626.5335" y2="626.5997"/><line style="stroke:#181818;stroke-width:1;" x1="538.1438" x2="538.21" y1="627.5666" y2="619.5669"/><line style="stroke:#181818;stroke-width:1;" x1="537.4972" x2="543.4298" y1="704.2872" y2="712.3373"/><line style="stroke:#181818;stroke-width:1;" x1="537.4972" x2="531.4302" y1="704.2872" y2="712.2364"/><line style="stroke:#181818;stroke-width:1;" x1="537.4972" x2="537.43" y1="704.2872" y2="712.2869"/><ellipse cx="537.5477" cy="698.2874" fill="none" rx="4" ry="4" style="stroke:#181818;stroke-width:1;"/><text fill="#000000" font-family="sans-serif" font-size="13" lengthAdjust="spacing" textLength="50.7622" x="538.89" y="662.4038">1 a 1..N</text></g><g class="legend" data-source-line="144"><rect fill="none" height="156.6719" rx="7.5" ry="7.5" style="stroke:#000000;stroke-width:1;" width="271.1943" x="852.8362" y="876.415"/><text fill="#000000" font-family="sans-serif" font-size="14" lengthAdjust="spacing" textLength="13.3574" x="857.8362" y="894.4101">1.</text><text fill="#000000" font-family="sans-serif" font-size="14" lengthAdjust="spacing" textLength="236.7627" x="875.6438" y="894.4101">D6EAF8  Usuarios y autenticaci&#243;n</text><text fill="#000000" font-family="sans-serif" font-size="14" lengthAdjust="spacing" textLength="13.3574" x="857.8362" y="910.707">2.</text><text fill="#000000" font-family="sans-serif" font-size="14" lengthAdjust="spacing" textLength="181.9453" x="875.6438" y="910.707">F9E79F  Roles / seguridad</text><text fill="#000000" font-family="sans-serif" font-size="14" lengthAdjust="spacing" textLength="13.3574" x="857.8362" y="927.0039">3.</text><text fill="#000000" font-family="sans-serif" font-size="14" lengthAdjust="spacing" textLength="222.0449" x="875.6438" y="927.0039">D5F5E3  Cat&#225;logo de productos</text><text fill="#000000" font-family="sans-serif" font-size="14" lengthAdjust="spacing" textLength="13.3574" x="857.8362" y="943.3007">4.</text><text fill="#000000" font-family="sans-serif" font-size="14" lengthAdjust="spacing" textLength="207.6006" x="875.6438" y="943.3007">FCF3CF  Servicios adicionales</text><text fill="#000000" font-family="sans-serif" font-size="14" lengthAdjust="spacing" textLength="13.3574" x="857.8362" y="959.5976">5.</text><text fill="#000000" font-family="sans-serif" font-size="14" lengthAdjust="spacing" textLength="243.3867" x="875.6438" y="959.5976">E8DAEF  Recetas y valor agregado</text><text fill="#000000" font-family="sans-serif" font-size="14" lengthAdjust="spacing" textLength="13.3574" x="857.8362" y="975.8945">6.</text><text fill="#000000" font-family="sans-serif" font-size="14" lengthAdjust="spacing" textLength="186.3271" x="875.6438" y="975.8945">FADBD8  Pedidos y detalle</text><text fill="#000000" font-family="sans-serif" font-size="14" lengthAdjust="spacing" textLength="13.3574" x="857.8362" y="992.1914">7.</text><text fill="#000000" font-family="sans-serif" font-size="14" lengthAdjust="spacing" textLength="107.6387" x="875.6438" y="992.1914">FDEBD0  Pagos</text><text fill="#000000" font-family="sans-serif" font-size="14" lengthAdjust="spacing" textLength="13.3574" x="857.8362" y="1008.4882">8.</text><text fill="#000000" font-family="sans-serif" font-size="14" lengthAdjust="spacing" textLength="135.0234" x="875.6438" y="1008.4882">AED6F1  Inventario</text><ellipse cx="863.3362" cy="1020.5869" fill="#000000" rx="2.5" ry="2.5"/><text fill="#000000" font-family="sans-serif" font-size="14" lengthAdjust="spacing" textLength="98.376" x="869.8362" y="1024.7851">Fuente: negro</text></g><!--SRC=[bLRTRjis5BxtKnmu5zq6k5jGj6i3z4AMwCs0OxUodNR008EM68S8JNeKvI5hyp1zX66Fa1VhaKZz2x7d2yC-F8Vy-7tdXuORmU1QnKme8DBmcCQZa0aQSILXI4RX44RW7GIFgE571P_O5eO-rP8bC5C9U6BF7c8w72JtN1wefdlOqkX-frKgOry9fU7lEsvORPtXCUO1lWm09aeQwxJ58-_HCbOwPhfkUwo52hPZCiv3nxsdz6tGFUPnC7W1x_i_k3AUBJwk2QoNQo-SBfRmCuIB6La-4-EkD0oLOCaGQ68Zu6BoZlpwRf83_WbulD5Am1LCvoiqZ4Ru9TL-gvcpttYX_xiNeZbcIQJv8LUXiYFkugHrabBDbJsiH7eHl27Uv6rrNchT-ivid1SfhPbgcQJHD65F_zA6tJ31RfLiEiTSiwY55feNHl2MbAzVHoFrfG9z1SDBe30VdgNAXt0HhFtLuXmvFcWLfv5nB9MHIDFhoMloggBfu1nFyqGDsodDcvGSyF9SRGJVwcmX8FxqsfjrP5oHpzdUV4ynYpUfRafEexp0hc2yG9gyULtj9TD7ZhiaVqelpdv8MYJQaeGtKpyNV-9FNlcrP4jSL6_6rHRR5tdc2hLCV04_g8E5yYCOYfM5lf1A_lIVX8I3I94f-2lbJ6ElE78PfO9gAC-bKB3UqMjJtBVKRPDTitl3ZcvzztuSLCgxt2kt75JqTPREoSQG-6JbdTKQMCGCTSt1Hi45UHjufDuUSgUJMTYRLWUQg0GPOLchR2uPplO7rLhhQIeMuwQGeOPraz5o4c-V9bdPk-iwXkixLhNVqQZVxQmMGO9fS5w3O36FY_PWep39l60Sr7he8NTgYjBJMczPT4Shvy1RaTNqccJqAqD5ewXOOcYi-aK8a54XsCPYow45ICHiHhhGOklRmTQ2t5Sf4RNJle4hIRTji8YixDH5YJYcQk8vYtCey3wZRjVbB6MztyxJbUuALRC892uWu-2NcgReS8grFJCgLeLhLNsQtM9Bar5h2EnnNZPRfyi86r_BXpxrMmnQsF-FdEdyXinNcL9dC3ILH_oP9N1EKnKB5nu9tamkAwvuwTfbh9rLYL7H_GP7MKf5oxZdakyhprGO78JEbVzJTAMIfeoJTjBKK3fgBb- -FCNEZFn1ve7tZ8zxLMg-kpE8h7X4GV76WWUWgScOYn0cZhVCoRti87_ouHCnORjKPmMLxs3V5-1Jy_HDA4m078q5MKaURYSPb9CTQ3NOCmVNQi7D3SHmfDaBbkuqss7wv9lOTW2kZQ6FQmZvearvo6iXCpXTeP8-LtYIuZzs1PBXSnhp8xPqV0S0]--></g></svg>